<svg id="Layer_1" data-name="Layer 1" xmlns="http://www.w3.org/2000/svg" xmlns:xlink="http://www.w3.org/1999/xlink" viewBox="0 0 1219.64 504.2"><defs><style>.cls-1,.cls-11,.cls-14,.cls-17,.cls-20,.cls-23,.cls-26,.cls-29,.cls-32,.cls-35,.cls-38,.cls-41,.cls-44,.cls-47,.cls-5,.cls-50,.cls-53,.cls-56,.cls-59,.cls-6,.cls-62,.cls-65,.cls-68,.cls-71,.cls-73,.cls-74,.cls-75,.cls-76{fill:none;}.cls-2{fill:#fff;}.cls-3{fill:#e92827;}.cls-4{fill:#055ba7;}.cls-5,.cls-74,.cls-75,.cls-76{stroke:#231f20;}.cls-5,.cls-6,.cls-73,.cls-74,.cls-75,.cls-76{stroke-miterlimit:10;}.cls-5{stroke-width:1.89px;}.cls-6{stroke:#fff;stroke-width:2.83px;}.cls-7{clip-path:url(#clip-path);}.cls-8{fill:url(#radial-gradient);}.cls-9{clip-path:url(#clip-path-2);}.cls-10{opacity:0;}.cls-11,.cls-14,.cls-17,.cls-20,.cls-23,.cls-26,.cls-29,.cls-32,.cls-35,.cls-38,.cls-41,.cls-44,.cls-47,.cls-50,.cls-53,.cls-56,.cls-59,.cls-62,.cls-65,.cls-68,.cls-71,.cls-73{stroke:#6e6f71;}.cls-11,.cls-14{stroke-width:1.17px;}.cls-12{opacity:0.05;}.cls-13{clip-path:url(#clip-path-4);}.cls-14,.cls-17,.cls-20,.cls-23,.cls-26,.cls-29,.cls-32,.cls-35,.cls-38,.cls-41,.cls-44,.cls-47,.cls-50,.cls-53,.cls-56,.cls-59,.cls-62,.cls-65,.cls-68,.cls-71,.cls-73{stroke-linecap:square;}.cls-14{stroke-miterlimit:4.29;}.cls-15{opacity:0.1;}.cls-16{clip-path:url(#clip-path-5);}.cls-17{stroke-miterlimit:4.57;}.cls-17,.cls-20,.cls-23{stroke-width:1.16px;}.cls-18{opacity:0.14;}.cls-19{clip-path:url(#clip-path-6);}.cls-20{stroke-miterlimit:4.86;}.cls-21{opacity:0.19;}.cls-22{clip-path:url(#clip-path-7);}.cls-23{stroke-miterlimit:5.14;}.cls-24{opacity:0.24;}.cls-25{clip-path:url(#clip-path-8);}.cls-26{stroke-miterlimit:5.43;}.cls-26,.cls-29{stroke-width:1.15px;}.cls-27{opacity:0.29;}.cls-28{clip-path:url(#clip-path-9);}.cls-29{stroke-miterlimit:5.71;}.cls-30{opacity:0.33;}.cls-31{clip-path:url(#clip-path-10);}.cls-32{stroke-miterlimit:6;}.cls-32,.cls-35{stroke-width:1.14px;}.cls-33{opacity:0.38;}.cls-34{clip-path:url(#clip-path-11);}.cls-35{stroke-miterlimit:6.29;}.cls-36{opacity:0.43;}.cls-37{clip-path:url(#clip-path-12);}.cls-38{stroke-miterlimit:6.57;}.cls-38,.cls-41{stroke-width:1.13px;}.cls-39{opacity:0.48;}.cls-40{clip-path:url(#clip-path-13);}.cls-41{stroke-miterlimit:6.86;}.cls-42{opacity:0.52;}.cls-43{clip-path:url(#clip-path-14);}.cls-44{stroke-miterlimit:7.14;}.cls-44,.cls-47{stroke-width:1.12px;}.cls-45{opacity:0.57;}.cls-46{clip-path:url(#clip-path-15);}.cls-47{stroke-miterlimit:7.43;}.cls-48{opacity:0.62;}.cls-49{clip-path:url(#clip-path-16);}.cls-50{stroke-miterlimit:7.71;}.cls-50,.cls-53{stroke-width:1.11px;}.cls-51{opacity:0.67;}.cls-52{clip-path:url(#clip-path-17);}.cls-53{stroke-miterlimit:8;}.cls-54{opacity:0.71;}.cls-55{clip-path:url(#clip-path-18);}.cls-56{stroke-miterlimit:8.29;}.cls-56,.cls-59,.cls-62{stroke-width:1.11px;}.cls-57{opacity:0.76;}.cls-58{clip-path:url(#clip-path-19);}.cls-59{stroke-miterlimit:8.57;}.cls-60{opacity:0.81;}.cls-61{clip-path:url(#clip-path-20);}.cls-62{stroke-miterlimit:8.86;}.cls-63{opacity:0.86;}.cls-64{clip-path:url(#clip-path-21);}.cls-65{stroke-miterlimit:9.14;}.cls-65,.cls-68{stroke-width:1.1px;}.cls-66{opacity:0.9;}.cls-67{clip-path:url(#clip-path-22);}.cls-68{stroke-miterlimit:9.43;}.cls-69{opacity:0.95;}.cls-70{clip-path:url(#clip-path-23);}.cls-71{stroke-miterlimit:9.71;}.cls-71,.cls-73{stroke-width:1.09px;}.cls-72{clip-path:url(#clip-path-24);}.cls-74{stroke-width:1px;}.cls-75{stroke-width:0.51px;}.cls-76{stroke-width:0.95px;}</style><clipPath id="clip-path"><path id="SVGID" class="cls-1" d="M429.8,324.13a28.7,28.7,0,0,0,16.66,37.22,29.23,29.23,0,0,0,37.64-16.46,28.69,28.69,0,0,0-16.64-37.26A28.14,28.14,0,0,0,457,305.72a29.09,29.09,0,0,0-27.21,18.41"/></clipPath><radialGradient id="radial-gradient" cx="3541.13" cy="1858.31" r="13.11" gradientTransform="matrix(0.8, -2.05, -2.07, -0.79, 1468.28, 9067.22)" gradientUnits="userSpaceOnUse"><stop offset="0" stop-color="#fff"/><stop offset="0.39" stop-color="#fff"/><stop offset="0.39" stop-color="#fcfcfc"/><stop offset="0.82" stop-color="#615f5f"/><stop offset="1" stop-color="#231f20"/></radialGradient><clipPath id="clip-path-2"><rect id="SVGID-2" data-name="SVGID" class="cls-1" x="438.72" y="317.14" width="37.02" height="35.24"/></clipPath><clipPath id="clip-path-4"><rect id="SVGID-4" data-name="SVGID" class="cls-1" x="439.03" y="317.17" width="36.36" height="35.16"/></clipPath><clipPath id="clip-path-5"><rect id="SVGID-5" data-name="SVGID" class="cls-1" x="439.35" y="317.28" width="35.7" height="35"/></clipPath><clipPath id="clip-path-6"><rect id="SVGID-6" data-name="SVGID" class="cls-1" x="439.68" y="317.32" width="34.99" height="34.91"/></clipPath><clipPath id="clip-path-7"><rect id="SVGID-7" data-name="SVGID" class="cls-1" x="439.99" y="317.4" width="34.33" height="34.81"/></clipPath><clipPath id="clip-path-8"><rect id="SVGID-8" data-name="SVGID" class="cls-1" x="440.32" y="317.44" width="33.65" height="34.71"/></clipPath><clipPath id="clip-path-9"><rect id="SVGID-9" data-name="SVGID" class="cls-1" x="440.6" y="317.55" width="33" height="34.54"/></clipPath><clipPath id="clip-path-10"><rect id="SVGID-10" data-name="SVGID" class="cls-1" x="440.89" y="317.59" width="32.35" height="34.45"/></clipPath><clipPath id="clip-path-11"><rect id="SVGID-11" data-name="SVGID" class="cls-1" x="441.17" y="317.68" width="31.7" height="34.34"/></clipPath><clipPath id="clip-path-12"><rect id="SVGID-12" data-name="SVGID" class="cls-1" x="441.47" y="317.74" width="31.06" height="34.21"/></clipPath><clipPath id="clip-path-13"><rect id="SVGID-13" data-name="SVGID" class="cls-1" x="441.71" y="317.79" width="30.46" height="34.12"/></clipPath><clipPath id="clip-path-14"><rect id="SVGID-14" data-name="SVGID" class="cls-1" x="441.95" y="317.86" width="29.89" height="33.99"/></clipPath><clipPath id="clip-path-15"><rect id="SVGID-15" data-name="SVGID" class="cls-1" x="442.19" y="317.95" width="29.51" height="33.84"/></clipPath><clipPath id="clip-path-16"><rect id="SVGID-16" data-name="SVGID" class="cls-1" x="441.99" y="317.99" width="29.91" height="33.77"/></clipPath><clipPath id="clip-path-17"><rect id="SVGID-17" data-name="SVGID" class="cls-1" x="441.73" y="318.05" width="30.42" height="33.66"/></clipPath><clipPath id="clip-path-18"><rect id="SVGID-18" data-name="SVGID" class="cls-1" x="441.47" y="318.16" width="30.89" height="33.51"/></clipPath><clipPath id="clip-path-19"><rect id="SVGID-19" data-name="SVGID" class="cls-1" x="441.21" y="318.25" width="31.36" height="33.37"/></clipPath><clipPath id="clip-path-20"><rect id="SVGID-20" data-name="SVGID" class="cls-1" x="440.96" y="318.29" width="31.83" height="33.29"/></clipPath><clipPath id="clip-path-21"><rect id="SVGID-21" data-name="SVGID" class="cls-1" x="440.68" y="318.38" width="32.31" height="33.13"/></clipPath><clipPath id="clip-path-22"><rect id="SVGID-22" data-name="SVGID" class="cls-1" x="440.43" y="318.46" width="32.79" height="33"/></clipPath><clipPath id="clip-path-23"><rect id="SVGID-23" data-name="SVGID" class="cls-1" x="440.17" y="318.49" width="33.26" height="32.91"/></clipPath><clipPath id="clip-path-24"><rect id="SVGID-24" data-name="SVGID" class="cls-1" x="439.9" y="318.6" width="33.75" height="32.78"/></clipPath></defs><path class="cls-2" d="M984.1,272.33H940.48v7H941v44.17q13.49,0,19.41-1.15a36.06,36.06,0,0,0,15.59-7q7.83-6.15,7.83-13.93a15.09,15.09,0,0,0-3.13-9.84,11.83,11.83,0,0,0-9.67-4.26,26.8,26.8,0,0,0-7.53,1.27,23.39,23.39,0,0,0-6.75,3.08l2.32,9.73q6.61-3.36,8.35-3.36c4.24,0,6.34-.52,6.34,3.74,0,4-2.41,6.2-8,9a30.19,30.19,0,0,1-14.63,3.61l-1-.08.79-35H984.1Z"/><rect class="cls-2" x="935.96" y="272.33" width="4.53" height="7.03"/><path class="cls-2" d="M1000.65,319a38.77,38.77,0,0,1,10.53,6.72l5.4-5.24a35.4,35.4,0,0,0-12.19-8.2Z"/><path class="cls-2" d="M1034.17,272.33H988.54v7h36.83a193.92,193.92,0,0,0-37.26,17l2.35,9.85q8.63.24,20.2,6.12c7.72,3.92,11.65,8.13,14.55,12.63l9.78-1.3V279.36h-.82Zm-8.54,38.92a77.82,77.82,0,0,0-22.81-12.45,150.91,150.91,0,0,1,22.81-9.84Z"/><rect class="cls-2" x="984.1" y="272.33" width="4.44" height="7.02"/><path class="cls-2" d="M1039.65,272.33v7H1041c8.65,4.48,13,10.5,13,17.39,0,2-.87,3.12-2.62,6.07-1.91,3.27-3.83,4.91-5.74,4.91s-4.34-1.39-7.65-4.18v11.3c3.61,2.18,6.56,3.28,8.66,3.28q6.19,0,10.39-5.66,2.43-4.74,5-9.5c2.74-4.54,4.86-7.41,6.78-7.41a3.45,3.45,0,0,1,3,1.15,5.17,5.17,0,0,1,1.22,3.33v23h9.46V279.36h4.21v-7Zm33.43,17a7,7,0,0,0-5.16-2.13,10.26,10.26,0,0,0-6.65,2.87,22.53,22.53,0,0,0-6.56-10.75h18.37Z"/><polygon class="cls-2" points="1039.65 279.35 1039.65 272.33 1034.17 272.33 1034.17 279.36 1034.25 279.36 1034.25 279.35 1039.65 279.35"/><path class="cls-2" d="M980.9,272.33c-.17-1.28-.33-2.8-.5-4-.23-1.66-.37-3.34-.72-5a9.18,9.18,0,0,0-3.29-5.13,14.63,14.63,0,0,0-6.91-3,38.74,38.74,0,0,0-9.25-.45,26.56,26.56,0,0,0-6.37,1.43c-2.77.86-5.51,1.79-8.29,2.62a24.54,24.54,0,0,1-7.71,1.09,12.49,12.49,0,0,1-6.53-1.69h-.15c0,1,0,2,0,3,0,1.27,0,4.39,0,5.66a.54.54,0,0,0,.4.58,14.39,14.39,0,0,0,5.91,1,31.29,31.29,0,0,0,9-1.95c1.74-.6,3.48-1.21,5.18-1.91a23.72,23.72,0,0,1,6.08-1.6,19.57,19.57,0,0,1,6.11.06,8.5,8.5,0,0,1,7.14,7.49,13.79,13.79,0,0,1,.22,1.81h9.65Z"/><path class="cls-2" d="M871.58,279.37v-6.95H736.93s-.15-6.25,4.27-8.86,11.09.1,13.45.91,10.89,3.51,17,4.06,5.84-3.46,5.84-3.46v-7.34c-2.28,2.07-10.37,2.4-14.12,1.8s-7.56-2-16.46-4.28-16.33,2.54-18.4,4.28c-4.22,4.55-3.84,12.81-3.84,12.81H627.61v7H686.9v23.13a8.66,8.66,0,0,0-7-3.41A18.77,18.77,0,0,0,670,285.5c-16.26-7.1-22.28,4.34-23.22,7.56a15.51,15.51,0,0,0,0,7h11l.37,0,0-5.49c10.87-4.18,9.13,9.55,9.13,9.55a12.06,12.06,0,0,1-2,3.95,10.83,10.83,0,0,1-7.7,4c-3.8.39-8.37,0-11.37-2.57-3.67-3.18-5.06-8.36-5.67-13-.06-.49-.65-8.3-.31-8.3H628.48a36.12,36.12,0,0,0,6.65,24.06,31.48,31.48,0,0,0,4.77,5.15,18.08,18.08,0,0,0,6.14,3.35c6.3,2.23,13.26,2.89,19.59.39a25.9,25.9,0,0,0,10.79-8.32,30.79,30.79,0,0,0,2.5-3.77c.09-.17.6-1.51.78-1.55,3.88-.91,7.7,2.81,7.7,2.81v13.85h11.74V279.27h6.42V324h11.85v-44.7h7.43v44.9H736v-45h33v1.61l-28.37,15.24,5,11.24c20.61-2,22.62,16.66,22.62,16.66h11.94V289.51c3-.25,5.72,2.11,6.67,3.16,3.42,6-2.5,11.34-2.5,11.34L795,308.83c9-9.94,2.76-18.37,1.25-20.62-4.72-5.78-16.56-7.63-16.56-7.63v-1.25h51.19v.14s-4.17,2.56-8,11.29,1.25,13.92,3.26,15.57c4.12,2.71,12.25.4,12.25.4-4.22,10.34-15.46,5.62-16.26,5.37-9.39-5.62-6-28-6-28H804.88s0,3.77,0,4c0,4.26,0,9.55.91,13.74A32.67,32.67,0,0,0,810,312.76c1.77,2.74,3.79,5.67,6.68,7.52,13.82,8.9,26.64-1.5,26.64-1.5,10.44-8.43,8.37-21,8.37-21l-11-1.54c-3.31,4.47-6,2.71-6,2.71-2.51-1.95-.4-7.43-.4-7.43l5.57-7.92c4.55,10.78,18.8,8.57,18.8,8.57l.21.74c-11.91,18.15,2.73,29.65,3.84,31l10.17-5.62s-2.91-3.36-6.59-7.64c-7-8.83,4.59-19,4.59-19l-6.58-7.08c-18.22,3.31-14.94-5.17-14.94-5.17ZM768.46,306s-4.38-5.19-10.3-5.59l10.3-7.79Z"/><path class="cls-2" d="M901.22,311.31a10.11,10.11,0,0,1-3.36-1.42,3.61,3.61,0,0,1-1.67-3.53,5.41,5.41,0,0,1,2.68-3.3,9.92,9.92,0,0,1,5.24-1.48q5.77,0,13.45,5.49,8.13,5.82,8.12,11v5.49h10V279.36H936v-7H881.37v7a32.06,32.06,0,0,1,11,2.15c.52.24,1,.48,1.56.75,1,.5,1.89,1,2.79,1.63a22.6,22.6,0,0,1,2,1.5,16.33,16.33,0,0,1,4.85,8,17.74,17.74,0,0,0-11.76,3.6,13.08,13.08,0,0,0-.79,20,15.16,15.16,0,0,0,10.21,3.81C901.23,317.62,901.28,314.46,901.22,311.31Zm24.46-7.52c-4.43-4.53-8-7.53-11.95-9-.29-5.84-3.07-11.22-9.66-15.42h21.61Z"/><path class="cls-3" d="M691.56,405.2q-17.29-11.61-17.3-30.59,0-18.32,17.64-29.17l1.22,2.24q-11.73,8.15-11.73,26.32,0,10.17,2.1,16.07a28.79,28.79,0,0,0,9.7,13Z"/><path class="cls-3" d="M724.39,358.46v35.88l-4.68-5.41V373.17a4.54,4.54,0,0,0-1.6-2.19,4,4,0,0,0-2.49-1.12c-1.08,0-2.08.68-3,2q-5.64,8.48-7.41,8.81a9.49,9.49,0,0,1-1.36.07,5.19,5.19,0,0,1-3.06-.68c-1.23-.31-3.08-2.82-5.58-7.53l3.6-3.52a9.83,9.83,0,0,0,.81,3.25c.72,1.4,1.36,2.1,1.9,2.1s2.37-2.1,5.49-6.3q-.62-6.45-5.49-6.65a21.14,21.14,0,0,1-4.07-.41,6.28,6.28,0,0,1-3.05-2.64l-.88-.48-4.34-4.2h39.67l4.75,4.74Zm-4.68,0H707a8.31,8.31,0,0,1,3.12,6.72v.07c2-1.36,3.24-2,3.74-2,1.49,0,3.45,1.54,5.9,4.61Z"/><path class="cls-3" d="M754.5,358.46V395l-3-4.41q-5-12.33-17.16-13.29l-5-7a72,72,0,0,1,9-5.77,87,87,0,0,1,11.53-4.95v-1.16h-21.5l-4.68-4.74h35.47l4.68,4.74Zm-4.68,8a60.76,60.76,0,0,0-11,5.7,28.4,28.4,0,0,1,11,8.95Z"/><path class="cls-3" d="M763.86,357.31c-.28-3.16-.41-6.64-.41-10.44l2.62,2.17a15.9,15.9,0,0,0,.94,3.66c.18.27.43.61.74,1h5l4.7,4.74h-9.43v36.7l-4.61-5V364.49a5.46,5.46,0,0,0-.81-3.18,5.82,5.82,0,0,0-4.89-2.85h-1.08l-4.75-4.61a30.47,30.47,0,0,1,6.92-.13A6.67,6.67,0,0,1,763.86,357.31Z"/><path class="cls-3" d="M797.5,358.46v35.27L795,391.36c-2.22-4-3.44-6.22-3.67-6.58a16.49,16.49,0,0,0-5.42-5.15,18.29,18.29,0,0,0-8.55-2.65l-5-6.85a72.86,72.86,0,0,1,20.35-10.58v-1.09H772.39l-4.8-4.74h34l4.81,4.74Zm-13.57,31.61a4.07,4.07,0,0,1-3.08-1.32,4.26,4.26,0,0,1-1.26-3,3.93,3.93,0,0,1,1.15-2.81,3.72,3.72,0,0,1,2.79-1.19,4.46,4.46,0,0,1,4.2,3.32,4.11,4.11,0,0,1-.75,3.43A3.57,3.57,0,0,1,783.93,390.07ZM792.68,366a44.91,44.91,0,0,0-11,5.84,24.67,24.67,0,0,1,11,9.36Z"/><path class="cls-3" d="M842.12,367.62a7.41,7.41,0,0,1,2.17,2,12.25,12.25,0,0,1,3.12,7.66,9.94,9.94,0,0,1-.34,2.58,10.52,10.52,0,0,1-3.59,5.36,9.34,9.34,0,0,1-6,2q-6.18,0-10.78-6a24.75,24.75,0,0,1-3.6-7.39q-1.35-3.87-1.35-14.38a17.09,17.09,0,0,1,3.25,1.9,19.8,19.8,0,0,0,.55,6.44,36.41,36.41,0,0,0,1.49,5,15,15,0,0,0,3.8,5.08q3,2.58,5.76,2.38a15.4,15.4,0,0,0,4.34-.95c1.81-.77,2.71-1.79,2.71-3.06a3.59,3.59,0,0,0-.3-1.39c-.21-.47-.49-.71-.85-.71a1.53,1.53,0,0,0-.54.14,14.78,14.78,0,0,1-5.63,1.49,8.47,8.47,0,0,1-3.73-.88,10.06,10.06,0,0,1-4.55-6.38,13,13,0,0,1-.2-2.17q0-3,3.19-7.05c.18-.18.43-.45.74-.82H819.67l-4.74-4.74h45.51l4.68,4.74H842.53a13.47,13.47,0,0,0-1.83,1,.74.74,0,0,0-.27.48c0,.72,1,1.38,2.91,2a11.71,11.71,0,0,0,4.34.75,37.28,37.28,0,0,0,6.38-1.69q2.45,2.43,5.83,6a19.74,19.74,0,0,0-3.73,5.23,14.33,14.33,0,0,0-1.83,6,26.52,26.52,0,0,0-.34,4q0,3.74,2.71,9.84a1.67,1.67,0,0,1-1,.61,6.92,6.92,0,0,1-2.11-.48c-1-.31-1.62-.63-1.76-.95-.54-2.3-1.08-4.61-1.63-6.91a32,32,0,0,1-1-7A27.68,27.68,0,0,1,851,368a27.67,27.67,0,0,1-6.78-1.15c-2.85-.82-4.78-1.86-5.77-3.12-.13-.23-.75-1-1.83-2.38-.72.14-1.66,1.15-2.81,3.05s-1.74,3.28-1.74,4.14c0,1.09.62,1.63,1.84,1.63q1.08,0,5.36-2.17a15.88,15.88,0,0,1,1.89-.81,1.38,1.38,0,0,1,1,.4Z"/><path class="cls-3" d="M872,370.2a9.62,9.62,0,0,1,1.56,3.12,9.51,9.51,0,0,1,.14,1.56,4.53,4.53,0,0,1-1.43,3.49,5.43,5.43,0,0,1-3.86,1.32q-7.12,0-7.12-7.12a7.74,7.74,0,0,1,2.6-6,9,9,0,0,1,6.25-2.37q6.55,0,11.16,8.14l.4.74V358.46H859.07l-4.74-4.74h36.9l4.95,4.74h-9.63v36.77L884,391.7v-1.15a25.11,25.11,0,0,0-1.29-6.85,34.24,34.24,0,0,0-2.27-6.41,15.59,15.59,0,0,0-3.36-4.51A8.42,8.42,0,0,0,872,370.2Z"/><path class="cls-3" d="M905.81,358.19a6.07,6.07,0,0,0-3.53,1.09,4.46,4.46,0,0,0-1.9,3q-.54,3.19.68,10a82.36,82.36,0,0,1,1.43,9.84q0,6-6.11,9.76a9.33,9.33,0,0,1-4.47,1.83,2.17,2.17,0,0,1-2.24-1.69,1.21,1.21,0,0,1-.14-.54c0-.59.5-1,1.49-1.36,1.32-.41,2-.63,2.1-.68a13.92,13.92,0,0,0,2.51-2.24,9.4,9.4,0,0,0,1.09-4.2q.13-1.29-1.15-6.17a34.25,34.25,0,0,1-1.36-7.8,14.74,14.74,0,0,1,2-7.19c.81-1.13,1.63-2.26,2.44-3.4h-8.48l-4.81-4.74h22.11l5,4.74C910.69,358.29,908.48,358.19,905.81,358.19Z"/><path class="cls-3" d="M949.35,362l-.34-4.54q-.27-3.66-.27-11.13l3.53,3.46a3.94,3.94,0,0,0,.27,3.46q.13.27,1,.48,2.24-.08,4.68,0l4.74,4.74h-9.76v36.43l-5.23-5.5.28-18.58a12,12,0,0,0-1.63-5.39,12.89,12.89,0,0,0-3.6-4.51,6.6,6.6,0,0,0-3.86-1.43,6.94,6.94,0,0,0-6.38,3.33,11.51,11.51,0,0,1,2.31-.21q6.57,0,7.39,6,.54,4.28-6.92,12.28l-4.88-5.5q1.56-1.43,4.14-4.07c2.12-2.26,3.19-3.64,3.19-4.13s-.39-.82-1.16-.82a12.51,12.51,0,0,0-3,1.42,9.48,9.48,0,0,1-3.6,1.43,2.54,2.54,0,0,1-1.49-.48,5.62,5.62,0,0,1-3-5,9,9,0,0,1,1.46-4.68,9.92,9.92,0,0,1,3.42-3.6,11.2,11.2,0,0,1,5.63-1.35Q946.57,354.13,949.35,362Z"/><path class="cls-3" d="M963,357.31q-.4-4.74-.4-10.44L965.2,349a16.47,16.47,0,0,0,.93,3.66c.18.27.43.61.74,1h5l4.71,4.74h-9.43v36.7l-4.61-5V364.49a5.46,5.46,0,0,0-.82-3.18,5.79,5.79,0,0,0-4.88-2.85h-1.09l-4.74-4.61a30.38,30.38,0,0,1,6.91-.13A6.66,6.66,0,0,1,963,357.31Z"/><path class="cls-3" d="M1000.76,346.94a18.46,18.46,0,0,0-11.46-3.8,14.25,14.25,0,0,0-7.73,2.78,23.32,23.32,0,0,0-2.24,2.71c-1,1.36-1.47,2.24-1.43,2.65l1.16,2.44h6.1l4.75,4.74h-9.5v35.27l-4.81-4.61V358.46H971l-4.71-4.74h8.81c-.59-.59-1.16-1.21-1.73-1.87a3.29,3.29,0,0,1-.84-2.2,6.73,6.73,0,0,1,.74-3.19,23,23,0,0,1,3.46-4.51A18.49,18.49,0,0,1,981.5,339a10.7,10.7,0,0,1,4.68-.95q6.72,0,14.31,4.68a39.89,39.89,0,0,1,6.31,5.49l1.49,4.41Z"/><path class="cls-3" d="M1002.12,358.46v11.13c0,.68,0,1,.2,1.08,1.67-.4,3.55-1.85,5.67-4.34s3.13-3.52,3.45-3.52a1.42,1.42,0,0,1,1.08.54,15.35,15.35,0,0,1,5.6,12.14q0,8.2-5.56,12.14a14.28,14.28,0,0,1-17.9-1.89,30.28,30.28,0,0,1-5.7-9.88,46.37,46.37,0,0,1-2.78-11c0-.14-.21-2.26-.61-6.37l3.52,1.9a37,37,0,0,0,2.37,10.48q4.47,11.3,12.58,11.3a10.66,10.66,0,0,0,4.9-1.26,8.84,8.84,0,0,0,4.91-7.09,5.38,5.38,0,0,0-.88-2.85,28.83,28.83,0,0,1-5.13,4.48,7.14,7.14,0,0,1-4.33,1.63q-4.38,0-5.87-5.56a17.89,17.89,0,0,1-.2-3.39v-9.64H984.35l-4.82-4.74h40.9l4.82,4.74Zm6.17,39.55a4.17,4.17,0,0,1-3.94,2.64,4.68,4.68,0,0,1-3.39-1.25,4.48,4.48,0,0,1-1.29-3.36,5,5,0,0,1,1.33-3.39,4.12,4.12,0,0,1,3.22-1.49,4.29,4.29,0,0,1,4.61,4.47A5.55,5.55,0,0,1,1008.29,398Z"/><path class="cls-3" d="M1035.42,392.92a37.69,37.69,0,0,1-13,12.28l-1.22-2.24q11.73-8.15,11.73-26.25,0-10.17-2-16.14a25.36,25.36,0,0,0-9.77-13l1.56-2.1q6.24,3,11,10.24a36.91,36.91,0,0,1,6.38,20.76A30.7,30.7,0,0,1,1035.42,392.92Z"/><polygon class="cls-2" points="454.81 180.8 514.62 279.75 574.41 378.63 454.81 378.63 335.18 378.63 394.97 279.75 454.81 180.8"/><polygon class="cls-4" points="454.59 193.56 348.22 370.65 560.96 370.65 454.59 193.56"/><path class="cls-2" d="M391.59,342.54s12.68-7.39,27.62-6.2c1.64-34.72,34.47-36.83,34.47-36.83s15.88-2,29.53,11.63,8.64,33.4,8.64,33.4h52.89L491,255.29,474.34,284s-60.41-8.16-82.75,58.59"/><path class="cls-5" d="M391.59,342.54s12.68-7.39,27.62-6.2c1.64-34.72,34.47-36.83,34.47-36.83s15.88-2,29.53,11.63,8.64,33.4,8.64,33.4h52.89L491,255.29,474.34,284S413.93,275.79,391.59,342.54Z"/><line class="cls-6" x1="481.51" y1="352.6" x2="496.78" y2="366.21"/><line class="cls-6" x1="473.79" y1="352.6" x2="489.06" y2="366.21"/><line class="cls-6" x1="466.06" y1="352.6" x2="481.31" y2="366.21"/><line class="cls-6" x1="458.36" y1="352.6" x2="473.6" y2="366.21"/><line class="cls-6" x1="450.61" y1="352.6" x2="465.87" y2="366.21"/><line class="cls-6" x1="442.89" y1="352.6" x2="458.13" y2="366.21"/><line class="cls-6" x1="435.14" y1="352.6" x2="450.43" y2="366.21"/><line class="cls-6" x1="427.41" y1="352.6" x2="442.67" y2="366.21"/><line class="cls-6" x1="419.69" y1="352.6" x2="434.94" y2="366.21"/><line class="cls-6" x1="411.93" y1="352.6" x2="427.22" y2="366.21"/><line class="cls-6" x1="404.17" y1="352.6" x2="419.46" y2="366.21"/><line class="cls-6" x1="396.43" y1="352.6" x2="411.7" y2="366.21"/><line class="cls-6" x1="388.7" y1="352.6" x2="403.96" y2="366.21"/><line class="cls-6" x1="380.98" y1="352.6" x2="396.24" y2="366.21"/><line class="cls-6" x1="373.24" y1="352.6" x2="388.51" y2="366.21"/><line class="cls-6" x1="365.54" y1="352.6" x2="380.79" y2="366.21"/><g class="cls-7"><polygon class="cls-8" points="403.09 359.08 432.58 283.72 510.81 313.66 481.33 389.04 403.09 359.08"/></g><path class="cls-2" d="M462.83,319.07a17,17,0,0,1,9.86,22.06,17.27,17.27,0,0,1-22.31,9.78,17,17,0,0,1-9.86-22.06,17.33,17.33,0,0,1,22.31-9.78"/><g class="cls-9"><g class="cls-10"><g class="cls-9"><path class="cls-11" d="M453.52,334.87c-3.22.69-6.09-2.28-6.76-5.59a13.48,13.48,0,0,1,4.16-12c-6.06,4.89-7.45,15.6,0,20.19a7.12,7.12,0,0,0,4.71.55,4.55,4.55,0,0,1-3.53,3.3c-2.66.24-4.79.53-7.25-1.37a17,17,0,0,1-5.93-8.63c.61,4.32,3.22,7,6.33,9.74,4.67,3.48,11.89,2.44,14.08-3.17.85,1.71,1.5,3.1,1.07,4.93-2.24,6.12-9.25,7.45-14.93,6.24,6.37,2.09,14.77.11,16.87-7.34a7.37,7.37,0,0,0-1.37-7.08c2.45-.5,4.88,1.35,6,3.38a12.86,12.86,0,0,1-3.33,14.2,13.51,13.51,0,0,0,3.57-16.31c-1.81-2.9-4.74-4.85-8.22-4.43a4.57,4.57,0,0,1,3.52-3.33c6.17-1.13,11.47,3.74,13.16,10-1.58-5-4.54-9.3-9.34-11.17-4.37-1.27-9.27.25-11.05,4.59-1.91-1.84-1.64-4.46-.08-6.66,3.1-4.46,8.77-5.66,13.93-4.53-6.62-2.37-14.82.43-17.15,7.59A8,8,0,0,0,453.52,334.87Z"/></g></g><g class="cls-12"><g class="cls-13"><path class="cls-14" d="M453.56,334.75c-3.21.61-6.06-2.38-6.54-5.66a13,13,0,0,1,4.43-11.75c-6.11,4.65-8,15.64-.59,19.92a6.87,6.87,0,0,0,4.63.69,4.37,4.37,0,0,1-3.56,3.17c-2.61.32-4.77.4-7.12-1.59a16.3,16.3,0,0,1-5.6-8.68c.47,4.29,2.86,7.17,6,9.81,4.35,3.73,11.65,2.74,13.95-2.71.82,1.67,1.53,3.11.94,4.87-2.05,6.1-9.32,7.09-14.89,5.74,6.23,2.21,14.49.5,16.84-6.79a7.43,7.43,0,0,0-1.14-7c2.4-.42,4.87,1.43,5.8,3.47,2,4.6.43,10.34-3.71,13.94,4.65-3.52,6.9-10.31,4-16a8.19,8.19,0,0,0-8-4.61,4.48,4.48,0,0,1,3.56-3.17c6.1-1,11.21,4,12.71,10.25-1.42-4.93-4.16-9.49-8.92-11.27-4.22-1.57-9.13,0-11,4.19-1.83-1.82-1.51-4.41.09-6.56,3.2-4.26,8.8-5.32,13.88-4.05-6.47-2.5-15-.11-17.13,7.05A7.46,7.46,0,0,0,453.56,334.75Z"/></g></g><g class="cls-15"><g class="cls-16"><path class="cls-17" d="M453.59,334.64c-3.2.51-5.92-2.53-6.32-5.77a13,13,0,0,1,4.7-11.46c-6.14,4.44-8.31,15.21-1.11,19.64a6.41,6.41,0,0,0,4.52.78,4.22,4.22,0,0,1-3.58,3.07c-2.6.22-4.73.23-7-1.75a16.32,16.32,0,0,1-5.29-8.72c.33,4.21,2.64,7.14,5.61,9.83,4.21,3.81,11.44,3,13.87-2.31.76,1.73,1.4,3.13.78,4.84-2.18,6-9.39,6.74-14.85,5.26,6.08,2.35,14.28.89,16.81-6.2a7.35,7.35,0,0,0-.93-7c2.38-.37,4.77,1.53,5.63,3.56,1.85,4.63.15,10.23-4.05,13.69,4.71-3.34,7.1-9.94,4.37-15.69a8.07,8.07,0,0,0-7.76-4.76,4.45,4.45,0,0,1,3.6-3c6.08-.86,11,4.25,12.27,10.5-1.26-4.95-3.85-9.48-8.49-11.36a8.47,8.47,0,0,0-11,3.8c-1.76-1.83-1.35-4.37.29-6.47,3.27-4.14,8.84-5,13.79-3.63-6.29-2.65-14.74-.54-17.12,6.48A7.34,7.34,0,0,0,453.59,334.64Z"/></g></g><g class="cls-18"><g class="cls-19"><path class="cls-20" d="M453.6,334.58c-3.16.42-5.77-2.69-6.05-5.9a12.75,12.75,0,0,1,5-11.19c-6.19,4.17-8.64,14.82-1.67,19.38a6.51,6.51,0,0,0,4.44.92,4.12,4.12,0,0,1-3.64,2.87c-2.55.17-4.66.15-6.84-1.9a16.24,16.24,0,0,1-5-8.79c.21,4.2,2.41,7.14,5.27,9.9,4.05,3.89,11.2,3.31,13.77-1.89.68,1.7,1.28,3.14.64,4.81-2.34,5.85-9.49,6.38-14.86,4.75,6,2.52,14.08,1.29,16.81-5.63a7.23,7.23,0,0,0-.74-6.91c2.37-.31,4.69,1.64,5.47,3.68,1.7,4.6-.15,10.1-4.37,13.39,4.72-3.17,7.3-9.65,4.76-15.36a7.94,7.94,0,0,0-7.53-4.91,4.33,4.33,0,0,1,3.63-2.93c6-.68,10.7,4.55,11.81,10.73-1.09-4.91-3.52-9.5-8-11.48-4-1.76-8.92-.53-11,3.45-1.7-1.89-1.22-4.36.46-6.37,3.35-4,8.87-4.71,13.73-3.18-6.14-2.8-14.56-1-17.09,5.89A7.44,7.44,0,0,0,453.6,334.58Z"/></g></g><g class="cls-21"><g class="cls-22"><path class="cls-23" d="M453.63,334.49c-3.13.31-5.63-2.83-5.81-6a12.65,12.65,0,0,1,5.24-10.93c-6.25,4-9,14.35-2.21,19.09a6.32,6.32,0,0,0,4.36,1.05,4.16,4.16,0,0,1-3.69,2.77c-2.54.07-4.62,0-6.71-2.11a16,16,0,0,1-4.66-8.81c.09,4.13,2.16,7.1,4.92,9.93,3.9,3.93,11,3.59,13.67-1.45.64,1.69,1.19,3.11.48,4.73-2.48,5.73-9.57,6.06-14.83,4.28,5.83,2.66,13.89,1.69,16.8-5.1a7.12,7.12,0,0,0-.52-6.82c2.35-.24,4.59,1.76,5.28,3.82,1.56,4.57-.43,9.94-4.71,13.11,4.76-3,7.52-9.33,5.17-15a7.89,7.89,0,0,0-7.31-5.11,4.26,4.26,0,0,1,3.69-2.75c6-.53,10.46,4.78,11.36,10.94-.95-4.89-3.19-9.48-7.63-11.6-3.93-1.89-8.81-.78-11,3.09-1.62-1.92-1.06-4.36.64-6.32,3.45-3.81,8.93-4.32,13.71-2.73-6-2.93-14.39-1.35-17.11,5.32A7.44,7.44,0,0,0,453.63,334.49Z"/></g></g><g class="cls-24"><g class="cls-25"><path class="cls-26" d="M453.66,334.38c-3.12.23-5.49-3-5.59-6.09a12.49,12.49,0,0,1,5.52-10.66c-6.29,3.73-9.32,13.91-2.77,18.8a5.93,5.93,0,0,0,4.31,1.17,4.12,4.12,0,0,1-3.76,2.64c-2.5,0-4.54-.16-6.56-2.29a15.9,15.9,0,0,1-4.34-8.87c0,4.09,1.92,7.11,4.56,9.95,3.74,4.08,10.78,4,13.56-1,.59,1.71,1.09,3.13.35,4.73-2.65,5.58-9.64,5.69-14.8,3.79,5.68,2.82,13.71,2.08,16.78-4.54a7.14,7.14,0,0,0-.32-6.8c2.34-.12,4.5,1.91,5.11,4,1.41,4.58-.73,9.83-5.08,12.81,4.84-2.83,7.73-9,5.58-14.73a7.78,7.78,0,0,0-7.07-5.27,4.16,4.16,0,0,1,3.74-2.6c5.9-.32,10.19,5,10.91,11.17-.8-4.87-2.9-9.5-7.2-11.73-3.82-2-8.68-1-10.93,2.74-1.54-1.93-.92-4.35.83-6.2,3.5-3.72,8.94-4.05,13.61-2.29-5.84-3.1-14.17-1.83-17,4.71A7.2,7.2,0,0,0,453.66,334.38Z"/></g></g><g class="cls-27"><g class="cls-28"><path class="cls-29" d="M453.68,334.31c-3.09.07-5.32-3.1-5.32-6.25a12.3,12.3,0,0,1,5.79-10.36c-6.38,3.49-9.66,13.53-3.33,18.56a6.33,6.33,0,0,0,4.21,1.29,4.12,4.12,0,0,1-3.75,2.48c-2.51-.08-4.53-.32-6.47-2.48a15.6,15.6,0,0,1-4-8.94c-.16,4.05,1.69,7.1,4.23,10,3.56,4.1,10.54,4.21,13.46-.6.53,1.73,1,3.16.18,4.7-2.78,5.43-9.71,5.33-14.75,3.28,5.53,3,13.48,2.48,16.73-4a7,7,0,0,0-.1-6.72c2.32-.08,4.38,2,5,4.06,1.25,4.57-1,9.73-5.42,12.55,4.84-2.7,7.91-8.67,6-14.46a7.78,7.78,0,0,0-6.85-5.4,4.18,4.18,0,0,1,3.79-2.47c5.85-.14,9.94,5.3,10.46,11.39-.61-4.82-2.57-9.47-6.77-11.81-3.72-2.05-8.57-1.29-10.91,2.37-1.48-2-.78-4.35,1-6.12,3.59-3.58,9-3.73,13.56-1.82-5.71-3.26-14-2.27-17.06,4.14A7.22,7.22,0,0,0,453.68,334.31Z"/></g></g><g class="cls-30"><g class="cls-31"><path class="cls-32" d="M453.7,334.21c-3.06,0-5.19-3.25-5.08-6.37a12.17,12.17,0,0,1,6.06-10.07c-6.42,3.27-10,13.08-3.88,18.29a6.34,6.34,0,0,0,4.14,1.41,4,4,0,0,1-3.82,2.33c-2.46-.18-4.47-.45-6.31-2.66a15.41,15.41,0,0,1-3.71-9c-.29,4,1.44,7.09,3.87,10.07,3.4,4.18,10.32,4.51,13.35-.16.48,1.7.88,3.16,0,4.63-2.92,5.34-9.79,5-14.71,2.82,5.37,3.09,13.29,2.89,16.71-3.43a7,7,0,0,0,.11-6.67c2.3,0,4.29,2.14,4.79,4.19,1.08,4.57-1.35,9.63-5.78,12.26,4.9-2.47,8.13-8.33,6.36-14.09a7.63,7.63,0,0,0-6.62-5.59,4.07,4.07,0,0,1,3.83-2.35c5.81.3,9.69,5.58,10,11.63-.48-4.82-2.25-9.46-6.34-11.93-3.64-2.17-8.47-1.54-10.89,2-1.4-2-.65-4.34,1.19-6.05,3.67-3.4,9-3.4,13.5-1.37-5.56-3.43-13.8-2.68-17,3.55A7.08,7.08,0,0,0,453.7,334.21Z"/></g></g><g class="cls-33"><g class="cls-34"><path class="cls-35" d="M453.73,334.09c-3.05,0-5.05-3.39-4.86-6.45a12.14,12.14,0,0,1,6.35-9.79c-6.47,3-10.32,12.62-4.43,18a6.42,6.42,0,0,0,4.07,1.54,4,4,0,0,1-3.86,2.17c-2.46-.22-4.44-.56-6.19-2.81a15.69,15.69,0,0,1-3.41-9c-.4,4,1.23,7.09,3.54,10.1,3.24,4.25,10.07,4.83,13.24.27.41,1.72.78,3.17-.1,4.61-3.08,5.18-9.88,4.62-14.69,2.29,5.24,3.26,13.1,3.32,16.68-2.82a7,7,0,0,0,.33-6.62c2.27.08,4.18,2.25,4.62,4.32.91,4.56-1.64,9.48-6.12,11.93,4.94-2.28,8.32-8,6.76-13.76a7.61,7.61,0,0,0-6.38-5.74,4.16,4.16,0,0,1,3.85-2.24c5.79.28,9.43,5.9,9.59,11.91-.33-4.8-1.93-9.49-5.93-12a8,8,0,0,0-10.85,1.61c-1.32-2-.5-4.32,1.36-6,3.75-3.24,9.08-3.09,13.45-.93-5.39-3.59-13.62-3.1-17,3A6.92,6.92,0,0,0,453.73,334.09Z"/></g></g><g class="cls-36"><g class="cls-37"><path class="cls-38" d="M453.76,334c-3-.2-4.92-3.57-4.61-6.6a12.07,12.07,0,0,1,6.63-9.54c-6.55,2.81-10.68,12.23-5,17.76a6.11,6.11,0,0,0,4,1.65,3.94,3.94,0,0,1-3.92,2c-2.4-.32-4.38-.7-6.05-3a15.29,15.29,0,0,1-3.08-9.07c-.56,4,1,7.06,3.17,10.17,3.08,4.31,9.86,5.09,13.18.67.34,1.74.64,3.17-.28,4.6-3.23,5-10,4.24-14.67,1.81,5.1,3.39,12.89,3.69,16.65-2.3a6.75,6.75,0,0,0,.55-6.53c2.26.15,4.08,2.36,4.44,4.4.78,4.57-1.94,9.34-6.47,11.67a11.94,11.94,0,0,0,7.19-13.46,7.61,7.61,0,0,0-6.17-5.9,4.11,4.11,0,0,1,3.91-2c5.74.39,9.19,6.13,9.13,12.07-.17-4.75-1.61-9.44-5.48-12.16-3.45-2.35-8.23-2-10.84,1.31-1.25-2.08-.37-4.32,1.56-5.87,3.8-3.13,9.1-2.77,13.38-.5-5.27-3.73-13.44-3.54-17,2.42A6.9,6.9,0,0,0,453.76,334Z"/></g></g><g class="cls-39"><g class="cls-40"><path class="cls-41" d="M453.77,333.92c-3-.28-4.75-3.68-4.34-6.67a11.85,11.85,0,0,1,6.86-9.26c-6.55,2.59-11,11.78-5.52,17.46a6.18,6.18,0,0,0,3.91,1.77,4,4,0,0,1-4,1.93c-2.36-.39-4.32-.89-5.91-3.2a15.26,15.26,0,0,1-2.77-9.13c-.67,3.88.75,7.08,2.82,10.22,2.93,4.4,9.64,5.38,13.06,1.13.3,1.7.55,3.11-.41,4.54-3.36,4.89-10,3.88-14.66,1.29,5,3.54,12.71,4.1,16.67-1.71a6.87,6.87,0,0,0,.75-6.51c2.23.25,4,2.48,4.26,4.55.63,4.6-2.21,9.28-6.8,11.41,5-2,8.73-7.35,7.57-13.16a7.58,7.58,0,0,0-5.92-6.09,4,4,0,0,1,3.94-1.92c5.69.64,8.94,6.43,8.67,12.32,0-4.72-1.28-9.47-5.05-12.26-3.33-2.46-8.1-2.31-10.8.91-1.2-2.08-.24-4.27,1.72-5.78,3.92-2.95,9.14-2.42,13.31,0-5.07-3.88-13.23-4-17,1.82A6.92,6.92,0,0,0,453.77,333.92Z"/></g></g><g class="cls-42"><g class="cls-43"><path class="cls-44" d="M453.8,333.84c-2.95-.42-4.6-3.8-4.12-6.79a11.88,11.88,0,0,1,7.16-9c-6.64,2.34-11.34,11.38-6.08,17.21a5.9,5.9,0,0,0,3.85,1.88,4,4,0,0,1-4,1.79c-2.38-.5-4.27-1-5.8-3.39a15.21,15.21,0,0,1-2.46-9.16c-.8,3.86.5,7,2.5,10.26,2.74,4.48,9.39,5.65,12.93,1.55.25,1.69.44,3.15-.55,4.52-3.52,4.76-10.13,3.52-14.61.79,4.81,3.68,12.49,4.49,16.6-1.16a6.8,6.8,0,0,0,1-6.46c2.22.33,3.87,2.64,4.1,4.7.47,4.56-2.51,9.11-7.17,11.1,5.08-1.77,9-7,8-12.81a7.53,7.53,0,0,0-5.72-6.28,4.15,4.15,0,0,1,4-1.76c5.65.78,8.67,6.64,8.25,12.55.13-4.73-1-9.46-4.63-12.35-3.25-2.56-8-2.6-10.82.51-1.09-2.11-.06-4.27,1.93-5.67,4-2.82,9.19-2.14,13.26.36-4.93-4-13-4.36-16.94,1.3A6.9,6.9,0,0,0,453.8,333.84Z"/></g></g><g class="cls-45"><g class="cls-46"><path class="cls-47" d="M453.83,333.73c-2.95-.49-4.47-4-3.89-6.91a12,12,0,0,1,7.44-8.7c-6.68,2.1-11.68,10.95-6.63,16.94a6.05,6.05,0,0,0,3.75,2,3.93,3.93,0,0,1-4,1.65c-2.34-.53-4.24-1.15-5.66-3.56a15,15,0,0,1-2.13-9.22c-.91,3.83.26,7,2.12,10.31,2.6,4.54,9.19,5.95,12.85,2,.2,1.7.34,3.15-.7,4.45-3.68,4.61-10.19,3.21-14.6.32,4.69,3.84,12.31,4.9,16.61-.57a6.79,6.79,0,0,0,1.15-6.43c2.21.41,3.79,2.78,3.93,4.82.33,4.59-2.79,9-7.48,10.8,5.09-1.57,9.14-6.65,8.38-12.48a7.56,7.56,0,0,0-5.48-6.44,4.1,4.1,0,0,1,4-1.63c5.59,1,8.4,7,7.78,12.78.3-4.69-.65-9.46-4.2-12.45a7.9,7.9,0,0,0-10.79.15c-1-2.14.09-4.25,2.12-5.6,4.07-2.69,9.22-1.81,13.19.82-4.78-4.15-12.84-4.77-16.93.74A6.73,6.73,0,0,0,453.83,333.73Z"/></g></g><g class="cls-48"><g class="cls-49"><path class="cls-50" d="M453.85,333.64c-2.93-.57-4.33-4.09-3.65-7a11.88,11.88,0,0,1,7.73-8.46c-6.76,1.86-12,10.52-7.2,16.68a6.16,6.16,0,0,0,3.69,2.13,3.87,3.87,0,0,1-4.09,1.46c-2.33-.63-4.19-1.26-5.52-3.73a14.91,14.91,0,0,1-1.83-9.26c-1,3.79,0,7,1.79,10.34,2.43,4.63,9,6.27,12.75,2.41.13,1.73.21,3.19-.86,4.45-3.81,4.48-10.29,2.85-14.56-.19,4.55,4,12.09,5.3,16.56,0a6.73,6.73,0,0,0,1.39-6.34c2.19.46,3.7,2.89,3.76,4.92.16,4.57-3.1,8.86-7.84,10.55,5.14-1.42,9.35-6.38,8.79-12.22a7.5,7.5,0,0,0-5.27-6.58,4.14,4.14,0,0,1,4.1-1.51c5.54,1.16,8.16,7.19,7.32,13,.45-4.7-.32-9.45-3.76-12.58a7.88,7.88,0,0,0-10.77-.2c-.94-2.15.24-4.22,2.3-5.53,4.15-2.52,9.27-1.48,13.13,1.31-4.63-4.34-12.65-5.24-16.89.1A6.87,6.87,0,0,0,453.85,333.64Z"/></g></g><g class="cls-51"><g class="cls-52"><path class="cls-53" d="M453.85,333.56c-2.88-.69-4.16-4.21-3.36-7.15a11.73,11.73,0,0,1,8-8.15c-6.82,1.63-12.37,10.09-7.75,16.38a6.08,6.08,0,0,0,3.61,2.27,3.86,3.86,0,0,1-4.13,1.35c-2.31-.69-4.13-1.41-5.39-3.93a15,15,0,0,1-1.5-9.32c-1.18,3.75-.21,7,1.44,10.42,2.26,4.66,8.71,6.55,12.63,2.81.07,1.75.12,3.17-1,4.42-3.95,4.35-10.37,2.48-14.52-.67,4.4,4.13,11.91,5.68,16.53.52a6.68,6.68,0,0,0,1.59-6.28c2.2.54,3.59,3,3.62,5,0,4.58-3.41,8.77-8.21,10.27,5.19-1.24,9.56-6,9.17-11.86a7.53,7.53,0,0,0-5-6.8,4.17,4.17,0,0,1,4.13-1.34c5.48,1.34,7.92,7.49,6.86,13.25.63-4.63,0-9.44-3.32-12.69a7.86,7.86,0,0,0-10.73-.56c-.88-2.19.36-4.22,2.47-5.4,4.23-2.44,9.3-1.21,13.07,1.67-4.48-4.46-12.47-5.61-16.89-.43A6.92,6.92,0,0,0,453.85,333.56Z"/></g></g><g class="cls-54"><g class="cls-55"><path class="cls-56" d="M453.9,333.45c-2.89-.79-4-4.36-3.15-7.22a11.8,11.8,0,0,1,8.25-7.89c-6.84,1.39-12.67,9.67-8.28,16.13a6.12,6.12,0,0,0,3.52,2.38,4,4,0,0,1-4.17,1.2c-2.26-.79-4.09-1.57-5.26-4.11a15.1,15.1,0,0,1-1.19-9.38c-1.29,3.73-.43,7,1.08,10.44,2.11,4.78,8.51,6.85,12.53,3.26,0,1.74,0,3.18-1.15,4.4-4.07,4.19-10.43,2.13-14.52-1.2,4.29,4.29,11.73,6.13,16.54,1.11a6.67,6.67,0,0,0,1.8-6.23,5.37,5.37,0,0,1,3.43,5.16c-.14,4.58-3.68,8.68-8.5,10,5.2-1.06,9.72-5.7,9.55-11.57a7.44,7.44,0,0,0-4.79-6.91,4,4,0,0,1,4.17-1.21c5.44,1.52,7.67,7.73,6.44,13.47.78-4.63.3-9.46-2.9-12.82a7.89,7.89,0,0,0-10.73-.91c-.79-2.21.51-4.21,2.65-5.33,4.33-2.25,9.34-.89,13,2.15-4.32-4.63-12.27-6.08-16.85-1A6.86,6.86,0,0,0,453.9,333.45Z"/></g></g><g class="cls-57"><g class="cls-58"><path class="cls-59" d="M453.92,333.38c-2.83-.89-3.89-4.53-2.91-7.38a11.75,11.75,0,0,1,8.54-7.6c-6.92,1.19-13,9.22-8.85,15.85a6,6,0,0,0,3.45,2.51,3.85,3.85,0,0,1-4.21,1.06c-2.25-.82-4-1.7-5.13-4.26a15.08,15.08,0,0,1-.86-9.43c-1.44,3.65-.69,7,.71,10.48,2,4.86,8.28,7.14,12.46,3.69-.06,1.73-.11,3.16-1.31,4.36-4.25,4-10.53,1.73-14.48-1.71,4.11,4.45,11.51,6.54,16.48,1.67a6.65,6.65,0,0,0,2-6.14,5.34,5.34,0,0,1,3.26,5.26c-.31,4.57-4,8.53-8.87,9.72,5.25-.91,9.94-5.38,9.95-11.26a7.46,7.46,0,0,0-4.53-7.08,4,4,0,0,1,4.2-1.1c5.4,1.71,7.42,8,6,13.71.95-4.61.62-9.44-2.48-12.9-2.74-3.06-7.41-3.9-10.68-1.29-.73-2.28.66-4.2,2.85-5.27,4.37-2.1,9.36-.52,12.94,2.6-4.19-4.72-12.07-6.46-16.85-1.56A6.86,6.86,0,0,0,453.92,333.38Z"/></g></g><g class="cls-60"><g class="cls-61"><path class="cls-62" d="M453.94,333.27c-2.83-1-3.74-4.66-2.66-7.48a11.88,11.88,0,0,1,8.81-7.33c-7,1-13.37,8.81-9.41,15.6a6.12,6.12,0,0,0,3.39,2.62,4,4,0,0,1-4.28.92c-2.22-.94-4-1.87-5-4.46a14.94,14.94,0,0,1-.55-9.46c-1.54,3.63-.92,7,.37,10.5,1.79,4.95,8.05,7.45,12.35,4.14-.1,1.72-.21,3.18-1.46,4.3-4.38,3.92-10.59,1.41-14.45-2.16,4,4.58,11.32,6.91,16.49,2.21a6.66,6.66,0,0,0,2.22-6.08c2.14.76,3.29,3.36,3.09,5.4-.46,4.55-4.29,8.41-9.23,9.42,5.3-.73,10.16-5,10.38-11a7.62,7.62,0,0,0-4.34-7.27,4,4,0,0,1,4.27-.88c5.33,1.86,7.15,8.25,5.53,13.89,1.07-4.57.95-9.44-2.06-13a7.93,7.93,0,0,0-10.68-1.65c-.64-2.28.82-4.2,3-5.16,4.48-2,9.41-.22,12.89,3.05-4-4.91-11.88-6.91-16.84-2.18A6.94,6.94,0,0,0,453.94,333.27Z"/></g></g><g class="cls-63"><g class="cls-64"><path class="cls-65" d="M454,333.19c-2.8-1.09-3.59-4.79-2.45-7.58a12,12,0,0,1,9.11-7.05c-7,.68-13.7,8.39-10,15.29a6.05,6.05,0,0,0,3.31,2.74,3.92,3.92,0,0,1-4.29.81c-2.21-1-3.94-2-4.87-4.67a15.09,15.09,0,0,1-.23-9.5c-1.69,3.57-1.17,7,0,10.58,1.62,5,7.82,7.71,12.22,4.57-.15,1.7-.29,3.14-1.6,4.23-4.5,3.81-10.65,1.06-14.41-2.65,3.85,4.7,11.13,7.31,16.46,2.79a6.76,6.76,0,0,0,2.43-6.06c2.13.86,3.18,3.49,2.92,5.53-.6,4.56-4.59,8.27-9.56,9.12,5.33-.53,10.34-4.69,10.78-10.61a7.56,7.56,0,0,0-4.12-7.41,4.11,4.11,0,0,1,4.3-.81c5.33,2.1,6.9,8.55,5.11,14.17,1.23-4.58,1.25-9.42-1.62-13.12a7.9,7.9,0,0,0-10.66-2c-.58-2.34.95-4.18,3.2-5.09,4.56-1.77,9.44.08,12.82,3.51-3.86-5.08-11.68-7.34-16.8-2.75A6.92,6.92,0,0,0,454,333.19Z"/></g></g><g class="cls-66"><g class="cls-67"><path class="cls-68" d="M454,333.1c-2.79-1.2-3.45-5-2.19-7.71a12,12,0,0,1,9.37-6.78c-7.07.46-14,8-10.51,15a6.14,6.14,0,0,0,3.22,2.88,4,4,0,0,1-4.34.65c-2.18-1.07-3.91-2.17-4.73-4.86a15.06,15.06,0,0,1,.09-9.52c-1.8,3.5-1.41,7-.34,10.6,1.47,5.07,7.6,8,12.12,5-.19,1.71-.39,3.18-1.74,4.23-4.65,3.64-10.75.69-14.38-3.16,3.7,4.87,10.92,7.72,16.44,3.37a6.89,6.89,0,0,0,2.65-6,5.43,5.43,0,0,1,2.74,5.62c-.77,4.59-4.89,8.18-9.91,8.85,5.37-.32,10.55-4.35,11.18-10.28a7.58,7.58,0,0,0-3.9-7.57,4.08,4.08,0,0,1,4.35-.65c5.26,2.29,6.67,8.79,4.65,14.38,1.41-4.53,1.59-9.43-1.2-13.23A7.92,7.92,0,0,0,457,331.54c-.51-2.36,1.08-4.18,3.38-5,4.63-1.66,9.49.42,12.76,3.92-3.73-5.2-11.49-7.71-16.8-3.3A7,7,0,0,0,454,333.1Z"/></g></g><g class="cls-69"><g class="cls-70"><path class="cls-71" d="M454,333c-2.72-1.27-3.28-5.1-1.93-7.81a12,12,0,0,1,9.64-6.52c-7.14.23-14.38,7.53-11.06,14.74a6,6,0,0,0,3.13,3,3.9,3.9,0,0,1-4.38.52c-2.14-1.17-3.83-2.31-4.59-5a15,15,0,0,1,.4-9.6c-1.93,3.48-1.64,6.95-.7,10.68,1.34,5.1,7.4,8.27,12.05,5.41-.27,1.74-.52,3.16-1.89,4.16-4.81,3.54-10.85.35-14.35-3.62,3.56,5,10.69,8.11,16.39,3.9a6.76,6.76,0,0,0,2.85-5.92c2.09.95,3,3.7,2.6,5.73-1,4.6-5.2,8.07-10.26,8.59,5.4-.2,10.75-4.07,11.58-10a7.68,7.68,0,0,0-3.67-7.77,4.15,4.15,0,0,1,4.39-.49c5.22,2.44,6.41,9.07,4.21,14.63,1.54-4.53,1.88-9.45-.78-13.37-2.35-3.44-6.93-4.92-10.59-2.73-.44-2.4,1.23-4.16,3.56-4.92,4.72-1.52,9.53.72,12.7,4.39-3.57-5.36-11.28-8.19-16.77-3.93A7.21,7.21,0,0,0,454,333Z"/></g></g><g class="cls-72"><path class="cls-73" d="M454.06,332.92c-2.76-1.4-3.07-5.18-1.72-7.93a12.42,12.42,0,0,1,9.9-6.21c-7.17,0-14.33,6.88-11.6,14.46a6.53,6.53,0,0,0,3,3.12,4.23,4.23,0,0,1-4.42.4c-2-1.42-3.74-2.48-4.45-5.24a15.53,15.53,0,0,1,.71-9.65c-2,3.45-1.71,6.91-1,10.72,1.36,5.16,7.15,8.62,11.93,5.83-.34,1.75-.65,3.14-2,4.16-5.12,3.1-10.91,0-14.34-4.16,3.43,5.19,10.6,8.65,16.38,4.47a6.6,6.6,0,0,0,3.07-5.85c2.06,1,2.75,3.82,2.43,5.85a11.92,11.92,0,0,1-10.62,8.3,12.42,12.42,0,0,0,12-9.63c.32-3.14-.7-6.22-3.44-7.95a4.3,4.3,0,0,1,4.45-.37c5.11,2.75,6.14,9.34,3.75,14.86,1.71-4.49,2.05-9.31-.35-13.46-2.38-3.41-6.83-5.18-10.57-3.12-.36-2.38,1.38-4.14,3.74-4.82,4.79-1.38,9.57,1,12.65,4.82-3.42-5.51-10.93-8.27-16.75-4.47A7.41,7.41,0,0,0,454.06,332.92Z"/></g></g><path class="cls-74" d="M474.31,334.73a17.57,17.57,0,1,1-17.54-17.39A17.44,17.44,0,0,1,474.31,334.73Z"/><polyline class="cls-75" points="437.78 313.23 438.54 315.26 441.21 315.15"/><polyline class="cls-75" points="434.94 316.27 436 318.16 438.63 317.64"/><polyline class="cls-75" points="432.57 319.69 433.89 321.42 436.43 320.52"/><polyline class="cls-75" points="430.72 323.44 432.29 324.93 434.68 323.68"/><polyline class="cls-75" points="429.44 327.36 431.2 328.61 433.4 327.05"/><polyline class="cls-75" points="428.73 331.44 430.66 332.44 432.59 330.57"/><polyline class="cls-75" points="428.64 335.63 430.68 336.32 432.31 334.17"/><polyline class="cls-75" points="429.13 339.73 431.27 340.13 432.57 337.79"/><polyline class="cls-75" points="430.23 343.72 432.36 343.81 433.32 341.28"/><polyline class="cls-75" points="431.85 347.54 433.99 347.31 434.59 344.68"/><polyline class="cls-75" points="434.04 351.08 436.14 350.56 436.33 347.86"/><polyline class="cls-75" points="436.74 354.26 438.69 353.42 438.51 350.74"/><polyline class="cls-75" points="439.79 357.02 441.66 355.86 441.1 353.26"/><polyline class="cls-75" points="443.28 359.26 444.94 357.89 443.98 355.39"/><polyline class="cls-75" points="447.04 361.04 448.49 359.43 447.2 357.07"/><polyline class="cls-75" points="451.01 362.21 452.21 360.4 450.57 358.26"/><polyline class="cls-75" points="455.13 362.84 456.04 360.86 454.12 358.95"/><polyline class="cls-75" points="459.25 362.81 459.89 360.74 457.71 359.17"/><polyline class="cls-75" points="463.32 362.2 463.68 360.07 461.31 358.8"/><polyline class="cls-75" points="467.32 361.02 467.33 358.84 464.8 357.94"/><polyline class="cls-75" points="471.06 359.25 470.79 357.07 468.16 356.57"/><polyline class="cls-75" points="474.53 356.95 473.92 354.87 471.25 354.74"/><polyline class="cls-75" points="477.6 354.18 476.72 352.22 474.07 352.47"/><polyline class="cls-75" points="480.26 351 479.12 349.2 476.5 349.82"/><polyline class="cls-75" points="482.45 347.47 481.04 345.81 478.55 346.85"/><polyline class="cls-75" points="484.07 343.65 482.45 342.26 480.14 343.61"/><polyline class="cls-75" points="485.16 339.62 483.32 338.46 481.25 340.17"/><polyline class="cls-75" points="485.63 335.48 483.67 334.63 481.85 336.59"/><polyline class="cls-75" points="485.53 331.36 483.45 330.76 481.93 333.01"/><polyline class="cls-75" points="484.79 327.27 482.65 327 481.47 329.43"/><polyline class="cls-75" points="483.51 323.34 481.36 323.35 480.52 325.92"/><polyline class="cls-75" points="481.64 319.61 479.52 319.97 479.07 322.61"/><polyline class="cls-75" points="479.27 316.19 477.22 316.84 477.17 319.55"/><polyline class="cls-75" points="476.43 313.17 474.49 314.1 474.8 316.8"/><polyline class="cls-75" points="473.19 310.58 471.4 311.79 472.11 314.42"/><polyline class="cls-75" points="469.61 308.5 468.04 309.98 469.09 312.45"/><polyline class="cls-75" points="465.75 306.97 464.39 308.65 465.84 310.91"/><polyline class="cls-75" points="461.73 305.99 460.63 307.86 462.35 309.92"/><polyline class="cls-75" points="457.61 305.65 456.77 307.63 458.79 309.41"/><polyline class="cls-75" points="453.46 305.87 452.94 307.98 455.19 309.42"/><polyline class="cls-75" points="449.4 306.69 449.19 308.86 451.64 309.98"/><polyline class="cls-75" points="445.52 308.1 445.62 310.28 448.2 311.05"/><polyline class="cls-75" points="441.87 310.1 442.27 312.2 444.93 312.58"/><path class="cls-76" d="M480.78,334.28a23.62,23.62,0,1,1-23.6-23.39A23.49,23.49,0,0,1,480.78,334.28Z"/><path class="cls-2" d="M333.56,410.18c1.81-2.53,3.56-5,5.22-7.43s3.41-4.85,5.12-7.32c1.48-2.1,3.35-4.66,5.57-7.67h.37q8.49,11.08,17.08,22.08l-7.86,3.86-3.48-5.2-11.93.62-2.55,4.58Zm12.6-6,6.69-.34c-1.52-2.46-2.61-4.35-3.31-5.62L347.87,401c-.36.63-.89,1.68-1.71,3.15"/><path class="cls-2" d="M380,401.71c0,1.64,0,3,.05,3.87.15,4.62.22,7.11.22,7.35h-9.16V388.64h9.16q0,1.77-.15,5.4c-.07,2.41-.12,4.23-.12,5.45h.17l10.49-11,6.52,4.85-8.31,7.24,8.65,7.76-6.93,5.18c-1.23-1.38-2.38-2.67-3.48-3.87-.86-1-2-2.27-3.5-4s-2.76-3.11-3.44-3.94Z"/><rect class="cls-2" x="402.38" y="388.97" width="9.15" height="23.63"/><path class="cls-2" d="M420.75,389H430c-.16,1.14-.29,2.24-.36,3.24s-.11,2.2-.11,3.57c0,1.07,0,2.3.07,3.56s.05,2.29.08,3.06c0,3.26-.52,5.8-1.66,7.59-1.42,2.42-4.23,4.56-8.41,6.47l-4.2-5.79a8.13,8.13,0,0,0,4.71-4.35,16.25,16.25,0,0,0,1.12-6.64c0-1,0-2.33-.17-3.94-.22-3.58-.36-5.83-.36-6.77"/><path class="cls-2" d="M464,404.25c-.12-3-.22-6.6-.22-10.24h-.07c-.8,3.17-1.82,6.73-2.77,9.62l-3,9.7h-4.33L451,403.74c-.8-2.95-1.6-6.45-2.21-9.73h-.1c-.09,3.35-.23,7.19-.39,10.3l-.49,9.43h-5.09l1.54-24.87h7.38l2.42,8.32c.79,2.86,1.51,6,2.08,8.89h.13c.65-2.91,1.51-6.12,2.34-8.94l2.56-8.27h7.3l1.31,24.87h-5.38Z"/><path class="cls-2" d="M464,404.25c-.12-3-.22-6.6-.22-10.24h-.07c-.8,3.17-1.82,6.73-2.77,9.62l-3,9.7h-4.33L451,403.74c-.8-2.95-1.6-6.45-2.21-9.73h-.1c-.09,3.35-.23,7.19-.39,10.3l-.49,9.43h-5.09l1.54-24.87h7.38l2.42,8.32c.79,2.86,1.51,6,2.08,8.89h.13c.65-2.91,1.51-6.12,2.34-8.94l2.56-8.27h7.3l1.31,24.87h-5.38Z"/><path class="cls-2" d="M484.48,414.15c-7.23,0-11.52-5.57-11.52-12.66,0-7.45,4.7-13,11.91-13,7.53,0,11.65,5.73,11.65,12.55,0,8.21-4.83,13.12-12,13.12Zm.25-4.48c3.75,0,5.91-3.53,5.91-8.42,0-4.46-2.09-8.31-5.91-8.31s-6,3.75-6,8.4,2.25,8.33,5.93,8.33Z"/><path class="cls-2" d="M484.48,414.15c-7.23,0-11.52-5.57-11.52-12.66,0-7.45,4.7-13,11.91-13,7.53,0,11.65,5.73,11.65,12.55,0,8.21-4.83,13.12-12,13.12Zm.25-4.48c3.75,0,5.91-3.53,5.91-8.42,0-4.46-2.09-8.31-5.91-8.31s-6,3.75-6,8.4,2.25,8.33,5.93,8.33Z"/><polygon class="cls-2" points="503.77 393.6 497.14 393.6 497.14 388.87 515.98 388.87 515.98 393.6 509.3 393.6 509.3 413.76 503.77 413.76 503.77 393.6"/><polygon class="cls-2" points="503.77 393.6 497.14 393.6 497.14 388.87 515.98 388.87 515.98 393.6 509.3 393.6 509.3 413.76 503.77 413.76 503.77 393.6"/><path class="cls-2" d="M528.3,414.15c-7.24,0-11.54-5.57-11.54-12.66,0-7.45,4.74-13,12-13,7.53,0,11.64,5.73,11.64,12.55,0,8.21-4.84,13.12-12,13.12Zm.25-4.48c3.75,0,5.89-3.53,5.89-8.42,0-4.46-2.06-8.31-5.89-8.31s-6,3.74-6,8.4,2.22,8.33,5.93,8.33Z"/><path class="cls-2" d="M528.3,414.15c-7.24,0-11.54-5.57-11.54-12.66,0-7.45,4.74-13,12-13,7.53,0,11.64,5.73,11.64,12.55,0,8.21-4.84,13.12-12,13.12Zm.25-4.48c3.75,0,5.89-3.53,5.89-8.42,0-4.46-2.06-8.31-5.89-8.31s-6,3.74-6,8.4,2.22,8.33,5.93,8.33Z"/><path class="cls-2" d="M544,389.26a40.1,40.1,0,0,1,7.39-.57c3.64,0,6.18.57,7.94,2a6.31,6.31,0,0,1,2.28,5.21,6.62,6.62,0,0,1-4.33,6.1v.09c1.71.7,2.64,2.33,3.28,4.63.76,2.81,1.49,6.07,2,7.05h-5.69a32.45,32.45,0,0,1-1.67-5.8c-.7-3.14-1.75-3.95-4-4h-1.63v9.77H544Zm5.5,10.65h2.18c2.76,0,4.4-1.4,4.4-3.59s-1.52-3.41-4.08-3.41a10.51,10.51,0,0,0-2.5.17Z"/><path class="cls-2" d="M544,389.26a40.1,40.1,0,0,1,7.39-.57c3.64,0,6.18.57,7.94,2a6.31,6.31,0,0,1,2.28,5.21,6.62,6.62,0,0,1-4.33,6.1v.09c1.71.7,2.64,2.33,3.28,4.63.76,2.81,1.49,6.07,2,7.05h-5.69a32.45,32.45,0,0,1-1.67-5.8c-.7-3.14-1.75-3.95-4-4h-1.63v9.77H544Zm5.5,10.65h2.18c2.76,0,4.4-1.4,4.4-3.59s-1.52-3.41-4.08-3.41a10.51,10.51,0,0,0-2.5.17Z"/><path class="cls-2" d="M565.76,408a13.58,13.58,0,0,0,6.14,1.55c2.53,0,3.89-1,3.89-2.71,0-1.51-1.14-2.43-4.1-3.49-4.1-1.46-6.77-3.72-6.77-7.39,0-4.28,3.52-7.45,9.27-7.45a14.2,14.2,0,0,1,6.28,1.24l-1.26,4.52a11,11,0,0,0-5.1-1.2c-2.39,0-3.56,1.17-3.56,2.41,0,1.57,1.35,2.27,4.54,3.54,4.33,1.61,6.35,3.9,6.35,7.46,0,4.15-3.14,7.7-9.87,7.7a15.76,15.76,0,0,1-7-1.56Z"/><path class="cls-2" d="M565.76,408a13.58,13.58,0,0,0,6.14,1.55c2.53,0,3.89-1,3.89-2.71,0-1.51-1.14-2.43-4.1-3.49-4.1-1.46-6.77-3.72-6.77-7.39,0-4.28,3.52-7.45,9.27-7.45a14.2,14.2,0,0,1,6.28,1.24l-1.26,4.52a11,11,0,0,0-5.1-1.2c-2.39,0-3.56,1.17-3.56,2.41,0,1.57,1.35,2.27,4.54,3.54,4.33,1.61,6.35,3.9,6.35,7.46,0,4.15-3.14,7.7-9.87,7.7a15.76,15.76,0,0,1-7-1.56Z"/></svg>