<?xml version="1.0" encoding="utf-8"?>
<!-- Generator: Adobe Illustrator 25.3.1, SVG Export Plug-In . SVG Version: 6.00 Build 0)  -->
<svg version="1.1" id="Layer_1" xmlns="http://www.w3.org/2000/svg" xmlns:xlink="http://www.w3.org/1999/xlink" x="0px" y="0px"
	 viewBox="0 0 4000 4000" style="enable-background:new 0 0 4000 4000;" xml:space="preserve">
<style type="text/css">
	.st0{fill:#FFFFFF;}
	.st1{fill:#E92827;}
	.st2{fill:#055BA7;}
	.st3{fill:none;stroke:#231F20;stroke-width:1.8888;stroke-miterlimit:10;}
	.st4{fill:none;stroke:#FFFFFF;stroke-width:2.8341;stroke-miterlimit:10;}
	.st5{clip-path:url(#SVGID_25_);fill:url(#SVGID_26_);}
	.st6{opacity:0;clip-path:url(#SVGID_27_);}
	.st7{clip-path:url(#SVGID_28_);fill:none;stroke:#6E6F71;stroke-width:1.1713;}
	.st8{opacity:0.0476;clip-path:url(#SVGID_27_);}
	.st9{clip-path:url(#SVGID_29_);fill:none;stroke:#6E6F71;stroke-width:1.1713;stroke-linecap:square;stroke-miterlimit:4.286;}
	.st10{opacity:0.0952;clip-path:url(#SVGID_27_);}
	.st11{clip-path:url(#SVGID_30_);fill:none;stroke:#6E6F71;stroke-width:1.1635;stroke-linecap:square;stroke-miterlimit:4.571;}
	.st12{opacity:0.1429;clip-path:url(#SVGID_27_);}
	.st13{clip-path:url(#SVGID_31_);fill:none;stroke:#6E6F71;stroke-width:1.1635;stroke-linecap:square;stroke-miterlimit:4.857;}
	.st14{opacity:0.1905;clip-path:url(#SVGID_27_);}
	.st15{clip-path:url(#SVGID_32_);fill:none;stroke:#6E6F71;stroke-width:1.1635;stroke-linecap:square;stroke-miterlimit:5.143;}
	.st16{opacity:0.2381;clip-path:url(#SVGID_27_);}
	.st17{clip-path:url(#SVGID_33_);fill:none;stroke:#6E6F71;stroke-width:1.1532;stroke-linecap:square;stroke-miterlimit:5.429;}
	.st18{opacity:0.2857;clip-path:url(#SVGID_27_);}
	.st19{clip-path:url(#SVGID_34_);fill:none;stroke:#6E6F71;stroke-width:1.1532;stroke-linecap:square;stroke-miterlimit:5.714;}
	.st20{opacity:0.3333;clip-path:url(#SVGID_27_);}
	.st21{clip-path:url(#SVGID_35_);fill:none;stroke:#6E6F71;stroke-width:1.1424;stroke-linecap:square;stroke-miterlimit:6;}
	.st22{opacity:0.381;clip-path:url(#SVGID_27_);}
	.st23{clip-path:url(#SVGID_36_);fill:none;stroke:#6E6F71;stroke-width:1.1424;stroke-linecap:square;stroke-miterlimit:6.286;}
	.st24{opacity:0.4286;clip-path:url(#SVGID_27_);}
	.st25{clip-path:url(#SVGID_37_);fill:none;stroke:#6E6F71;stroke-width:1.1322;stroke-linecap:square;stroke-miterlimit:6.571;}
	.st26{opacity:0.4762;clip-path:url(#SVGID_27_);}
	.st27{clip-path:url(#SVGID_38_);fill:none;stroke:#6E6F71;stroke-width:1.1322;stroke-linecap:square;stroke-miterlimit:6.857;}
	.st28{opacity:0.5238;clip-path:url(#SVGID_27_);}
	.st29{clip-path:url(#SVGID_39_);fill:none;stroke:#6E6F71;stroke-width:1.1244;stroke-linecap:square;stroke-miterlimit:7.143;}
	.st30{opacity:0.5714;clip-path:url(#SVGID_27_);}
	.st31{clip-path:url(#SVGID_40_);fill:none;stroke:#6E6F71;stroke-width:1.1244;stroke-linecap:square;stroke-miterlimit:7.429;}
	.st32{opacity:0.619;clip-path:url(#SVGID_27_);}
	.st33{clip-path:url(#SVGID_41_);fill:none;stroke:#6E6F71;stroke-width:1.1136;stroke-linecap:square;stroke-miterlimit:7.714;}
	.st34{opacity:0.6667;clip-path:url(#SVGID_27_);}
	.st35{clip-path:url(#SVGID_42_);fill:none;stroke:#6E6F71;stroke-width:1.1136;stroke-linecap:square;stroke-miterlimit:8;}
	.st36{opacity:0.7143;clip-path:url(#SVGID_27_);}
	.st37{clip-path:url(#SVGID_43_);fill:none;stroke:#6E6F71;stroke-width:1.1058;stroke-linecap:square;stroke-miterlimit:8.286;}
	.st38{opacity:0.7619;clip-path:url(#SVGID_27_);}
	.st39{clip-path:url(#SVGID_44_);fill:none;stroke:#6E6F71;stroke-width:1.1058;stroke-linecap:square;stroke-miterlimit:8.571;}
	.st40{opacity:0.8095;clip-path:url(#SVGID_27_);}
	.st41{clip-path:url(#SVGID_45_);fill:none;stroke:#6E6F71;stroke-width:1.1058;stroke-linecap:square;stroke-miterlimit:8.857;}
	.st42{opacity:0.8571;clip-path:url(#SVGID_27_);}
	.st43{clip-path:url(#SVGID_46_);fill:none;stroke:#6E6F71;stroke-width:1.0955;stroke-linecap:square;stroke-miterlimit:9.143;}
	.st44{opacity:0.9048;clip-path:url(#SVGID_27_);}
	.st45{clip-path:url(#SVGID_47_);fill:none;stroke:#6E6F71;stroke-width:1.0955;stroke-linecap:square;stroke-miterlimit:9.429;}
	.st46{opacity:0.9524;clip-path:url(#SVGID_27_);}
	.st47{clip-path:url(#SVGID_48_);fill:none;stroke:#6E6F71;stroke-width:1.0877;stroke-linecap:square;stroke-miterlimit:9.714;}
	.st48{clip-path:url(#SVGID_27_);}
	.st49{clip-path:url(#SVGID_49_);fill:none;stroke:#6E6F71;stroke-width:1.0877;stroke-linecap:square;stroke-miterlimit:10;}
	.st50{fill:none;stroke:#231F20;stroke-width:1.0006;stroke-miterlimit:10;}
	.st51{fill:none;stroke:#231F20;stroke-width:0.5096;stroke-miterlimit:10;}
	.st52{fill:none;stroke:#231F20;stroke-width:0.9537;stroke-miterlimit:10;}
</style>
<g>
	<g>
		<path class="st0" d="M2712.23,1931.64h-6.79h-1.53l0,0.01h-25.11l0-0.01l-79.98,0v18.3h-11.77v0.02h13.13v114.83
			c23.39,0,40.21-0.99,50.48-2.98c15.24-2.98,28.75-9.09,40.52-18.32c13.58-10.65,20.37-22.72,20.37-36.22
			c0-10.37-2.72-18.89-8.15-25.56c-6.04-7.38-14.41-11.08-25.13-11.08c-5.74,0-12.26,1.1-19.58,3.3c-7.32,2.2-13.17,4.87-17.54,7.99
			l6.01,25.3c11.47-5.82,18.71-8.73,21.73-8.73c11.01,0,16.46-1.34,16.46,9.73c0,10.37-6.26,16.12-20.89,23.5
			c-13.28,6.68-25.96,9.8-38.03,9.37l-2.55-0.21l2.04-90.95h97.85v-0.05h-11.55V1931.64z"/>
		<rect x="2587.05" y="1931.64" class="st0" width="11.77" height="18.27"/>
		<path class="st0" d="M2755.24,2052.85c11.92,5.54,21.05,11.36,27.39,17.47l14.03-13.63c-9.36-9.51-19.92-16.62-31.69-21.3
			L2755.24,2052.85z"/>
		<path class="st0" d="M2842.39,1931.64h-118.61v18.24h95.75c-39.99,13.83-72.29,29.16-96.88,44.12l6.11,25.6
			c14.94,0.43,32.44,5.74,52.52,15.93c20.07,10.19,30.28,21.13,37.83,32.82l25.44-3.36v-115.09h-2.15V1931.64z M2820.21,2032.83
			c-18.11-14.2-37.88-25-59.31-32.38c18.56-9.94,38.33-18.46,59.31-25.56V2032.83z"/>
		<rect x="2712.23" y="1931.64" class="st0" width="11.55" height="18.24"/>
		<path class="st0" d="M2856.65,1931.64v18.24h-14.03v0.03h17.65c22.48,11.65,33.73,27.32,33.73,45.22c0,5.26-2.26,8.11-6.79,15.78
			c-4.98,8.52-9.96,12.78-14.94,12.78c-4.83,0-11.28-3.62-19.88-10.87v29.37c9.38,5.68,17.06,8.52,22.51,8.52
			c10.74,0,19.74-4.9,27-14.7c4.24-8.24,8.55-16.47,12.94-24.71c7.11-11.79,12.62-19.26,17.62-19.26c3.18,0,5.83,0.36,7.94,2.99
			c2.11,2.64,3.18,5.52,3.18,8.65v59.83h24.57v-113.6h10.97v-18.27H2856.65z M2943.57,1975.95c-3.64-3.69-8.11-5.54-13.42-5.54
			c-5.76,0-11.53,2.49-17.28,7.46c-2.88-10.36-8.57-20.29-17.06-27.96h47.76V1975.95z"/>
		<polygon class="st0" points="2856.65,1949.88 2856.65,1931.64 2842.39,1931.64 2842.39,1949.91 2842.62,1949.91 2842.62,1949.88 
					"/>
		<path class="st0" d="M2703.92,1931.64c-0.45-3.34-0.86-7.28-1.31-10.49c-0.59-4.32-0.96-8.69-1.87-12.94
			c-1.17-5.44-4.33-9.79-8.55-13.33c-5.22-4.38-11.41-6.6-17.99-7.84c-7.95-1.5-16-1.58-24.03-1.17
			c-5.69,0.29-11.15,2.05-16.57,3.72c-7.2,2.22-14.34,4.65-21.55,6.81c-6.52,1.94-13.21,3.02-20.04,2.84
			c-5.98-0.16-11.79-1.13-16.99-4.4c-0.05-0.03-0.15,0-0.4,0c0,2.63-0.01,5.27,0,7.91c0.01,3.31,0.08,11.42,0.04,14.72
			c-0.01,0.86,0.3,1.2,1.04,1.5c4.94,1.98,10.07,2.71,15.37,2.53c8.12-0.28,15.83-2.5,23.44-5.09c4.52-1.54,9.04-3.13,13.46-4.96
			c5.1-2.11,10.37-3.46,15.82-4.17c5.29-0.69,10.58-0.8,15.88,0.16c10.06,1.81,17.32,9.29,18.58,19.48c0.36,2.89,0.38,1.58,0.56,4.7
			h4.22H2703.92z"/>
		<path class="st0" d="M2419.68,1949.93v-18.05h-350.07c0,0-0.39-16.24,11.09-23.03c11.48-6.78,28.84,0.26,34.97,2.35
			c6.13,2.09,28.31,9.13,44.23,10.57c15.92,1.44,15.18-9,15.18-9v-19.09c-5.92,5.39-26.97,6.26-36.71,4.7
			c-9.74-1.57-19.66-5.22-42.8-11.13c-23.14-5.92-42.45,6.61-47.84,11.13c-10.96,11.83-9.96,33.29-9.96,33.29h-252.39v18.09h154.14
			v60.14c-7.31-9.57-18.09-8.87-18.09-8.87c-4-25.23-25.75-35.14-25.75-35.14c-42.28-18.44-57.93,11.31-60.37,19.66
			c-2.44,8.35,0,18.09,0,18.09h28.53l0.96,0.09l0.09-14.27c28.27-10.87,23.75,24.83,23.75,24.83c-1.1,3.67-2.73,7.21-5.07,10.26
			c-4.85,6.34-12.24,9.52-20.03,10.31c-9.87,1.01-21.75,0.06-29.54-6.67c-9.55-8.26-13.16-21.74-14.75-33.79
			c-0.17-1.25-1.71-21.56-0.8-21.56c-0.01,0-30.79,0-30.79,0c-1.52,22.1,3.99,44.63,17.3,62.55c3.63,4.89,7.77,9.42,12.39,13.38
			c4.87,4.16,9.83,6.56,15.95,8.72c16.39,5.79,34.5,7.5,50.95,1c11.16-4.41,20.71-12.19,28.04-21.62c2.41-3.09,4.59-6.37,6.49-9.79
			c0.25-0.45,1.57-3.94,2.04-4.05c10.09-2.35,20.01,7.31,20.01,7.31v36.01h30.53v-116.65h16.7v116.39h30.79v-116.22h19.31v116.74
			h29.05v-117.04h85.77v4.18l-73.76,39.62l12.87,29.23c53.58-5.22,58.8,43.33,58.8,43.33h31.05v-89.6
			c7.7-0.65,14.87,5.48,17.35,8.22c8.87,15.66-6.52,29.49-6.52,29.49l27.66,12.53c23.49-25.84,7.18-47.75,3.26-53.63
			c-12.26-15.01-43.06-19.83-43.06-19.83v-3.25h133.09v0.37c0,0-10.83,6.65-20.88,29.36c-10.05,22.7,3.26,36.17,8.48,40.47
			c10.7,7.05,31.84,1.04,31.84,1.04c-10.96,26.88-40.19,14.61-42.27,13.96c-24.4-14.61-15.53-72.7-15.53-72.7h-29.1
			c0.06,0,0,9.81,0,10.39c-0.04,11.08,0.03,24.83,2.37,35.74c2.14,9.97,5.32,19.76,10.81,28.27c4.6,7.13,9.85,14.74,17.35,19.57
			c35.94,23.13,69.28-3.91,69.28-3.91c27.14-21.92,21.75-54.71,21.75-54.71l-28.53-4c-8.61,11.61-15.53,7.05-15.53,7.05
			c-6.52-5.09-1.04-19.34-1.04-19.34l14.48-20.57c11.83,28.01,48.89,22.27,48.89,22.27l0.52,1.91
			c-30.96,47.19,7.12,77.09,9.98,80.58l26.44-14.61c0,0-7.55-8.73-17.12-19.86c-18.09-22.96,11.92-49.32,11.92-49.32l-17.09-18.4
			c-47.36,8.61-38.84-13.46-38.84-13.46H2419.68z M2151.59,2019.28c0,0-11.4-13.48-26.79-14.53l26.79-20.27V2019.28z"/>
		<path class="st0" d="M2496.75,2032.99c-3.07-0.84-6.18-1.82-8.75-3.69c-2.86-2.08-5.14-5.56-4.33-9.19
			c0.83-3.74,3.76-6.69,6.98-8.58c4.24-2.56,8.78-3.83,13.62-3.83c9.99,0,21.64,4.76,34.96,14.27
			c14.08,10.09,21.12,19.6,21.12,28.55v14.27h26.01v-114.87h0.7v-18.27h-141.93l-0.02,18.25c0,0,14.08-0.17,28.54,5.59
			c1.36,0.65,2.73,1.25,4.06,1.95c2.48,1.3,4.91,2.7,7.26,4.24c1.83,1.2,3.59,2.51,5.27,3.91c5.61,5.1,10.22,11.85,12.62,20.82
			c-12.08-0.28-22.26,2.84-30.56,9.37c-8.75,6.82-13.13,15.84-13.13,27.06c0,9.37,3.53,18.27,11.08,24.88
			c7.54,6.6,16.57,9.91,26.53,9.91C2496.77,2049.4,2496.91,2041.19,2496.75,2032.99z M2560.34,2013.44
			c-11.52-11.79-20.94-19.6-31.08-23.43c-0.76-15.2-7.98-29.16-25.1-40.1h56.18V2013.44z"/>
	</g>
	<g>
		<path class="st1" d="M1951.65,2277.08c-29.97-20.1-44.96-46.61-44.96-79.53c0-31.74,15.28-57.02,45.85-75.82l3.17,5.82
			c-20.34,14.11-30.51,36.91-30.51,68.42c0,17.64,1.82,31.56,5.47,41.79c4.59,12.81,12.99,24.04,25.22,33.68L1951.65,2277.08z"/>
		<path class="st1" d="M2036.99,2155.58v93.28l-12.17-14.07v-40.97c-0.48-1.87-1.86-3.78-4.16-5.71c-2.3-1.94-4.45-2.9-6.46-2.9
			c-2.83,0-5.42,1.76-7.78,5.29c-9.78,14.69-16.21,22.33-19.27,22.92c-0.83,0.12-2.01,0.18-3.54,0.18c-3.78,0-6.42-0.59-7.96-1.76
			c-3.19-0.82-8.02-7.35-14.5-19.57l9.34-9.17c0.35,3.41,1.06,6.23,2.12,8.47c1.88,3.65,3.52,5.47,4.94,5.47
			c1.41,0,6.17-5.47,14.28-16.4c-1.06-11.17-5.82-16.93-14.28-17.28c-5.53-0.23-9.06-0.59-10.58-1.06
			c-2.82-0.94-5.46-3.23-7.93-6.88l-2.29-1.24l-11.28-10.93h103.15l12.34,12.34H2036.99z M2024.83,2155.58h-33.16
			c5.41,4.47,8.11,10.29,8.11,17.46v0.18c5.17-3.53,8.41-5.29,9.7-5.29c3.88,0,8.99,4,15.34,11.99V2155.58z"/>
		<path class="st1" d="M2115.28,2155.58v95.05l-7.94-11.46c-8.59-21.39-23.45-32.91-44.61-34.56l-12.88-18.16
			c9.53-6.94,17.28-11.93,23.28-14.99c11.17-5.64,21.16-9.93,29.98-12.87v-3h-55.9l-12.17-12.34h92.22l12.17,12.34H2115.28z
			 M2103.12,2176.39c-8.94,3.41-18.46,8.35-28.57,14.81c12,5.76,21.52,13.52,28.57,23.28V2176.39z"/>
		<path class="st1" d="M2139.61,2152.59c-0.71-8.23-1.06-17.28-1.06-27.16l6.81,5.64c0.58,3.76,1.39,6.94,2.44,9.52
			c0.46,0.7,1.11,1.59,1.92,2.64h13.1l12.23,12.34h-24.51v95.4l-11.99-13.02v-66.71c0-3.52-0.71-6.28-2.11-8.27
			c-3.41-4.93-7.65-7.39-12.7-7.39c-0.59,0-1.53,0-2.82,0l-12.35-11.99c7.88-0.82,13.88-0.94,17.99-0.35
			C2132.21,2144.06,2136.56,2147.18,2139.61,2152.59z"/>
		<path class="st1" d="M2227.08,2155.58v91.69l-6.53-6.17c-5.75-10.46-8.93-16.16-9.52-17.1c-3.64-5.52-8.35-9.99-14.1-13.4
			c-6.82-4.11-14.23-6.41-22.22-6.88l-13.05-17.81c18.28-13.05,35.91-22.22,52.9-27.51v-2.82h-52.76l-12.48-12.34h88.34l12.52,12.34
			H2227.08z M2191.81,2237.76c-3.17,0-5.85-1.15-8.02-3.44c-2.17-2.29-3.26-4.91-3.26-7.85c0-2.82,1-5.26,3-7.32
			c2-2.06,4.41-3.09,7.23-3.09c2.47,0,4.76,0.82,6.87,2.47c2.12,1.65,3.47,3.7,4.06,6.17c0.71,3.17,0.05,6.14-1.94,8.91
			C2197.75,2236.38,2195.1,2237.76,2191.81,2237.76z M2214.56,2175.16c-10.17,3.65-19.75,8.7-28.74,15.16
			c12.61,5.76,22.19,13.87,28.74,24.33V2175.16z"/>
		<path class="st1" d="M2343.1,2179.39c1.64,0.82,3.53,2.53,5.64,5.11c5.41,6.7,8.11,13.34,8.11,19.93c0,2.24-0.3,4.47-0.88,6.7
			c-1.76,5.76-4.88,10.4-9.34,13.93c-4.47,3.53-9.64,5.29-15.52,5.29c-10.7,0-20.05-5.17-28.04-15.52
			c-3.41-4.35-6.52-10.76-9.34-19.22c-2.36-6.7-3.53-19.16-3.53-37.38c4.7,2.35,7.52,4,8.46,4.94c-0.35,6.58,0.11,12.17,1.42,16.75
			c1.64,6.47,2.93,10.76,3.88,12.88c2.23,4.93,5.53,9.34,9.88,13.22c5.17,4.47,10.16,6.53,14.99,6.17
			c4.23-0.35,7.99-1.17,11.28-2.47c4.71-2,7.06-4.64,7.06-7.93c0-1.17-0.27-2.38-0.79-3.62c-0.53-1.23-1.27-1.85-2.2-1.85
			c-0.36,0-0.83,0.12-1.41,0.35c-5.88,2.59-10.75,3.88-14.64,3.88c-3.29,0-6.52-0.76-9.7-2.29c-6.47-4.35-10.41-9.87-11.81-16.58
			c-0.36-2-0.53-3.88-0.53-5.64c0-5.29,2.76-11.4,8.29-18.34c0.47-0.47,1.12-1.18,1.94-2.12h-31.56l-12.34-12.34h118.32l12.16,12.34
			h-58.72c-1.18,0.47-2.77,1.35-4.76,2.65c-0.47,0.47-0.71,0.88-0.71,1.24c0,1.88,2.52,3.58,7.58,5.11
			c4.7,1.53,8.46,2.18,11.28,1.94c2.71-0.23,8.23-1.7,16.58-4.41c4.23,4.23,9.28,9.41,15.16,15.51c-3.64,3.53-6.87,8.06-9.69,13.58
			c-3.06,5.88-4.65,11.11-4.77,15.69c-0.59,3.88-0.88,7.35-0.88,10.4c0,6.47,2.35,14.99,7.06,25.57c-1.06,1.06-1.94,1.58-2.65,1.58
			c-1.29,0-3.12-0.41-5.47-1.23c-2.71-0.82-4.23-1.65-4.58-2.47c-1.41-6-2.82-11.99-4.23-17.99c-1.76-7.41-2.65-13.46-2.65-18.16
			c0-7.29,1.58-15.34,4.76-24.15c-5.88-0.24-11.75-1.23-17.63-3c-7.41-2.12-12.41-4.82-14.99-8.11c-0.35-0.59-1.94-2.64-4.76-6.17
			c-1.88,0.35-4.32,3-7.31,7.93c-3,4.94-4.5,8.53-4.5,10.76c0,2.82,1.59,4.23,4.76,4.23c1.89,0,6.53-1.88,13.94-5.64
			c2.46-1.17,4.11-1.88,4.93-2.12c1.06,0,1.94,0.35,2.65,1.06H2343.1z"/>
		<path class="st1" d="M2420.86,2186.09c2.11,3.06,3.47,5.76,4.05,8.11c0.24,1.41,0.35,2.76,0.35,4.05c0,3.76-1.23,6.79-3.7,9.08
			c-2.46,2.29-5.82,3.44-10.05,3.44c-12.34,0-18.51-6.17-18.51-18.52c0-6.23,2.26-11.4,6.77-15.52c4.51-4.11,9.93-6.17,16.25-6.17
			c11.37,0,21.03,7.05,29,21.16l1.06,1.94v-38.09h-58.92l-12.32-12.34h95.93l12.87,12.34h-25.04v95.57l-6.71-9.17c0-0.82,0-1.82,0-3
			c0-4.46-1.12-10.4-3.35-17.81c-1.76-6.7-3.73-12.25-5.91-16.66c-2.17-4.41-5.09-8.31-8.73-11.72
			C2429.56,2188.67,2425.21,2186.44,2420.86,2186.09z"/>
		<path class="st1" d="M2508.67,2154.88c-3.41,0-6.46,0.94-9.17,2.82c-2.71,1.88-4.35,4.47-4.93,7.76
			c-0.94,5.53-0.36,14.22,1.76,26.1c2.46,13.75,3.7,22.28,3.7,25.57c0,10.46-5.29,18.93-15.88,25.39
			c-4.94,3.17-8.81,4.76-11.63,4.76c-2.94,0-4.88-1.47-5.82-4.41c-0.23-0.47-0.35-0.94-0.35-1.41c0-1.53,1.29-2.7,3.88-3.53
			c3.41-1.06,5.23-1.65,5.47-1.76c3.76-2.93,5.94-4.88,6.52-5.82c1.41-2.12,2.35-5.76,2.82-10.93c0.24-2.23-0.76-7.58-3-16.05
			c-2.35-9.05-3.53-15.81-3.53-20.28c0-6.23,1.7-12.46,5.12-18.69c2.11-2.94,4.24-5.88,6.35-8.82h-22.04l-12.52-12.34h57.49
			l13.05,12.34C2521.37,2155.11,2515.61,2154.88,2508.67,2154.88z"/>
		<path class="st1" d="M2621.88,2164.75l-0.88-11.81c-0.47-6.35-0.71-15.99-0.71-28.92l9.17,8.99c-1.18,2.35-0.94,5.35,0.71,8.99
			c0.24,0.47,1.11,0.88,2.65,1.23c3.88-0.11,7.93-0.11,12.16,0l12.34,12.34h-25.39v94.69l-13.58-14.28l0.71-48.32
			c0-4-1.41-8.67-4.23-14.02c-2.82-5.35-5.94-9.26-9.34-11.73c-3.41-2.47-6.77-3.7-10.05-3.7c-7.53,0-13.05,2.88-16.57,8.64
			c1.76-0.35,3.76-0.53,5.99-0.53c11.41,0,17.81,5.23,19.22,15.69c0.94,7.41-5.06,18.05-17.98,31.92l-12.7-14.28
			c2.7-2.47,6.29-6,10.75-10.58c5.53-5.87,8.29-9.46,8.29-10.75c0-1.41-1-2.12-3-2.12c-0.82,0-3.47,1.24-7.93,3.7
			c-4.47,2.47-7.59,3.71-9.35,3.71c-1.41,0-2.7-0.41-3.88-1.24c-5.17-3.17-7.76-7.52-7.76-13.05c0-3.88,1.26-7.93,3.79-12.17
			c2.53-4.23,5.5-7.34,8.91-9.35c4.11-2.35,8.99-3.52,14.64-3.52C2605.72,2144.3,2617.05,2151.11,2621.88,2164.75z"/>
		<path class="st1" d="M2657.32,2152.59c-0.71-8.23-1.06-17.28-1.06-27.16l6.81,5.64c0.58,3.76,1.39,6.94,2.44,9.52
			c0.46,0.7,1.11,1.59,1.92,2.64h13.1l12.23,12.34h-24.51v95.4l-11.99-13.02v-66.71c0-3.52-0.71-6.28-2.11-8.27
			c-3.41-4.93-7.65-7.39-12.7-7.39c-0.59,0-1.53,0-2.82,0l-12.35-11.99c7.88-0.82,13.88-0.94,17.99-0.35
			C2649.91,2144.06,2654.26,2147.18,2657.32,2152.59z"/>
		<path class="st1" d="M2755.54,2125.61c-8.7-6.58-18.63-9.88-29.8-9.88c-6.11,0-12.82,2.41-20.1,7.23c-1.65,1.65-3.59,4-5.82,7.05
			c-2.58,3.53-3.82,5.82-3.7,6.88l3,6.34h15.87l12.35,12.34h-24.69v91.69l-12.52-11.99v-79.7h-11.91l-12.25-12.34h22.92
			c-1.54-1.52-3.03-3.14-4.5-4.85c-1.47-1.7-2.21-3.62-2.21-5.73c0.11-3.52,0.77-6.29,1.94-8.29c3.29-5.29,6.29-9.2,8.99-11.72
			c2.71-2.53,6.82-5.09,12.35-7.67c3.41-1.65,7.46-2.47,12.16-2.47c11.64,0,24.04,4.06,37.21,12.17c4.11,2.59,9.58,7.35,16.39,14.28
			l3.88,11.46L2755.54,2125.61z"/>
		<path class="st1" d="M2759.06,2155.58v21.51c0-1.41,0,1.06,0,7.4c-0.11,1.76,0.06,2.71,0.52,2.82c4.33-1.06,9.25-4.82,14.76-11.29
			c5.15-6.11,8.13-9.17,8.95-9.17c1.06,0,1.99,0.47,2.81,1.41c9.71,8.35,14.58,18.87,14.58,31.56c0,14.23-4.83,24.75-14.46,31.56
			c-5.64,3.99-12.35,5.99-20.1,5.99c-11.05,0-19.87-3.63-26.45-10.91c-5.88-6.46-10.82-15.02-14.81-25.69
			c-3.65-9.5-6.06-19.06-7.23-28.68c0-0.35-0.53-5.87-1.59-16.54l9.17,4.92c0.71,9.38,2.76,18.46,6.16,27.26
			c7.73,19.57,18.63,29.36,32.71,29.36c4.22,0,8.47-1.09,12.74-3.26c4.28-2.17,7.41-5.02,9.41-8.55c2.23-4,3.34-7.29,3.34-9.88
			c0-2.47-0.76-4.93-2.28-7.41c-2.11,2.71-6.55,6.58-13.34,11.64c-3.75,2.82-7.5,4.23-11.24,4.23c-7.6,0-12.7-4.82-15.27-14.46
			c-0.35-1.52-0.52-4.47-0.52-8.82v-25.04h-34.03l-12.52-12.34h106.33l12.52,12.34H2759.06z M2775.11,2258.39
			c-2.23,4.58-5.65,6.88-10.23,6.88c-3.64,0-6.58-1.09-8.81-3.26c-2.24-2.18-3.35-5.09-3.35-8.73c0-3.3,1.15-6.23,3.44-8.82
			c2.3-2.58,5.09-3.88,8.38-3.88c3.76,0,6.7,1.12,8.82,3.35c2.11,2.23,3.17,5,3.17,8.29
			C2776.52,2254.33,2776.05,2256.39,2775.11,2258.39z"/>
		<path class="st1" d="M2845.64,2245.16c-7.88,12.58-19.11,23.22-33.68,31.92l-3.17-5.82c20.34-14.11,30.5-36.86,30.5-68.24
			c0-17.64-1.76-31.62-5.28-41.97c-4.58-13.75-13.05-24.98-25.39-33.68l4.05-5.47c10.82,5.17,20.34,14.05,28.56,26.62
			c11.05,16.69,16.58,34.68,16.58,53.96C2857.81,2217.77,2853.75,2232,2845.64,2245.16z"/>
	</g>
	<g>
		<polygon class="st0" points="1336.11,1693.68 1491.63,1950.92 1647.08,2208.01 1336.11,2208.01 1025.09,2208.01 1180.55,1950.92 
					"/>
		<polygon class="st2" points="1335.55,1726.85 1059.01,2187.27 1612.1,2187.27 		"/>
		<path class="st0" d="M1171.76,2114.18c0,0,32.98-19.22,71.81-16.11c4.27-90.27,89.62-95.76,89.62-95.76s41.29-5.15,76.78,30.24
			c35.36,35.32,22.45,86.84,22.45,86.84h137.51l-139.65-232.05l-43.38,74.52C1386.91,1961.85,1229.83,1940.62,1171.76,2114.18"/>
		<path class="st3" d="M1171.76,2114.18c0,0,32.98-19.22,71.81-16.11c4.27-90.27,89.62-95.76,89.62-95.76s41.29-5.15,76.78,30.24
			c35.36,35.32,22.45,86.84,22.45,86.84h137.51l-139.65-232.05l-43.38,74.52C1386.91,1961.85,1229.83,1940.62,1171.76,2114.18z"/>
		<line class="st4" x1="1405.55" y1="2140.33" x2="1445.25" y2="2175.72"/>
		<line class="st4" x1="1385.46" y1="2140.33" x2="1425.16" y2="2175.72"/>
		<line class="st4" x1="1365.39" y1="2140.33" x2="1405.02" y2="2175.72"/>
		<line class="st4" x1="1345.35" y1="2140.33" x2="1384.98" y2="2175.72"/>
		<line class="st4" x1="1325.2" y1="2140.33" x2="1364.89" y2="2175.72"/>
		<line class="st4" x1="1305.14" y1="2140.33" x2="1344.77" y2="2175.72"/>
		<line class="st4" x1="1284.98" y1="2140.33" x2="1324.74" y2="2175.72"/>
		<line class="st4" x1="1264.9" y1="2140.33" x2="1304.58" y2="2175.72"/>
		<line class="st4" x1="1244.81" y1="2140.33" x2="1284.48" y2="2175.72"/>
		<line class="st4" x1="1224.65" y1="2140.33" x2="1264.39" y2="2175.72"/>
		<line class="st4" x1="1204.46" y1="2140.33" x2="1244.23" y2="2175.72"/>
		<line class="st4" x1="1184.36" y1="2140.33" x2="1224.04" y2="2175.72"/>
		<line class="st4" x1="1164.24" y1="2140.33" x2="1203.92" y2="2175.72"/>
		<line class="st4" x1="1144.16" y1="2140.33" x2="1183.84" y2="2175.72"/>
		<line class="st4" x1="1124.05" y1="2140.33" x2="1163.76" y2="2175.72"/>
		<line class="st4" x1="1104.03" y1="2140.33" x2="1143.69" y2="2175.72"/>
		<g>
			<defs>
				<path id="SVGID_24_" d="M1271.11,2066.33c-15.09,38.32,4.31,81.87,43.31,96.77c38.94,14.88,82.86-4.34,97.86-42.81
					c15.12-38.54-4.3-82.01-43.26-96.86c-8.91-3.47-18.13-5.06-27.18-4.97C1311.45,2018.45,1282.68,2036.52,1271.11,2066.33"/>
			</defs>
			<clipPath id="SVGID_25_">
				<use xlink:href="#SVGID_24_"  style="overflow:visible;"/>
			</clipPath>
			
				<radialGradient id="SVGID_26_" cx="4844.6616" cy="3816.5808" r="34.0738" gradientTransform="matrix(0.802 -2.0499 -2.0725 -0.7931 5366.0596 15051.1064)" gradientUnits="userSpaceOnUse">
				<stop  offset="0" style="stop-color:#FFFFFF"/>
				<stop  offset="0.3879" style="stop-color:#FFFFFF"/>
				<stop  offset="0.7841" style="stop-color:#585252"/>
				<stop  offset="1" style="stop-color:#231F20"/>
			</radialGradient>
			<polygon class="st5" points="1201.66,2157.17 1278.34,1961.26 1481.71,2039.09 1405.08,2235.07 			"/>
		</g>
		<path class="st0" d="M1356.98,2053.16c23.16,8.84,34.57,34.62,25.64,57.35c-8.96,23-34.94,34.26-58.02,25.41
			c-23.05-8.83-34.58-34.52-25.62-57.35C1307.88,2055.7,1333.87,2044.4,1356.98,2053.16"/>
		<g>
			<g>
				<defs>
					<rect id="SVGID_1_" x="1294.29" y="2048.14" width="96.26" height="91.62"/>
				</defs>
				<clipPath id="SVGID_27_">
					<use xlink:href="#SVGID_1_"  style="overflow:visible;"/>
				</clipPath>
				<g class="st6">
					<g>
						<defs>
							<rect id="SVGID_23_" x="1294.29" y="2048.14" width="96.26" height="91.62"/>
						</defs>
						<clipPath id="SVGID_28_">
							<use xlink:href="#SVGID_23_"  style="overflow:visible;"/>
						</clipPath>
						<path class="st7" d="M1332.78,2094.24c-8.37,1.79-15.85-5.92-17.59-14.54c-1.63-11.21,1.68-22.5,10.81-31.19
							c-15.76,12.72-19.36,40.54-0.08,52.47c3.94,1.9,8.05,2.38,12.22,1.45c-1.18,4.67-5,7.71-9.17,8.58
							c-6.9,0.63-12.46,1.38-18.84-3.58c-6.95-5.6-12.38-12.36-15.42-22.44c1.58,11.23,8.38,18.29,16.46,25.32
							c12.13,9.07,30.92,6.35,36.62-8.23c2.21,4.44,3.9,8.05,2.76,12.82c-5.81,15.9-24.03,19.35-38.8,16.2
							c16.54,5.44,38.4,0.3,43.85-19.06c2.07-6.69,0.77-13.09-3.57-18.42c6.39-1.29,12.69,3.51,15.51,8.8
							c4.9,12.18,2.01,27.04-8.67,36.91c11.99-9.71,16.57-27.11,9.29-42.4c-4.71-7.53-12.33-12.61-21.38-11.52
							c1.22-4.7,4.94-7.74,9.16-8.66c16.04-2.95,29.81,9.71,34.22,26.11c-4.12-12.95-11.8-24.18-24.29-29.06
							c-11.37-3.29-24.11,0.66-28.72,11.95c-4.97-4.77-4.28-11.59-0.2-17.31c8.05-11.61,22.8-14.72,36.2-11.79
							c-17.2-6.15-38.51,1.13-44.58,19.73C1327.15,2082.54,1328.56,2088.89,1332.78,2094.24z"/>
					</g>
				</g>
				<g class="st8">
					<g>
						<defs>
							<rect id="SVGID_22_" x="1295.1" y="2048.23" width="94.53" height="91.4"/>
						</defs>
						<clipPath id="SVGID_29_">
							<use xlink:href="#SVGID_22_"  style="overflow:visible;"/>
						</clipPath>
						<path class="st9" d="M1332.87,2093.92c-8.33,1.59-15.74-6.19-17-14.7c-1.68-11.05,2.27-22.23,11.53-30.56
							c-15.9,12.09-20.8,40.67-1.55,51.79c3.78,2.15,7.92,2.5,12.04,1.81c-1.27,4.54-5.11,7.69-9.26,8.23
							c-6.79,0.84-12.39,1.04-18.5-4.13c-6.77-5.58-11.88-12.57-14.56-22.57c1.22,11.16,7.43,18.65,15.53,25.5
							c11.32,9.71,30.3,7.13,36.28-7.03c2.12,4.35,3.96,8.07,2.43,12.66c-5.32,15.86-24.23,18.42-38.72,14.92
							c16.21,5.74,37.69,1.29,43.8-17.65c2.13-6.58,1.06-12.91-2.98-18.26c6.25-1.07,12.67,3.72,15.09,9.03
							c5.17,11.96,1.13,26.88-9.66,36.25c12.09-9.17,17.95-26.81,10.35-41.56c-4.04-7.83-11.87-12.77-20.8-11.98
							c1.32-4.56,5.09-7.51,9.25-8.24c15.85-2.7,29.15,10.37,33.04,26.66c-3.68-12.84-10.82-24.7-23.19-29.31
							c-10.97-4.09-23.74,0-28.64,10.89c-4.76-4.74-3.93-11.46,0.23-17.06c8.31-11.07,22.86-13.82,36.09-10.53
							c-16.84-6.49-38.9-0.27-44.56,18.33C1327.35,2082.21,1328.81,2088.57,1332.87,2093.92z"/>
					</g>
				</g>
				<g class="st10">
					<g>
						<defs>
							<rect id="SVGID_21_" x="1295.92" y="2048.51" width="92.8" height="91.01"/>
						</defs>
						<clipPath id="SVGID_30_">
							<use xlink:href="#SVGID_21_"  style="overflow:visible;"/>
						</clipPath>
						<path class="st11" d="M1332.96,2093.65c-8.32,1.31-15.4-6.58-16.45-15.01c-1.3-10.91,2.98-21.85,12.24-29.81
							c-15.98,11.55-21.62,39.56-2.9,51.08c3.63,2.25,7.7,2.68,11.76,2.02c-1.35,4.6-5.2,7.58-9.32,7.98
							c-6.76,0.57-12.28,0.61-18.16-4.54c-6.49-5.76-11.36-12.79-13.76-22.66c0.88,10.95,6.88,18.54,14.6,25.56
							c10.93,9.89,29.74,7.87,36.05-6.01c1.97,4.49,3.63,8.14,2.02,12.57c-5.66,15.65-24.4,17.53-38.59,13.68
							c15.79,6.1,37.13,2.31,43.7-16.11c2.27-6.47,1.45-12.62-2.42-18.15c6.19-0.97,12.41,3.97,14.63,9.26
							c4.83,12.02,0.39,26.57-10.52,35.57c12.23-8.67,18.46-25.84,11.36-40.79c-3.72-7.81-11.36-12.86-20.17-12.36
							c1.43-4.45,5.2-7.28,9.36-7.9c15.8-2.24,28.49,11.03,31.89,27.29c-3.26-12.88-10.01-24.64-22.07-29.52
							c-10.73-4.47-23.48-0.72-28.6,9.87c-4.59-4.76-3.51-11.37,0.76-16.83c8.49-10.77,22.97-12.97,35.85-9.42
							c-16.37-6.9-38.34-1.41-44.51,16.85C1327.81,2081.97,1329.04,2088.32,1332.96,2093.65z"/>
					</g>
				</g>
				<g class="st12">
					<g>
						<defs>
							<rect id="SVGID_20_" x="1296.79" y="2048.62" width="90.98" height="90.76"/>
						</defs>
						<clipPath id="SVGID_31_">
							<use xlink:href="#SVGID_20_"  style="overflow:visible;"/>
						</clipPath>
						<path class="st13" d="M1332.99,2093.47c-8.22,1.09-15-6.99-15.75-15.33c-0.97-10.86,3.51-21.55,12.92-29.1
							c-16.09,10.86-22.46,38.52-4.35,50.4c3.53,2.29,7.51,2.88,11.56,2.38c-1.46,4.36-5.31,7.26-9.47,7.46
							c-6.63,0.45-12.12,0.41-17.78-4.93c-6.23-5.92-10.89-13.05-12.92-22.86c0.55,10.93,6.27,18.58,13.71,25.75
							c10.52,10.1,29.11,8.6,35.78-4.92c1.79,4.42,3.34,8.15,1.67,12.5c-6.09,15.2-24.67,16.6-38.64,12.36
							c15.51,6.55,36.62,3.35,43.7-14.65c2.44-6.35,1.74-12.5-1.9-17.97c6.15-0.79,12.19,4.27,14.2,9.57
							c4.44,11.98-0.37,26.27-11.36,34.84c12.28-8.24,18.99-25.09,12.38-39.93c-3.46-7.8-10.87-13.11-19.57-12.77
							c1.53-4.51,5.29-7.12,9.44-7.62c15.65-1.77,27.82,11.82,30.72,27.88c-2.84-12.75-9.17-24.7-20.91-29.85
							c-10.48-4.56-23.18-1.38-28.56,8.98c-4.41-4.92-3.15-11.34,1.22-16.56c8.71-10.43,23.06-12.25,35.69-8.26
							c-15.96-7.3-37.85-2.56-44.43,15.31C1328.29,2081.72,1329.35,2088.05,1332.99,2093.47z"/>
					</g>
				</g>
				<g class="st14">
					<g>
						<defs>
							<rect id="SVGID_19_" x="1297.59" y="2048.82" width="89.26" height="90.49"/>
						</defs>
						<clipPath id="SVGID_32_">
							<use xlink:href="#SVGID_19_"  style="overflow:visible;"/>
						</clipPath>
						<path class="st15" d="M1333.06,2093.26c-8.15,0.79-14.64-7.37-15.11-15.63c-0.66-10.77,4.1-21.18,13.64-28.42
							c-16.26,10.32-23.41,37.3-5.77,49.63c3.41,2.41,7.32,3.09,11.35,2.74c-1.57,4.31-5.51,7.05-9.58,7.19
							c-6.61,0.18-12.02-0.06-17.45-5.47c-5.99-6.03-10.38-13.14-12.11-22.91c0.22,10.73,5.62,18.46,12.79,25.8
							c10.13,10.23,28.52,9.33,35.54-3.76c1.64,4.38,3.09,8.08,1.25,12.3c-6.45,14.88-24.88,15.74-38.55,11.11
							c15.16,6.92,36.11,4.42,43.68-13.25c2.61-6.14,2.05-12.29-1.37-17.72c6.11-0.63,11.93,4.58,13.74,9.93
							c4.05,11.87-1.13,25.84-12.25,34.08c12.37-7.83,19.54-24.27,13.43-39.11c-3.22-7.91-10.36-13.29-19.01-13.29
							c1.62-4.27,5.49-6.83,9.59-7.15c15.52-1.38,27.19,12.44,29.55,28.45c-2.47-12.7-8.3-24.64-19.84-30.15
							c-10.21-4.92-22.9-2.02-28.51,8.03c-4.19-4.99-2.74-11.34,1.68-16.44c8.95-9.91,23.19-11.23,35.64-7.08
							c-15.65-7.62-37.42-3.52-44.48,13.82C1328.75,2081.47,1329.64,2087.73,1333.06,2093.26z"/>
					</g>
				</g>
				<g class="st16">
					<g>
						<defs>
							<rect id="SVGID_18_" x="1298.44" y="2048.93" width="87.47" height="90.24"/>
						</defs>
						<clipPath id="SVGID_33_">
							<use xlink:href="#SVGID_18_"  style="overflow:visible;"/>
						</clipPath>
						<path class="st17" d="M1333.13,2092.97c-8.1,0.59-14.27-7.71-14.52-15.85c-0.31-10.71,4.71-20.92,14.36-27.7
							c-16.37,9.69-24.24,36.14-7.22,48.86c3.3,2.65,7.22,3.36,11.22,3.06c-1.72,4.26-5.69,6.85-9.78,6.85
							c-6.49,0-11.79-0.41-17.05-5.94c-5.72-6.1-9.83-13.32-11.28-23.07c-0.12,10.62,4.97,18.49,11.86,25.86
							c9.7,10.62,28.01,10.3,35.25-2.61c1.53,4.43,2.83,8.14,0.9,12.3c-6.88,14.5-25.06,14.77-38.47,9.84
							c14.75,7.33,35.63,5.42,43.61-11.79c2.77-5.99,2.4-12.11-0.81-17.69c6.06-0.3,11.7,4.97,13.29,10.34
							c3.67,11.91-1.91,25.57-13.22,33.3c12.58-7.35,20.09-23.39,14.52-38.29c-2.89-7.87-9.84-13.43-18.39-13.7
							c1.74-4.2,5.63-6.65,9.73-6.76c15.34-0.84,26.49,13.05,28.35,29.04c-2.06-12.66-7.52-24.7-18.71-30.51
							c-9.93-5.08-22.57-2.7-28.42,7.14c-4.01-5.01-2.39-11.32,2.17-16.11c9.09-9.67,23.24-10.53,35.37-5.97
							c-15.17-8.05-36.83-4.74-44.3,12.25C1329.23,2081.19,1329.86,2087.43,1333.13,2092.97z"/>
					</g>
				</g>
				<g class="st18">
					<g>
						<defs>
							<rect id="SVGID_17_" x="1299.17" y="2049.21" width="85.81" height="89.79"/>
						</defs>
						<clipPath id="SVGID_34_">
							<use xlink:href="#SVGID_17_"  style="overflow:visible;"/>
						</clipPath>
						<path class="st19" d="M1333.19,2092.77c-8.04,0.2-13.82-8.05-13.82-16.24c0-10.59,5.23-20.49,15.06-26.93
							c-16.6,9.07-25.13,35.16-8.68,48.25c3.2,2.49,6.99,3.47,10.96,3.36c-1.81,4.09-5.8,6.46-9.75,6.44
							c-6.52-0.21-11.78-0.84-16.82-6.44c-5.54-6.28-9.37-13.49-10.49-23.27c-0.4,10.55,4.4,18.47,11,26.13
							c9.26,10.66,27.42,10.93,35.01-1.57c1.38,4.51,2.49,8.23,0.47,12.23c-7.23,14.11-25.26,13.84-38.37,8.51
							c14.38,7.71,35.07,6.46,43.5-10.32c2.93-5.88,2.8-11.93-0.25-17.47c6.03-0.21,11.38,5.22,12.89,10.57
							c3.25,11.87-2.68,25.29-14.08,32.62c12.58-7.01,20.56-22.53,15.5-37.61c-2.64-7.76-9.34-13.47-17.81-14.02
							c1.88-4.15,5.78-6.35,9.84-6.44c15.23-0.36,25.84,13.79,27.2,29.63c-1.59-12.54-6.67-24.64-17.6-30.71
							c-9.68-5.35-22.29-3.36-28.37,6.15c-3.84-5.15-2.02-11.32,2.66-15.92c9.33-9.3,23.37-9.69,35.25-4.72
							c-14.83-8.48-36.36-5.9-44.33,10.77C1329.67,2080.97,1330.14,2087.16,1333.19,2092.77z"/>
					</g>
				</g>
				<g class="st20">
					<g>
						<defs>
							<rect id="SVGID_16_" x="1299.94" y="2049.32" width="84.11" height="89.56"/>
						</defs>
						<clipPath id="SVGID_35_">
							<use xlink:href="#SVGID_16_"  style="overflow:visible;"/>
						</clipPath>
						<path class="st21" d="M1333.23,2092.53c-7.96,0-13.48-8.46-13.21-16.56c0.28-10.43,5.89-20.1,15.76-26.18
							c-16.69,8.49-25.99,34-10.09,47.55c3.11,2.58,6.83,3.65,10.76,3.65c-1.93,4.06-5.96,6.28-9.92,6.06
							c-6.4-0.45-11.62-1.16-16.41-6.9c-5.28-6.37-8.87-13.63-9.66-23.34c-0.75,10.5,3.76,18.44,10.07,26.2
							c8.85,10.87,26.83,11.73,34.72-0.41c1.24,4.42,2.28,8.21,0.1,12.02c-7.6,13.9-25.46,12.95-38.24,7.33
							c13.96,8.05,34.56,7.53,43.43-8.91c3.08-5.67,3.11-11.7,0.3-17.35c5.97,0.05,11.15,5.56,12.44,10.91
							c2.81,11.87-3.51,25.02-15.03,31.87c12.74-6.44,21.15-21.67,16.55-36.64c-2.35-7.91-8.84-13.77-17.2-14.52
							c1.99-4.08,5.96-6.31,9.95-6.12c15.11,0.79,25.2,14.5,26.06,30.24c-1.25-12.54-5.85-24.59-16.48-31.01
							c-9.46-5.65-22.01-4.02-28.32,5.24c-3.63-5.24-1.67-11.29,3.11-15.72c9.53-8.85,23.45-8.85,35.09-3.56
							c-14.45-8.94-35.87-6.97-44.25,9.23C1330.14,2080.72,1330.36,2086.89,1333.23,2092.53z"/>
					</g>
				</g>
				<g class="st22">
					<g>
						<defs>
							<rect id="SVGID_15_" x="1300.68" y="2049.53" width="82.42" height="89.27"/>
						</defs>
						<clipPath id="SVGID_36_">
							<use xlink:href="#SVGID_15_"  style="overflow:visible;"/>
						</clipPath>
						<path class="st23" d="M1333.31,2092.2c-7.91-0.13-13.12-8.82-12.62-16.76c0.68-10.35,6.48-19.74,16.52-25.45
							c-16.84,7.87-26.85,32.8-11.53,46.8c3,2.72,6.68,3.79,10.59,4c-2.07,3.85-6.13,6.01-10.03,5.65
							c-6.41-0.57-11.54-1.47-16.1-7.3c-5.01-6.55-8.32-13.9-8.87-23.5c-1.05,10.37,3.2,18.44,9.21,26.27
							c8.43,11.05,26.18,12.56,34.43,0.72c1.06,4.45,2.02,8.23-0.26,11.96c-8,13.48-25.69,12.02-38.19,5.97
							c13.62,8.48,34.04,8.62,43.36-7.35c3.21-5.56,3.46-11.52,0.85-17.2c5.9,0.2,10.88,5.85,12.01,11.23
							c2.39,11.86-4.25,24.64-15.89,31.03c12.82-5.94,21.62-20.78,17.57-35.78c-2.14-7.78-8.34-14-16.59-14.93
							c2.07-4.02,6.1-5.9,10.02-5.81c15.03,0.71,24.52,15.33,24.93,30.96c-0.87-12.47-5.03-24.66-15.41-31.24
							c-9.13-5.99-21.67-4.79-28.21,4.19c-3.43-5.28-1.31-11.23,3.53-15.51c9.74-8.42,23.61-8.01,34.95-2.42
							c-14-9.32-35.39-8.07-44.16,7.74C1330.6,2080.45,1330.65,2086.61,1333.31,2092.2z"/>
					</g>
				</g>
				<g class="st24">
					<g>
						<defs>
							<rect id="SVGID_14_" x="1301.45" y="2049.71" width="80.76" height="88.95"/>
						</defs>
						<clipPath id="SVGID_37_">
							<use xlink:href="#SVGID_14_"  style="overflow:visible;"/>
						</clipPath>
						<path class="st25" d="M1333.4,2092.08c-7.87-0.52-12.78-9.28-11.97-17.17c1-10.3,7.07-19.39,17.22-24.79
							c-17.02,7.3-27.76,31.8-13.01,46.18c2.92,2.86,6.49,4.01,10.42,4.29c-2.18,3.84-6.27,5.85-10.19,5.29
							c-6.24-0.84-11.39-1.81-15.73-7.81c-4.79-6.58-7.82-14-8.02-23.59c-1.43,10.34,2.58,18.36,8.26,26.45
							c8,11.2,25.62,13.23,34.25,1.74c0.89,4.52,1.66,8.24-0.72,11.95c-8.39,13.11-25.91,11.03-38.14,4.72
							c13.25,8.82,33.5,9.59,43.28-5.99c3.42-5.35,3.87-11.25,1.44-16.97c5.88,0.39,10.61,6.14,11.55,11.43
							c2.01,11.89-5.05,24.3-16.85,30.37c12.98-5.45,22.21-19.89,18.7-35.01c-1.85-7.81-7.89-14.09-16.02-15.33
							c2.18-3.86,6.25-5.61,10.16-5.35c14.92,1.04,23.9,15.95,23.73,31.4c-0.43-12.36-4.19-24.55-14.24-31.62
							c-8.98-6.12-21.39-5.31-28.19,3.4c-3.24-5.4-0.94-11.23,4.06-15.26c9.89-8.15,23.66-7.21,34.78-1.3
							c-13.68-9.69-34.93-9.19-44.15,6.29C1331.03,2080.22,1330.91,2086.28,1333.4,2092.08z"/>
					</g>
				</g>
				<g class="st26">
					<g>
						<defs>
							<rect id="SVGID_13_" x="1302.07" y="2049.82" width="79.19" height="88.72"/>
						</defs>
						<clipPath id="SVGID_38_">
							<use xlink:href="#SVGID_13_"  style="overflow:visible;"/>
						</clipPath>
						<path class="st27" d="M1333.41,2091.77c-7.73-0.73-12.34-9.57-11.28-17.34c1.27-10.18,7.58-19.13,17.86-24.07
							c-17.05,6.72-28.56,30.63-14.35,45.39c2.76,2.88,6.31,4.17,10.16,4.6c-2.28,3.77-6.42,5.62-10.29,5.02
							c-6.13-1.02-11.23-2.31-15.37-8.32c-4.55-6.69-7.32-14.25-7.2-23.73c-1.74,10.07,1.95,18.4,7.31,26.56
							c7.63,11.45,25.08,13.99,33.97,2.95c0.78,4.42,1.43,8.08-1.07,11.78c-8.72,12.71-26.09,10.1-38.1,3.36
							c12.95,9.21,33.03,10.66,43.33-4.45c3.55-5.26,4.12-11.09,1.94-16.92c5.81,0.66,10.34,6.46,11.08,11.84
							c1.65,11.96-5.73,24.11-17.66,29.67c13.02-5.11,22.69-19.12,19.66-34.23c-1.55-7.85-7.31-14.25-15.4-15.83
							c2.25-3.77,6.38-5.45,10.25-4.99c14.8,1.66,23.25,16.7,22.55,32.03c0-12.27-3.33-24.62-13.13-31.87
							c-8.65-6.42-21.07-6.01-28.09,2.34c-3.12-5.38-0.62-11.09,4.49-15c10.17-7.69,23.76-6.31,34.6-0.09
							c-13.2-10.09-34.41-10.27-44.11,4.74C1331.5,2079.99,1331.14,2086.03,1333.41,2091.77z"/>
					</g>
				</g>
				<g class="st28">
					<g>
						<defs>
							<rect id="SVGID_12_" x="1302.69" y="2050.02" width="77.72" height="88.36"/>
						</defs>
						<clipPath id="SVGID_39_">
							<use xlink:href="#SVGID_12_"  style="overflow:visible;"/>
						</clipPath>
						<path class="st29" d="M1333.51,2091.56c-7.69-1.09-11.98-9.89-10.71-17.65c1.61-10.16,8.23-18.74,18.61-23.39
							c-17.26,6.08-29.48,29.58-15.82,44.73c2.65,2.97,6.1,4.4,10.01,4.9c-2.45,3.63-6.6,5.36-10.4,4.65
							c-6.18-1.29-11.1-2.7-15.07-8.82c-4.28-6.81-6.81-14.31-6.39-23.8c-2.08,10.03,1.3,18.3,6.48,26.67
							c7.12,11.64,24.43,14.68,33.62,4.04c0.65,4.38,1.14,8.17-1.43,11.73c-9.16,12.39-26.32,9.16-37.99,2.06
							c12.51,9.57,32.49,11.68,43.18-3c3.75-5.13,4.52-10.89,2.55-16.81c5.77,0.87,10.05,6.89,10.66,12.23
							c1.22,11.86-6.55,23.68-18.64,28.84c13.21-4.6,23.28-18.24,20.74-33.3c-1.3-7.94-6.79-14.43-14.87-16.31
							c2.49-3.56,6.58-5.19,10.41-4.6c14.69,2.04,22.56,17.27,21.45,32.64c0.35-12.29-2.58-24.59-12.03-32.12
							c-8.43-6.65-20.84-6.74-28.11,1.32c-2.84-5.47-0.16-11.09,5.01-14.74c10.4-7.33,23.9-5.56,34.48,0.93
							c-12.82-10.41-33.89-11.32-44.05,3.4C1332,2079.7,1331.45,2085.76,1333.51,2091.56z"/>
					</g>
				</g>
				<g class="st30">
					<g>
						<defs>
							<rect id="SVGID_11_" x="1303.31" y="2050.25" width="76.71" height="87.99"/>
						</defs>
						<clipPath id="SVGID_40_">
							<use xlink:href="#SVGID_11_"  style="overflow:visible;"/>
						</clipPath>
						<path class="st31" d="M1333.58,2091.27c-7.66-1.27-11.62-10.28-10.11-17.96c2.01-10,8.89-18.35,19.35-22.64
							c-17.37,5.47-30.37,28.47-17.26,44.05c2.56,3,5.94,4.54,9.76,5.19c-2.55,3.56-6.72,5.13-10.48,4.27
							c-6.08-1.36-11.02-2.97-14.72-9.25c-4.11-6.99-6.31-14.52-5.54-23.96c-2.38,9.94,0.67,18.28,5.52,26.81
							c6.75,11.78,23.89,15.45,33.39,5.17c0.53,4.42,0.9,8.19-1.81,11.57c-9.56,11.98-26.5,8.33-37.97,0.82
							c12.19,9.99,32.02,12.75,43.19-1.49c3.87-5.02,4.87-10.8,2.99-16.7c5.76,1.05,9.86,7.22,10.21,12.54
							c0.86,11.91-7.25,23.43-19.44,28.08c13.24-4.1,23.76-17.29,21.78-32.46c-1.03-7.89-6.33-14.65-14.23-16.74
							c2.5-3.58,6.67-4.85,10.49-4.24c14.54,2.56,21.84,18.1,20.22,33.23c0.8-12.2-1.67-24.59-10.91-32.37
							c-8.13-6.97-20.45-7.4-28.04,0.38c-2.61-5.56,0.22-11.05,5.49-14.54c10.59-7.01,23.97-4.7,34.3,2.11
							c-12.43-10.77-33.37-12.39-44.01,1.93C1332.42,2079.51,1331.69,2085.43,1333.58,2091.27z"/>
					</g>
				</g>
				<g class="st32">
					<g>
						<defs>
							<rect id="SVGID_10_" x="1302.81" y="2050.36" width="77.75" height="87.81"/>
						</defs>
						<clipPath id="SVGID_41_">
							<use xlink:href="#SVGID_10_"  style="overflow:visible;"/>
						</clipPath>
						<path class="st33" d="M1333.62,2091.04c-7.62-1.48-11.24-10.62-9.47-18.17c2.31-9.96,9.47-18.1,20.08-22
							c-17.56,4.83-31.25,27.34-18.71,43.37c2.42,3.06,5.8,4.72,9.58,5.53c-2.68,3.45-6.81,4.86-10.61,3.81
							c-6.06-1.65-10.9-3.29-14.36-9.69c-3.85-7.05-5.84-14.66-4.75-24.09c-2.71,9.85,0.11,18.26,4.63,26.9
							c6.32,12.02,23.29,16.29,33.15,6.26c0.34,4.49,0.57,8.28-2.22,11.57c-9.92,11.64-26.75,7.4-37.86-0.5
							c11.82,10.37,31.44,13.79,43.06-0.04c4.07-4.9,5.21-10.51,3.59-16.47c5.7,1.2,9.62,7.51,9.78,12.79
							c0.42,11.87-8.06,23.03-20.38,27.43c13.35-3.68,24.3-16.59,22.86-31.78c-0.8-7.89-5.83-14.72-13.7-17.1
							c2.66-3.43,6.86-4.69,10.66-3.92c14.4,3,21.21,18.67,19.02,33.85c1.17-12.2-0.81-24.55-9.77-32.69
							c-7.9-7.21-20.16-8.1-28-0.54c-2.45-5.58,0.63-10.96,5.97-14.36c10.8-6.56,24.11-3.85,34.14,3.4
							c-12.04-11.28-32.9-13.63-43.9,0.27C1332.9,2079.29,1331.99,2085.19,1333.62,2091.04z"/>
					</g>
				</g>
				<g class="st34">
					<g>
						<defs>
							<rect id="SVGID_9_" x="1302.11" y="2050.52" width="79.09" height="87.52"/>
						</defs>
						<clipPath id="SVGID_42_">
							<use xlink:href="#SVGID_9_"  style="overflow:visible;"/>
						</clipPath>
						<path class="st35" d="M1333.63,2090.84c-7.47-1.81-10.8-10.96-8.74-18.6c2.61-9.85,10.02-17.69,20.75-21.19
							c-17.73,4.24-32.16,26.23-20.16,42.6c2.33,3.15,5.65,4.97,9.41,5.88c-2.76,3.42-6.99,4.65-10.75,3.52
							c-6-1.81-10.73-3.68-14.01-10.21c-3.6-7.19-5.28-14.89-3.9-24.25c-3.08,9.76-0.55,18.29,3.73,27.09
							c5.88,12.11,22.67,17.03,32.84,7.31c0.19,4.54,0.32,8.24-2.62,11.48c-10.27,11.3-26.95,6.46-37.75-1.74
							c11.44,10.75,30.97,14.77,42.99,1.36c4.21-4.7,5.54-10.34,4.12-16.33c5.71,1.39,9.33,7.78,9.4,13.09
							c0.02,11.91-8.86,22.8-21.33,26.7c13.49-3.22,24.85-15.65,23.84-30.83c-0.46-7.9-5.29-15.02-13-17.69
							c2.74-3.29,6.97-4.29,10.73-3.49c14.25,3.49,20.59,19.48,17.85,34.46c1.64-12.03,0-24.55-8.64-32.99
							c-7.65-7.49-19.9-8.69-27.89-1.47c-2.3-5.69,0.94-10.96,6.41-14.04c11-6.33,24.18-3.15,33.98,4.35
							c-11.64-11.59-32.4-14.58-43.92-1.11C1333.4,2078.95,1332.2,2084.87,1333.63,2090.84z"/>
					</g>
				</g>
				<g class="st36">
					<g>
						<defs>
							<rect id="SVGID_8_" x="1301.45" y="2050.79" width="80.31" height="87.13"/>
						</defs>
						<clipPath id="SVGID_43_">
							<use xlink:href="#SVGID_8_"  style="overflow:visible;"/>
						</clipPath>
						<path class="st37" d="M1333.75,2090.56c-7.51-2.06-10.5-11.34-8.19-18.79c3-9.76,10.63-17.37,21.46-20.49
							c-17.79,3.61-32.95,25.13-21.54,41.92c2.19,3.24,5.42,5.1,9.17,6.19c-2.89,3.22-7.19,4.36-10.86,3.13
							c-5.86-2.06-10.63-4.08-13.66-10.68c-3.35-7.33-4.79-15.06-3.09-24.39c-3.34,9.69-1.13,18.22,2.8,27.13
							c5.5,12.45,22.12,17.83,32.58,8.49c0.1,4.52,0.1,8.26-2.99,11.43c-10.6,10.91-27.11,5.54-37.74-3.11
							c11.14,11.14,30.49,15.93,42.99,2.88c4.36-4.56,5.96-10.14,4.68-16.18c5.64,1.7,9.08,8.12,8.92,13.39
							c-0.37,11.93-9.58,22.57-22.11,25.99c13.54-2.75,25.29-14.83,24.84-30.08c-0.2-7.92-4.82-15.16-12.47-17.97
							c2.91-3.24,7.12-4.2,10.86-3.13c14.14,3.95,19.93,20.08,16.72,35c2.03-12.02,0.8-24.57-7.53-33.32
							c-7.39-7.69-19.62-9.37-27.89-2.38c-2.07-5.72,1.32-10.95,6.89-13.84c11.24-5.85,24.27-2.32,33.83,5.58
							c-11.23-12.04-31.92-15.79-43.83-2.65C1333.87,2078.7,1332.53,2084.58,1333.75,2090.56z"/>
					</g>
				</g>
				<g class="st38">
					<g>
						<defs>
							<rect id="SVGID_7_" x="1300.76" y="2051.02" width="81.53" height="86.75"/>
						</defs>
						<clipPath id="SVGID_44_">
							<use xlink:href="#SVGID_7_"  style="overflow:visible;"/>
						</clipPath>
						<path class="st39" d="M1333.81,2090.36c-7.36-2.31-10.1-11.79-7.57-19.17c3.32-9.67,11.18-16.99,22.21-19.76
							c-17.99,3.1-33.9,23.96-23.01,41.18c2.11,3.36,5.27,5.4,8.98,6.55c-3,3.16-7.31,4.2-10.95,2.74
							c-5.87-2.13-10.49-4.4-13.34-11.05c-3.13-7.51-4.27-15.36-2.24-24.52c-3.73,9.48-1.78,18.12,1.85,27.24
							c5.1,12.63,21.54,18.56,32.38,9.59c-0.15,4.51-0.29,8.23-3.4,11.34c-11.04,10.5-27.38,4.51-37.65-4.45
							c10.7,11.57,29.95,17.01,42.87,4.36c4.55-4.42,6.3-9.91,5.27-15.97c5.57,1.79,8.82,8.39,8.47,13.68
							c-0.8,11.87-10.39,22.16-23.04,25.27c13.63-2.36,25.82-13.99,25.85-29.28c0.11-7.96-4.27-15.25-11.78-18.42
							c2.96-3.2,7.23-4.02,10.94-2.84c14.02,4.44,19.28,20.83,15.53,35.62c2.47-11.98,1.63-24.54-6.44-33.53
							c-7.12-7.96-19.26-10.14-27.78-3.36c-1.88-5.92,1.72-10.91,7.42-13.68c11.37-5.47,24.34-1.36,33.63,6.76
							c-10.87-12.27-31.37-16.79-43.8-4.08C1334.32,2078.52,1332.78,2084.28,1333.81,2090.36z"/>
					</g>
				</g>
				<g class="st40">
					<g>
						<defs>
							<rect id="SVGID_6_" x="1300.11" y="2051.12" width="82.74" height="86.54"/>
						</defs>
						<clipPath id="SVGID_45_">
							<use xlink:href="#SVGID_6_"  style="overflow:visible;"/>
						</clipPath>
						<path class="st41" d="M1333.87,2090.07c-7.35-2.5-9.72-12.12-6.92-19.46c3.65-9.53,11.8-16.58,22.9-19.05
							c-18.1,2.47-34.75,22.91-24.45,40.56c2.04,3.38,5.09,5.54,8.79,6.81c-3.09,2.99-7.47,3.94-11.11,2.4
							c-5.78-2.45-10.35-4.86-12.95-11.61c-2.89-7.53-3.79-15.4-1.43-24.59c-4.01,9.43-2.38,18.14,0.97,27.29
							c4.66,12.88,20.93,19.37,32.1,10.78c-0.26,4.45-0.55,8.24-3.79,11.18c-11.4,10.18-27.52,3.67-37.56-5.63
							c10.34,11.93,29.42,17.97,42.86,5.76c4.68-4.22,6.58-9.64,5.78-15.81c5.58,1.97,8.55,8.73,8.03,14.04
							c-1.2,11.82-11.15,21.85-23.99,24.48c13.78-1.9,26.4-13.11,26.98-28.47c0.28-7.92-3.81-15.4-11.27-18.9
							c3.1-3.02,7.41-3.65,11.1-2.29c13.86,4.85,18.58,21.46,14.38,36.13c2.78-11.89,2.45-24.54-5.37-33.84
							c-6.87-8.19-18.98-10.71-27.75-4.29c-1.67-5.92,2.11-10.91,7.89-13.4c11.66-5.15,24.48-0.59,33.52,7.92
							c-10.47-12.77-30.88-17.95-43.79-5.67C1334.79,2078.25,1333.06,2083.96,1333.87,2090.07z"/>
					</g>
				</g>
				<g class="st42">
					<g>
						<defs>
							<rect id="SVGID_5_" x="1299.4" y="2051.36" width="84.01" height="86.12"/>
						</defs>
						<clipPath id="SVGID_46_">
							<use xlink:href="#SVGID_5_"  style="overflow:visible;"/>
						</clipPath>
						<path class="st43" d="M1333.94,2089.86c-7.28-2.82-9.34-12.45-6.36-19.71c4.04-9.43,12.44-16.27,23.67-18.31
							c-18.26,1.75-35.62,21.8-25.91,39.75c1.89,3.49,4.96,5.74,8.59,7.12c-3.18,3.01-7.66,3.72-11.14,2.09
							c-5.75-2.63-10.27-5.2-12.67-12.12c-2.61-7.65-3.27-15.59-0.59-24.71c-4.4,9.28-3.04,18.1,0.04,27.52
							c4.21,13,20.34,20.03,31.78,11.88c-0.4,4.42-0.74,8.16-4.15,11c-11.72,9.91-27.7,2.75-37.47-6.88
							c10,12.21,28.94,18.99,42.78,7.26c4.86-4.17,6.96-9.62,6.31-15.77c5.54,2.25,8.28,9.08,7.59,14.38
							c-1.54,11.87-11.92,21.51-24.83,23.71c13.85-1.38,26.88-12.18,28.01-27.59c0.58-7.94-3.33-15.58-10.7-19.26
							c3.18-3.01,7.62-3.45,11.18-2.09c13.87,5.45,17.96,22.21,13.3,36.82c3.2-11.89,3.25-24.48-4.21-34.09
							c-6.63-8.58-18.73-11.46-27.71-5.28c-1.53-6.06,2.46-10.85,8.3-13.23c11.88-4.6,24.56,0.23,33.35,9.14
							c-10.05-13.2-30.37-19.08-43.68-7.15C1335.24,2078,1333.31,2083.73,1333.94,2089.86z"/>
					</g>
				</g>
				<g class="st44">
					<g>
						<defs>
							<rect id="SVGID_4_" x="1298.74" y="2051.57" width="85.24" height="85.8"/>
						</defs>
						<clipPath id="SVGID_47_">
							<use xlink:href="#SVGID_4_"  style="overflow:visible;"/>
						</clipPath>
						<path class="st45" d="M1334,2089.63c-7.25-3.11-8.98-12.86-5.71-20.03c4.34-9.37,13.05-15.92,24.36-17.63
							c-18.38,1.2-36.47,20.71-27.31,39.07c1.76,3.52,4.75,5.96,8.35,7.49c-3.34,2.88-7.75,3.4-11.28,1.68
							c-5.67-2.79-10.17-5.65-12.29-12.63c-2.38-7.71-2.76-15.7,0.22-24.77c-4.68,9.12-3.65,18.1-0.89,27.56
							c3.84,13.18,19.76,20.87,31.53,12.98c-0.51,4.43-1.01,8.28-4.54,11c-12.08,9.46-27.94,1.81-37.37-8.21
							c9.61,12.64,28.38,20.06,42.72,8.76c4.97-4.04,7.29-9.41,6.89-15.65c5.45,2.43,7.98,9.39,7.14,14.61
							c-1.99,11.91-12.72,21.26-25.76,23c13.95-0.82,27.43-11.32,29.05-26.73c0.82-7.89-2.8-15.77-10.14-19.67
							c3.34-2.9,7.76-3.28,11.32-1.7c13.68,5.95,17.33,22.87,12.1,37.39c3.65-11.77,4.12-24.52-3.13-34.39
							c-6.33-8.76-18.33-12.12-27.58-6.2c-1.33-6.13,2.81-10.85,8.79-13c12.04-4.33,24.67,1.07,33.16,10.18
							c-9.69-13.52-29.86-20.03-43.66-8.57C1335.68,2077.81,1333.58,2083.39,1334,2089.63z"/>
					</g>
				</g>
				<g class="st46">
					<g>
						<defs>
							<rect id="SVGID_3_" x="1298.06" y="2051.66" width="86.47" height="85.57"/>
						</defs>
						<clipPath id="SVGID_48_">
							<use xlink:href="#SVGID_3_"  style="overflow:visible;"/>
						</clipPath>
						<path class="st47" d="M1334.03,2089.4c-7.08-3.29-8.55-13.25-5.03-20.3c4.62-9.28,13.58-15.61,25.07-16.95
							c-18.56,0.61-37.4,19.58-28.77,38.33c1.68,3.77,4.58,6.17,8.15,7.81c-3.44,2.9-7.89,3.24-11.38,1.36
							c-5.58-3.04-9.96-5.99-11.94-13.04c-2.17-7.9-2.31-15.99,1.04-24.97c-5.02,9.03-4.26,18.06-1.82,27.76
							c3.49,13.27,19.23,21.51,31.33,14.07c-0.69,4.53-1.34,8.23-4.91,10.82c-12.51,9.21-28.22,0.9-37.32-9.41
							c9.26,13.02,27.8,21.08,42.62,10.12c5.17-3.86,7.64-9.12,7.42-15.4c5.42,2.48,7.77,9.64,6.75,14.91
							c-2.47,11.95-13.53,20.98-26.67,22.32c14.04-0.5,27.94-10.57,30.09-25.97c1.09-7.99-2.29-15.95-9.53-20.21
							c3.43-2.74,7.86-2.93,11.41-1.27c13.58,6.35,16.67,23.59,10.95,38.04c4-11.77,4.9-24.55-2.03-34.76
							c-6.09-8.94-18-12.77-27.51-7.1c-1.16-6.22,3.19-10.8,9.25-12.79c12.26-3.95,24.76,1.88,33.01,11.43
							c-9.29-13.93-29.32-21.3-43.59-10.21C1336.19,2077.5,1333.87,2083.14,1334.03,2089.4z"/>
					</g>
				</g>
				<g class="st48">
					<g>
						<defs>
							<rect id="SVGID_2_" x="1297.37" y="2051.95" width="87.74" height="85.21"/>
						</defs>
						<clipPath id="SVGID_49_">
							<use xlink:href="#SVGID_2_"  style="overflow:visible;"/>
						</clipPath>
						<path class="st49" d="M1334.17,2089.16c-7.17-3.63-7.98-13.47-4.47-20.6c5.3-8.96,14.21-15.24,25.74-16.17
							c-18.64,0-37.24,17.9-30.16,37.61c1.72,3.63,4.42,6.36,7.91,8.1c-3.5,2.7-7.91,2.7-11.49,1.06
							c-5.26-3.7-9.72-6.46-11.57-13.63c-1.8-8.03-1.8-16.13,1.85-25.09c-5.34,8.96-4.46,17.95-2.68,27.88
							c3.53,13.39,18.6,22.41,31.02,15.15c-0.88,4.54-1.7,8.17-5.32,10.82c-13.3,8.05-28.35,0-37.26-10.82
							c8.91,13.5,27.54,22.5,42.58,11.62c5.43-3.45,7.98-8.91,7.98-15.22c5.36,2.72,7.14,9.93,6.32,15.22
							c-3.62,11.68-14.31,20.69-27.63,21.57c14.22,0,27.63-9.89,31.18-25.02c0.84-8.17-1.81-16.18-8.93-20.69
							c3.53-2.63,8.01-2.63,11.57-0.95c13.27,7.15,15.96,24.28,9.75,38.63c4.43-11.66,5.31-24.2-0.92-35
							c-6.19-8.87-17.74-13.45-27.47-8.1c-0.95-6.2,3.58-10.77,9.73-12.54c12.45-3.59,24.88,2.7,32.87,12.54
							c-8.9-14.32-28.4-21.51-43.54-11.62C1336.79,2077.5,1334.17,2082.87,1334.17,2089.16z"/>
					</g>
				</g>
			</g>
		</g>
		<path class="st50" d="M1386.81,2093.88c0,24.91-20.46,45.08-45.59,45.08c-25.3,0-45.75-20.17-45.75-45.08
			c0-24.95,20.45-45.23,45.75-45.23C1366.35,2048.66,1386.81,2068.94,1386.81,2093.88z"/>
		<polyline class="st51" points="1291.84,2037.96 1293.84,2043.26 1300.77,2042.97 		"/>
		<polyline class="st51" points="1284.48,2045.89 1287.22,2050.79 1294.05,2049.44 		"/>
		<polyline class="st51" points="1278.32,2054.77 1281.75,2059.28 1288.35,2056.92 		"/>
		<polyline class="st51" points="1273.49,2064.52 1277.58,2068.38 1283.78,2065.14 		"/>
		<polyline class="st51" points="1270.17,2074.71 1274.76,2077.95 1280.45,2073.91 		"/>
		<polyline class="st51" points="1268.32,2085.32 1273.34,2087.91 1278.37,2083.06 		"/>
		<polyline class="st51" points="1268.08,2096.23 1273.38,2098.02 1277.62,2092.42 		"/>
		<polyline class="st51" points="1269.37,2106.87 1274.92,2107.92 1278.32,2101.82 		"/>
		<polyline class="st51" points="1272.21,2117.24 1277.77,2117.49 1280.25,2110.91 		"/>
		<polyline class="st51" points="1276.43,2127.18 1282.01,2126.59 1283.55,2119.74 		"/>
		<polyline class="st51" points="1282.12,2136.37 1287.6,2135.02 1288.08,2128.01 		"/>
		<polyline class="st51" points="1289.13,2144.65 1294.21,2142.45 1293.74,2135.5 		"/>
		<polyline class="st51" points="1297.08,2151.82 1301.95,2148.8 1300.47,2142.04 		"/>
		<polyline class="st51" points="1306.15,2157.66 1310.47,2154.08 1307.96,2147.59 		"/>
		<polyline class="st51" points="1315.91,2162.27 1319.7,2158.1 1316.33,2151.95 		"/>
		<polyline class="st51" points="1326.24,2165.33 1329.37,2160.62 1325.11,2155.06 		"/>
		<polyline class="st51" points="1336.94,2166.95 1339.33,2161.8 1334.32,2156.83 		"/>
		<polyline class="st51" points="1347.68,2166.88 1349.33,2161.5 1343.68,2157.4 		"/>
		<polyline class="st51" points="1358.24,2165.29 1359.19,2159.76 1353.01,2156.44 		"/>
		<polyline class="st51" points="1368.66,2162.23 1368.67,2156.56 1362.11,2154.22 		"/>
		<polyline class="st51" points="1378.39,2157.64 1377.66,2151.95 1370.83,2150.66 		"/>
		<polyline class="st51" points="1387.39,2151.65 1385.82,2146.23 1378.86,2145.91 		"/>
		<polyline class="st51" points="1395.38,2144.44 1393.08,2139.34 1386.2,2139.99 		"/>
		<polyline class="st51" points="1402.31,2136.16 1399.32,2131.49 1392.52,2133.12 		"/>
		<polyline class="st51" points="1407.99,2127 1404.33,2122.69 1397.85,2125.38 		"/>
		<polyline class="st51" points="1412.19,2117.06 1407.99,2113.45 1401.99,2116.97 		"/>
		<polyline class="st51" points="1415.02,2106.6 1410.25,2103.58 1404.86,2108.01 		"/>
		<polyline class="st51" points="1416.26,2095.81 1411.15,2093.61 1406.44,2098.71 		"/>
		<polyline class="st51" points="1416.01,2085.1 1410.59,2083.55 1406.65,2089.4 		"/>
		<polyline class="st51" points="1414.06,2074.48 1408.5,2073.78 1405.45,2080.09 		"/>
		<polyline class="st51" points="1410.75,2064.25 1405.14,2064.29 1402.96,2070.98 		"/>
		<polyline class="st51" points="1405.89,2054.56 1400.36,2055.51 1399.2,2062.37 		"/>
		<polyline class="st51" points="1399.71,2045.67 1394.39,2047.35 1394.26,2054.4 		"/>
		<polyline class="st51" points="1392.35,2037.82 1387.29,2040.23 1388.1,2047.24 		"/>
		<polyline class="st51" points="1383.91,2031.08 1379.26,2034.24 1381.12,2041.06 		"/>
		<polyline class="st51" points="1374.6,2025.68 1370.51,2029.52 1373.26,2035.94 		"/>
		<polyline class="st51" points="1364.58,2021.71 1361.04,2026.07 1364.81,2031.95 		"/>
		<polyline class="st51" points="1354.11,2019.15 1351.25,2024.01 1355.73,2029.36 		"/>
		<polyline class="st51" points="1343.42,2018.27 1341.22,2023.42 1346.47,2028.04 		"/>
		<polyline class="st51" points="1332.63,2018.83 1331.27,2024.32 1337.11,2028.07 		"/>
		<polyline class="st51" points="1322.07,2020.97 1321.53,2026.62 1327.9,2029.52 		"/>
		<polyline class="st51" points="1311.98,2024.64 1312.23,2030.31 1318.94,2032.31 		"/>
		<polyline class="st51" points="1302.49,2029.83 1303.53,2035.3 1310.45,2036.28 		"/>
		<path class="st52" d="M1403.64,2092.7c0,33.66-27.51,60.84-61.36,60.84c-33.95,0-61.46-27.18-61.46-60.84
			c0-33.51,27.51-60.8,61.46-60.8C1376.13,2031.9,1403.64,2059.19,1403.64,2092.7z"/>
	</g>
	<g>
		<path class="st0" d="M1020.89,2290.02c4.7-6.58,9.26-13.05,13.57-19.31c4.5-6.22,8.87-12.6,13.31-19.04
			c3.87-5.46,8.73-12.12,14.49-19.92h0.95c14.73,19.2,29.55,38.32,44.41,57.41l-20.43,10.02l-9.04-13.51l-31.02,1.6l-6.61,11.91
			L1020.89,2290.02z M1053.65,2274.43l17.38-0.88c-3.93-6.39-6.78-11.3-8.6-14.61c-1.71,2.9-3.15,5.31-4.35,7.32
			C1057.17,2267.89,1055.78,2270.6,1053.65,2274.43"/>
		<path class="st0" d="M1141.53,2268.01c0,4.26,0.08,7.66,0.13,10.06c0.38,12.03,0.55,18.5,0.55,19.12h-23.82v-63.14h23.82
			c0,3.07-0.12,7.74-0.38,14.03c-0.17,6.25-0.31,11-0.31,14.17h0.43l27.29-28.71l16.93,12.61l-21.61,18.82l22.51,20.19l-18.03,13.46
			c-3.18-3.58-6.19-6.94-9.04-10.06c-2.25-2.51-5.24-5.91-9.11-10.29c-4.23-4.64-7.17-8.09-8.94-10.26H1141.53z"/>
		<rect x="1199.83" y="2234.89" class="st0" width="23.78" height="61.43"/>
		<path class="st0" d="M1247.57,2234.86h24.15c-0.42,2.96-0.75,5.82-0.93,8.42c-0.22,2.61-0.27,5.72-0.27,9.27
			c0,2.79,0.06,6,0.18,9.27c0.1,3.29,0.13,5.94,0.21,7.94c0,8.49-1.37,15.09-4.32,19.73c-3.69,6.31-11,11.86-21.87,16.81
			l-10.94-15.05c5.77-2.24,9.9-6.02,12.26-11.3c1.92-4.23,2.9-9.97,2.9-17.26c0-2.71-0.1-6.07-0.42-10.26
			C1247.93,2243.15,1247.57,2237.3,1247.57,2234.86"/>
		<path class="st0" d="M1360.08,2274.61c-0.31-7.8-0.58-17.14-0.58-26.61h-0.17c-2.1,8.24-4.74,17.49-7.21,25.01l-7.79,25.23h-11.24
			l-6.78-24.95c-2.09-7.66-4.18-16.77-5.76-25.29h-0.26c-0.23,8.71-0.61,18.69-1.01,26.78l-1.26,24.51h-13.26l4.02-64.65h19.18
			l6.29,21.62c2.06,7.43,3.94,15.55,5.42,23.1h0.34c1.69-7.55,3.93-15.9,6.07-23.24l6.68-21.49h18.96l3.42,64.65h-14
			L1360.08,2274.61z"/>
		<path class="st0" d="M1360.08,2274.61c-0.31-7.8-0.58-17.14-0.58-26.61h-0.17c-2.1,8.24-4.74,17.49-7.21,25.01l-7.79,25.23h-11.24
			l-6.78-24.95c-2.09-7.66-4.18-16.77-5.76-25.29h-0.26c-0.23,8.71-0.61,18.69-1.01,26.78l-1.26,24.51h-13.26l4.02-64.65h19.18
			l6.29,21.62c2.06,7.43,3.94,15.55,5.42,23.1h0.34c1.69-7.55,3.93-15.9,6.07-23.24l6.68-21.49h18.96l3.42,64.65h-14
			L1360.08,2274.61z"/>
		<path class="st0" d="M1413.26,2300.35c-18.81,0-29.96-14.48-29.96-32.91c0-19.37,12.23-33.83,30.97-33.83
			c19.6,0,30.29,14.9,30.29,32.64c0,21.34-12.56,34.1-31.22,34.1H1413.26z M1413.92,2288.7c9.74,0,15.37-9.19,15.37-21.89
			c0-11.58-5.45-21.6-15.37-21.6c-9.89,0-15.52,9.76-15.52,21.85c0,12.17,5.85,21.65,15.4,21.65H1413.92z"/>
		<path class="st0" d="M1413.26,2300.35c-18.81,0-29.96-14.48-29.96-32.91c0-19.37,12.23-33.83,30.97-33.83
			c19.6,0,30.29,14.9,30.29,32.64c0,21.34-12.56,34.1-31.22,34.1H1413.26z M1413.92,2288.7c9.74,0,15.37-9.19,15.37-21.89
			c0-11.58-5.45-21.6-15.37-21.6c-9.89,0-15.52,9.76-15.52,21.85c0,12.17,5.85,21.65,15.4,21.65H1413.92z"/>
		<polygon class="st0" points="1463.41,2246.93 1446.17,2246.93 1446.17,2234.64 1495.16,2234.64 1495.16,2246.93 1477.79,2246.93 
			1477.79,2299.35 1463.41,2299.35 		"/>
		<polygon class="st0" points="1463.41,2246.93 1446.17,2246.93 1446.17,2234.64 1495.16,2234.64 1495.16,2246.93 1477.79,2246.93 
			1477.79,2299.35 1463.41,2299.35 		"/>
		<path class="st0" d="M1527.19,2300.35c-18.83,0-30-14.48-30-32.91c0-19.37,12.31-33.83,31.07-33.83
			c19.56,0,30.26,14.9,30.26,32.64c0,21.34-12.59,34.1-31.23,34.1H1527.19z M1527.85,2288.7c9.74,0,15.31-9.19,15.31-21.89
			c0-11.58-5.38-21.6-15.31-21.6c-9.93,0-15.52,9.72-15.52,21.85c0,12.17,5.79,21.65,15.42,21.65H1527.85z"/>
		<path class="st0" d="M1527.19,2300.35c-18.83,0-30-14.48-30-32.91c0-19.37,12.31-33.83,31.07-33.83
			c19.56,0,30.26,14.9,30.26,32.64c0,21.34-12.59,34.1-31.23,34.1H1527.19z M1527.85,2288.7c9.74,0,15.31-9.19,15.31-21.89
			c0-11.58-5.38-21.6-15.31-21.6c-9.93,0-15.52,9.72-15.52,21.85c0,12.17,5.79,21.65,15.42,21.65H1527.85z"/>
		<path class="st0" d="M1567.95,2235.63c4.66-0.92,11.45-1.48,19.22-1.48c9.45,0,16.07,1.48,20.63,5.19
			c3.85,3.05,5.92,7.58,5.92,13.54c0,8.16-5.78,13.8-11.26,15.85v0.23c4.46,1.84,6.89,6.07,8.54,12.05
			c1.97,7.29,3.87,15.78,5.13,18.34h-14.79c-0.98-1.91-2.53-7.16-4.33-15.1c-1.81-8.14-4.55-10.27-10.52-10.31h-4.25v25.42h-14.3
			V2235.63z M1582.25,2263.32h5.68c7.16,0,11.44-3.64,11.44-9.33c0-5.82-3.96-8.86-10.61-8.86c-3.5,0-5.5,0.15-6.51,0.46V2263.32z"
			/>
		<path class="st0" d="M1567.95,2235.63c4.66-0.92,11.45-1.48,19.22-1.48c9.45,0,16.07,1.48,20.63,5.19
			c3.85,3.05,5.92,7.58,5.92,13.54c0,8.16-5.78,13.8-11.26,15.85v0.23c4.46,1.84,6.89,6.07,8.54,12.05
			c1.97,7.29,3.87,15.78,5.13,18.34h-14.79c-0.98-1.91-2.53-7.16-4.33-15.1c-1.81-8.14-4.55-10.27-10.52-10.31h-4.25v25.42h-14.3
			V2235.63z M1582.25,2263.32h5.68c7.16,0,11.44-3.64,11.44-9.33c0-5.82-3.96-8.86-10.61-8.86c-3.5,0-5.5,0.15-6.51,0.46V2263.32z"
			/>
		<path class="st0" d="M1624.58,2284.29c3.74,2.07,9.84,4.03,15.97,4.03c6.58,0,10.11-2.72,10.11-7.04c0-3.94-2.97-6.31-10.67-9.07
			c-10.65-3.8-17.6-9.69-17.6-19.22c0-11.12,9.15-19.38,24.11-19.38c7.3,0,12.5,1.39,16.33,3.23l-3.29,11.75
			c-2.39-1.29-7.09-3.11-13.24-3.11c-6.24,0-9.26,3.03-9.26,6.26c0,4.08,3.51,5.9,11.8,9.21c11.25,4.18,16.5,10.13,16.5,19.39
			c0,10.8-8.15,20.01-25.65,20.01c-7.28,0-14.46-2.03-18.07-4.05L1624.58,2284.29z"/>
		<path class="st0" d="M1624.58,2284.29c3.74,2.07,9.84,4.03,15.97,4.03c6.58,0,10.11-2.72,10.11-7.04c0-3.94-2.97-6.31-10.67-9.07
			c-10.65-3.8-17.6-9.69-17.6-19.22c0-11.12,9.15-19.38,24.11-19.38c7.3,0,12.5,1.39,16.33,3.23l-3.29,11.75
			c-2.39-1.29-7.09-3.11-13.24-3.11c-6.24,0-9.26,3.03-9.26,6.26c0,4.08,3.51,5.9,11.8,9.21c11.25,4.18,16.5,10.13,16.5,19.39
			c0,10.8-8.15,20.01-25.65,20.01c-7.28,0-14.46-2.03-18.07-4.05L1624.58,2284.29z"/>
	</g>
</g>
</svg>
