<svg xmlns="http://www.w3.org/2000/svg" xmlns:xlink="http://www.w3.org/1999/xlink" width="320" height="176" viewBox="0 0 320 176">
  <defs>
    <clipPath id="clip-path">
      <path id="SVGID" d="M428.5,311.955a9.718,9.718,0,0,0,5.642,12.6,9.9,9.9,0,0,0,12.746-5.577,9.717,9.717,0,0,0-5.635-12.616,9.5,9.5,0,0,0-3.541-.648,9.849,9.849,0,0,0-9.212,6.236" transform="translate(-427.832 -305.719)" fill="none"/>
    </clipPath>
    <radialGradient id="radial-gradient" cx="0.5" cy="0.482" r="0.274" gradientTransform="matrix(0.355, -0.932, -0.918, -0.366, 32.509, 47.569)" gradientUnits="objectBoundingBox">
      <stop offset="0" stop-color="#fff"/>
      <stop offset="0.388" stop-color="#fff"/>
      <stop offset="0.415" stop-color="#f4f4f4"/>
      <stop offset="0.823" stop-color="#585657"/>
      <stop offset="1" stop-color="#1a1718"/>
    </radialGradient>
    <clipPath id="clip-path-2">
      <rect id="SVGID-2" data-name="SVGID" width="12.538" height="11.933" fill="none"/>
    </clipPath>
    <clipPath id="clip-path-4">
      <rect id="SVGID-4" data-name="SVGID" width="12.313" height="11.905" fill="none"/>
    </clipPath>
    <clipPath id="clip-path-5">
      <rect id="SVGID-5" data-name="SVGID" width="12.088" height="11.854" fill="none"/>
    </clipPath>
    <clipPath id="clip-path-6">
      <rect id="SVGID-6" data-name="SVGID" width="11.851" height="11.822" fill="none"/>
    </clipPath>
    <clipPath id="clip-path-7">
      <rect id="SVGID-7" data-name="SVGID" width="11.627" height="11.787" fill="none"/>
    </clipPath>
    <clipPath id="clip-path-8">
      <rect id="SVGID-8" data-name="SVGID" width="11.394" height="11.754" fill="none"/>
    </clipPath>
    <clipPath id="clip-path-9">
      <rect id="SVGID-9" data-name="SVGID" width="11.176" height="11.696" fill="none"/>
    </clipPath>
    <clipPath id="clip-path-10">
      <rect id="SVGID-10" data-name="SVGID" width="10.956" height="11.665" fill="none"/>
    </clipPath>
    <clipPath id="clip-path-11">
      <rect id="SVGID-11" data-name="SVGID" width="10.735" height="11.628" fill="none"/>
    </clipPath>
    <clipPath id="clip-path-12">
      <rect id="SVGID-12" data-name="SVGID" width="10.519" height="11.586" fill="none"/>
    </clipPath>
    <clipPath id="clip-path-13">
      <rect id="SVGID-13" data-name="SVGID" width="10.314" height="11.556" fill="none"/>
    </clipPath>
    <clipPath id="clip-path-14">
      <rect id="SVGID-14" data-name="SVGID" width="10.123" height="11.509" fill="none"/>
    </clipPath>
    <clipPath id="clip-path-15">
      <rect id="SVGID-15" data-name="SVGID" width="9.992" height="11.461" fill="none"/>
    </clipPath>
    <clipPath id="clip-path-16">
      <rect id="SVGID-16" data-name="SVGID" width="10.128" height="11.437" fill="none"/>
    </clipPath>
    <clipPath id="clip-path-17">
      <rect id="SVGID-17" data-name="SVGID" width="10.302" height="11.4" fill="none"/>
    </clipPath>
    <clipPath id="clip-path-18">
      <rect id="SVGID-18" data-name="SVGID" width="10.46" height="11.349" fill="none"/>
    </clipPath>
    <clipPath id="clip-path-19">
      <rect id="SVGID-19" data-name="SVGID" width="10.62" height="11.3" fill="none"/>
    </clipPath>
    <clipPath id="clip-path-20">
      <rect id="SVGID-20" data-name="SVGID" width="10.778" height="11.272" fill="none"/>
    </clipPath>
    <clipPath id="clip-path-21">
      <rect id="SVGID-21" data-name="SVGID" width="10.942" height="11.218" fill="none"/>
    </clipPath>
    <clipPath id="clip-path-22">
      <rect id="SVGID-22" data-name="SVGID" width="11.103" height="11.176" fill="none"/>
    </clipPath>
    <clipPath id="clip-path-23">
      <rect id="SVGID-23" data-name="SVGID" width="11.263" height="11.146" fill="none"/>
    </clipPath>
    <clipPath id="clip-path-24">
      <rect id="SVGID-24" data-name="SVGID" width="11.429" height="11.1" fill="none"/>
    </clipPath>
    <clipPath id="clip-mobile_5">
      <rect width="320" height="176"/>
    </clipPath>
  </defs>
  <g id="mobile_5" data-name="mobile – 5" clip-path="url(#clip-mobile_5)">
    <rect width="320" height="176" fill="#fff"/>
    <g id="Group_803" data-name="Group 803" transform="translate(56 -66)">
      <g id="Ellipse_21" data-name="Ellipse 21" transform="translate(238 135)" fill="none" stroke="#bfbfbf" stroke-width="2">
        <circle cx="5" cy="5" r="5" stroke="none"/>
        <circle cx="5" cy="5" r="4" fill="none"/>
      </g>
      <line id="Line_92" data-name="Line 92" x2="4" y2="3" transform="translate(245.5 142.5)" fill="none" stroke="#bfbfbf" stroke-width="2"/>
    </g>
    <g id="Group_842" data-name="Group 842" transform="translate(22.861 -1894.555)">
      <g id="Group_136" data-name="Group 136" transform="translate(109.579 1968.061)">
        <path id="Path_138" data-name="Path 138" d="M952.261,272.329h-1.083v0H937.489v2.383h-1.533v0h1.71v14.957a38.812,38.812,0,0,0,6.575-.388,12.224,12.224,0,0,0,5.278-2.386,5.961,5.961,0,0,0,2.653-4.717,5.1,5.1,0,0,0-1.061-3.33,4,4,0,0,0-3.273-1.443,8.986,8.986,0,0,0-2.551.43A7.834,7.834,0,0,0,943,278.878l.783,3.3a9.551,9.551,0,0,1,2.831-1.138c1.434,0,2.144-.175,2.144,1.268,0,1.351-.815,2.1-2.722,3.061a10.214,10.214,0,0,1-4.953,1.221l-.332-.028.266-11.846h12.745v-.006h-1.5Z" transform="translate(-831.536 -266.341)" fill="#fff"/>
        <rect id="Rectangle_3209" data-name="Rectangle 3209" width="1.533" height="2.38" transform="translate(104.42 5.988)" fill="#fff"/>
        <path id="Path_139" data-name="Path 139" d="M1000.646,314.509a13.128,13.128,0,0,1,3.568,2.275l1.828-1.776a11.96,11.96,0,0,0-4.128-2.775Z" transform="translate(-874.319 -292.732)" fill="#fff"/>
        <path id="Path_140" data-name="Path 140" d="M1003.705,272.329H988.256v2.376h12.472a65.934,65.934,0,0,0-12.62,5.747l.8,3.335a16.66,16.66,0,0,1,6.841,2.075,11.714,11.714,0,0,1,4.927,4.275l3.313-.438V274.709h-.28Zm-2.889,13.181a26.374,26.374,0,0,0-7.725-4.218,50.94,50.94,0,0,1,7.725-3.33Z" transform="translate(-866.027 -266.341)" fill="#fff"/>
        <rect id="Rectangle_3210" data-name="Rectangle 3210" width="1.504" height="2.376" transform="translate(120.725 5.988)" fill="#fff"/>
        <path id="Path_141" data-name="Path 141" d="M1036.081,272.329v2.376h-1.828v0h2.3c2.929,1.517,4.393,3.558,4.393,5.889,0,.685-.295,1.057-.885,2.056q-.973,1.665-1.946,1.665a4.774,4.774,0,0,1-2.589-1.415v3.825a6.314,6.314,0,0,0,2.932,1.11,4.241,4.241,0,0,0,3.516-1.915q.828-1.609,1.685-3.219c.926-1.535,1.644-2.509,2.295-2.509a1.171,1.171,0,0,1,1.035.39,1.761,1.761,0,0,1,.413,1.127v7.793h3.2v-14.8h1.428v-2.38ZM1047.4,278.1a2.358,2.358,0,0,0-1.748-.722,3.461,3.461,0,0,0-2.251.971,7.682,7.682,0,0,0-2.222-3.642h6.221Z" transform="translate(-896.545 -266.341)" fill="#fff"/>
        <path id="Path_142" data-name="Path 142" d="M1036.024,274.705v-2.376h-1.858v2.38h.03v0Z" transform="translate(-896.487 -266.341)" fill="#fff"/>
        <path id="Path_143" data-name="Path 143" d="M948.017,260.635c-.058-.435-.113-.948-.17-1.366-.078-.563-.125-1.132-.244-1.685a3.119,3.119,0,0,0-1.113-1.736,4.968,4.968,0,0,0-2.343-1.021,13.175,13.175,0,0,0-3.129-.152,8.926,8.926,0,0,0-2.158.485c-.938.289-1.868.606-2.808.887a8.324,8.324,0,0,1-2.61.37,4.243,4.243,0,0,1-2.212-.573c-.007,0-.019,0-.052,0,0,.343,0,.686,0,1.03,0,.43.01,1.487.005,1.918a.177.177,0,0,0,.135.195,4.864,4.864,0,0,0,2,.33,10.61,10.61,0,0,0,3.053-.663c.589-.2,1.178-.408,1.753-.646a8.083,8.083,0,0,1,2.06-.543,6.7,6.7,0,0,1,2.068.02,2.886,2.886,0,0,1,2.42,2.538,4.907,4.907,0,0,1,.073.613h3.271Z" transform="translate(-828.374 -254.647)" fill="#fff"/>
        <path id="Path_144" data-name="Path 144" d="M710.228,263.02v-2.351h-45.6a3.648,3.648,0,0,1,1.444-3c1.5-.884,3.756.034,4.555.306a30.22,30.22,0,0,0,5.761,1.377c2.073.187,1.977-1.172,1.977-1.172v-2.487c-.771.7-3.512.816-4.781.612s-2.56-.68-5.574-1.45a7.385,7.385,0,0,0-6.232,1.45c-1.428,1.541-1.3,4.336-1.3,4.336H627.609V263h20.077v7.833a2.932,2.932,0,0,0-2.357-1.155,6.358,6.358,0,0,0-3.354-4.577c-5.506-2.4-7.546,1.473-7.863,2.561a5.214,5.214,0,0,0,0,2.357h3.716l.125.011.011-1.858c3.682-1.416,3.093,3.235,3.093,3.235a4.162,4.162,0,0,1-.661,1.337,3.667,3.667,0,0,1-2.609,1.343,5.167,5.167,0,0,1-3.847-.869,6.908,6.908,0,0,1-1.921-4.4,19.8,19.8,0,0,1-.1-2.809H627.9a12.247,12.247,0,0,0,2.253,8.147,10.6,10.6,0,0,0,1.614,1.743,6.137,6.137,0,0,0,2.078,1.136,9.474,9.474,0,0,0,6.636.131,8.781,8.781,0,0,0,3.653-2.817,9.995,9.995,0,0,0,.846-1.276c.032-.058.2-.513.266-.527a3.317,3.317,0,0,1,2.606.952v4.691h3.977V262.989h2.175v15.16h4.011V263.011h2.515v15.206h3.784V262.972H675.49v.544l-9.608,5.161,1.677,3.807c6.979-.68,7.659,5.644,7.659,5.644h4.045V266.456a3.1,3.1,0,0,1,2.26,1.071c1.156,2.039-.85,3.841-.85,3.841l3.6,1.632a5.108,5.108,0,0,0,.425-6.985c-1.6-1.954-5.609-2.583-5.609-2.583v-.423h17.335v.049s-1.411.867-2.719,3.824a4.2,4.2,0,0,0,1.1,5.272c1.394.918,4.147.136,4.147.136-1.428,3.5-5.235,1.9-5.507,1.819-3.178-1.9-2.022-9.47-2.022-9.47h-3.79c.007,0,0,1.277,0,1.354a23.331,23.331,0,0,0,.309,4.655,10.981,10.981,0,0,0,1.408,3.682,8.125,8.125,0,0,0,2.26,2.549c4.682,3.013,9.025-.51,9.025-.51a8.027,8.027,0,0,0,2.832-7.126l-3.716-.521c-1.122,1.512-2.022.917-2.022.917-.85-.663-.136-2.518-.136-2.518l1.886-2.68c1.541,3.648,6.368,2.9,6.368,2.9l.068.249c-4.032,6.146.928,10.042,1.3,10.5l3.444-1.9s-.983-1.136-2.229-2.587c-2.357-2.991,1.552-6.424,1.552-6.424l-2.226-2.4c-6.17,1.122-5.059-1.753-5.059-1.753Zm-34.92,9.033a5.73,5.73,0,0,0-3.49-1.892l3.49-2.64Z" transform="translate(-627.609 -254.65)" fill="#fff"/>
        <path id="Path_145" data-name="Path 145" d="M888.085,285.53a3.474,3.474,0,0,1-1.14-.48,1.222,1.222,0,0,1-.564-1.2,1.834,1.834,0,0,1,.908-1.117,3.376,3.376,0,0,1,1.774-.5,8.247,8.247,0,0,1,4.554,1.859q2.75,1.97,2.75,3.718v1.859h3.389V274.709h.09v-2.38H881.361l0,2.377a10.894,10.894,0,0,1,3.717.728c.177.084.356.163.529.254.323.17.64.352.945.553a7.643,7.643,0,0,1,.687.509,5.514,5.514,0,0,1,1.643,2.712,6,6,0,0,0-3.98,1.221,4.425,4.425,0,0,0-.267,6.764,5.122,5.122,0,0,0,3.455,1.29C888.087,287.668,888.106,286.6,888.085,285.53Zm8.283-2.546a11.886,11.886,0,0,0-4.049-3.052,6.384,6.384,0,0,0-3.269-5.223h7.318Z" transform="translate(-795.427 -266.341)" fill="#fff"/>
      </g>
      <g id="Group_137" data-name="Group 137" transform="translate(125.379 1996.305)">
        <path id="Path_146" data-name="Path 146" d="M680.122,365.678q-5.857-3.928-5.857-10.359,0-6.2,5.972-9.877l.413.758q-3.974,2.756-3.974,8.912a16.726,16.726,0,0,0,.712,5.444,9.77,9.77,0,0,0,3.285,4.387Z" transform="translate(-674.265 -342.939)" fill="#e1091b"/>
        <path id="Path_147" data-name="Path 147" d="M701.107,355.325v12.15l-1.585-1.833v-5.337a1.525,1.525,0,0,0-.541-.744,1.344,1.344,0,0,0-.841-.378,1.269,1.269,0,0,0-1.013.689q-1.911,2.871-2.51,2.986a3.52,3.52,0,0,1-.46.023,1.749,1.749,0,0,1-1.036-.23q-.622-.16-1.888-2.55l1.217-1.194a3.422,3.422,0,0,0,.276,1.1q.367.712.643.712t1.861-2.136q-.208-2.182-1.861-2.251a7.15,7.15,0,0,1-1.378-.137,2.135,2.135,0,0,1-1.034-.9l-.3-.161-1.469-1.424h13.436l1.607,1.608Zm-1.585,0H695.2a2.811,2.811,0,0,1,1.057,2.274v.023a3.8,3.8,0,0,1,1.263-.689q.758,0,2,1.561Z" transform="translate(-684.134 -348.411)" fill="#e1091b"/>
        <path id="Path_148" data-name="Path 148" d="M734.088,355.325v12.38l-1.034-1.493a6.5,6.5,0,0,0-5.81-4.5l-1.678-2.366a24.155,24.155,0,0,1,3.032-1.952,29.543,29.543,0,0,1,3.905-1.677v-.391h-7.281l-1.585-1.608H735.65l1.585,1.608Zm-1.584,2.71a20.71,20.71,0,0,0-3.722,1.929A9.625,9.625,0,0,1,732.5,363Z" transform="translate(-706.917 -348.411)" fill="#e1091b"/>
        <path id="Path_149" data-name="Path 149" d="M755.961,350.4q-.138-1.607-.137-3.538l.887.735a5.584,5.584,0,0,0,.318,1.241c.061.091.145.207.251.344h1.707l1.592,1.608h-3.193v12.426l-1.561-1.7v-8.689a1.849,1.849,0,0,0-.275-1.077,1.965,1.965,0,0,0-1.654-.963h-.367l-1.608-1.562a10.315,10.315,0,0,1,2.343-.046A2.266,2.266,0,0,1,755.961,350.4Z" transform="translate(-725.622 -343.881)" fill="#e1091b"/>
        <path id="Path_150" data-name="Path 150" d="M777.717,355.325v11.943l-.851-.8q-1.125-2.044-1.24-2.228a5.574,5.574,0,0,0-1.837-1.746,6.232,6.232,0,0,0-2.895-.9l-1.7-2.319a24.6,24.6,0,0,1,6.891-3.583v-.367h-6.872l-1.626-1.608h11.506l1.631,1.608Zm-4.594,10.7a1.385,1.385,0,0,1-1.045-.448,1.444,1.444,0,0,1-.424-1.022,1.322,1.322,0,0,1,.39-.954,1.267,1.267,0,0,1,.942-.4,1.512,1.512,0,0,1,1.424,1.125,1.392,1.392,0,0,1-.253,1.16A1.217,1.217,0,0,1,773.123,366.029Zm2.963-8.154a15.168,15.168,0,0,0-3.744,1.975,8.375,8.375,0,0,1,3.744,3.169Z" transform="translate(-735.985 -348.411)" fill="#e1091b"/>
        <path id="Path_151" data-name="Path 151" d="M824.137,358.426a2.513,2.513,0,0,1,.735.666,4.149,4.149,0,0,1,1.057,2.6,3.429,3.429,0,0,1-.115.873,3.589,3.589,0,0,1-1.217,1.815,3.17,3.17,0,0,1-2.021.689,4.54,4.54,0,0,1-3.652-2.021,8.443,8.443,0,0,1-1.217-2.5,17.049,17.049,0,0,1-.459-4.869,5.678,5.678,0,0,1,1.1.643,6.773,6.773,0,0,0,.184,2.182,12.71,12.71,0,0,0,.5,1.677,5.121,5.121,0,0,0,1.286,1.722,2.718,2.718,0,0,0,1.952.8,5.182,5.182,0,0,0,1.469-.322q.92-.39.919-1.034a1.2,1.2,0,0,0-.1-.471c-.069-.16-.165-.241-.287-.241a.534.534,0,0,0-.184.046,4.961,4.961,0,0,1-1.906.505,2.882,2.882,0,0,1-1.263-.3,3.409,3.409,0,0,1-1.539-2.159,4.219,4.219,0,0,1-.069-.735,4.063,4.063,0,0,1,1.08-2.388q.092-.092.252-.276h-4.111l-1.608-1.608h15.412l1.584,1.608h-7.648a3.869,3.869,0,0,0-.62.345.25.25,0,0,0-.092.161q0,.368.987.666a3.954,3.954,0,0,0,1.47.252,12.672,12.672,0,0,0,2.16-.574q.826.826,1.975,2.021a6.637,6.637,0,0,0-1.263,1.769,4.8,4.8,0,0,0-.621,2.044,9.186,9.186,0,0,0-.115,1.355,8.769,8.769,0,0,0,.919,3.331.564.564,0,0,1-.344.207,2.35,2.35,0,0,1-.712-.161c-.352-.107-.551-.214-.6-.322q-.275-1.171-.551-2.343a10.677,10.677,0,0,1-.344-2.366,9.357,9.357,0,0,1,.62-3.146,9.261,9.261,0,0,1-2.3-.39,3.778,3.778,0,0,1-1.953-1.057q-.068-.114-.62-.8-.367.069-.953,1.034a3.279,3.279,0,0,0-.586,1.4c0,.367.207.551.62.551a6.235,6.235,0,0,0,1.816-.735,5.434,5.434,0,0,1,.642-.276.469.469,0,0,1,.345.137Z" transform="translate(-767.292 -348.411)" fill="#e1091b"/>
        <path id="Path_152" data-name="Path 152" d="M860.325,359.3a3.374,3.374,0,0,1,.528,1.057,3.176,3.176,0,0,1,.045.528,1.538,1.538,0,0,1-.482,1.183,1.849,1.849,0,0,1-1.31.448A2.132,2.132,0,0,1,856.7,360.1a2.622,2.622,0,0,1,.881-2.021,3.032,3.032,0,0,1,2.117-.8q2.221,0,3.777,2.756l.138.253v-4.961h-7.675l-1.6-1.608h12.495l1.677,1.608h-3.261v12.449l-.874-1.194v-.391a8.549,8.549,0,0,0-.436-2.32,11.739,11.739,0,0,0-.77-2.17,5.286,5.286,0,0,0-1.137-1.527A2.855,2.855,0,0,0,860.325,359.3Z" transform="translate(-793.352 -348.411)" fill="#e1091b"/>
        <path id="Path_153" data-name="Path 153" d="M892.262,355.233a2.043,2.043,0,0,0-1.194.368,1.5,1.5,0,0,0-.643,1.01,10.981,10.981,0,0,0,.23,3.4,27.975,27.975,0,0,1,.482,3.33,3.77,3.77,0,0,1-2.068,3.307,3.15,3.15,0,0,1-1.515.62.739.739,0,0,1-.759-.574.419.419,0,0,1-.045-.184q0-.3.5-.46c.445-.138.681-.214.712-.23a4.757,4.757,0,0,0,.85-.758,3.234,3.234,0,0,0,.368-1.424,8.222,8.222,0,0,0-.39-2.09,11.674,11.674,0,0,1-.46-2.641,5.026,5.026,0,0,1,.667-2.435q.413-.574.827-1.149h-2.871l-1.631-1.608h7.488l1.7,1.608Q893.617,355.234,892.262,355.233Z" transform="translate(-813.851 -348.411)" fill="#e1091b"/>
        <path id="Path_154" data-name="Path 154" d="M933.742,351.63l-.115-1.538q-.092-1.24-.092-3.767l1.194,1.172a1.347,1.347,0,0,0,.092,1.171c.031.062.144.115.345.161q.758-.022,1.584,0l1.607,1.608h-3.306V362.77l-1.769-1.86.092-6.294a4.041,4.041,0,0,0-.552-1.826,4.353,4.353,0,0,0-1.217-1.528,2.24,2.24,0,0,0-1.309-.482,2.348,2.348,0,0,0-2.159,1.125,3.985,3.985,0,0,1,.781-.069,2.2,2.2,0,0,1,2.5,2.044q.185,1.447-2.342,4.157l-1.654-1.86q.528-.482,1.4-1.379,1.08-1.147,1.081-1.4,0-.276-.391-.276a4.16,4.16,0,0,0-1.033.482,3.194,3.194,0,0,1-1.218.483.865.865,0,0,1-.505-.161,1.91,1.91,0,0,1-1.01-1.7,3.1,3.1,0,0,1,.493-1.584,3.369,3.369,0,0,1,1.161-1.218,3.78,3.78,0,0,1,1.906-.459Q932.8,348.966,933.742,351.63Z" transform="translate(-840.585 -343.522)" fill="#e1091b"/>
        <path id="Path_155" data-name="Path 155" d="M955.087,350.4q-.138-1.607-.138-3.538l.887.735a5.562,5.562,0,0,0,.318,1.241c.06.091.144.207.25.344h1.706l1.593,1.608h-3.193v12.426l-1.562-1.7v-8.689a1.844,1.844,0,0,0-.275-1.077,1.965,1.965,0,0,0-1.654-.963h-.368l-1.608-1.562a10.315,10.315,0,0,1,2.343-.046A2.265,2.265,0,0,1,955.087,350.4Z" transform="translate(-857.315 -343.881)" fill="#e1091b"/>
        <path id="Path_156" data-name="Path 156" d="M977.975,341.059a6.259,6.259,0,0,0-3.881-1.286,4.845,4.845,0,0,0-2.618.942,8.157,8.157,0,0,0-.759.918q-.505.689-.482.9l.391.826h2.067l1.608,1.608h-3.216v11.943l-1.631-1.562V344.963H967.9l-1.6-1.608h2.985q-.3-.3-.586-.631a1.116,1.116,0,0,1-.287-.747,2.291,2.291,0,0,1,.252-1.08,7.7,7.7,0,0,1,1.171-1.527,6.32,6.32,0,0,1,1.609-1,3.6,3.6,0,0,1,1.584-.322,9.319,9.319,0,0,1,4.847,1.585,13.287,13.287,0,0,1,2.136,1.86l.506,1.493Z" transform="translate(-867.409 -338.05)" fill="#e1091b"/>
        <path id="Path_157" data-name="Path 157" d="M987.18,355.325v3.767q-.023.344.068.368a4.162,4.162,0,0,0,1.922-1.47q1.005-1.194,1.166-1.194a.476.476,0,0,1,.366.184,5.192,5.192,0,0,1,1.9,4.111,4.7,4.7,0,0,1-1.884,4.112,4.843,4.843,0,0,1-6.064-.64,10.263,10.263,0,0,1-1.929-3.346,15.7,15.7,0,0,1-.942-3.736q0-.069-.206-2.154l1.194.641a12.373,12.373,0,0,0,.8,3.55q1.511,3.825,4.26,3.825a3.64,3.64,0,0,0,1.66-.425,3.006,3.006,0,0,0,1.661-2.4,1.828,1.828,0,0,0-.3-.964,9.945,9.945,0,0,1-1.738,1.516,2.428,2.428,0,0,1-1.465.551q-1.485,0-1.99-1.884a6.22,6.22,0,0,1-.068-1.148v-3.261h-4.432l-1.631-1.608h13.85l1.631,1.608Zm2.09,13.391a1.414,1.414,0,0,1-1.333.9,1.575,1.575,0,0,1-1.148-.425,1.513,1.513,0,0,1-.437-1.137,1.686,1.686,0,0,1,.447-1.149,1.407,1.407,0,0,1,1.091-.505,1.459,1.459,0,0,1,1.562,1.516A1.874,1.874,0,0,1,989.27,368.716Z" transform="translate(-876.154 -348.411)" fill="#e1091b"/>
        <path id="Path_158" data-name="Path 158" d="M1026,361.567a12.77,12.77,0,0,1-4.387,4.157l-.413-.758q3.973-2.756,3.974-8.889a17.51,17.51,0,0,0-.688-5.467,8.587,8.587,0,0,0-3.308-4.386l.527-.712a9.355,9.355,0,0,1,3.721,3.468,12.492,12.492,0,0,1,2.16,7.029A10.4,10.4,0,0,1,1026,361.567Z" transform="translate(-903.695 -342.985)" fill="#e1091b"/>
      </g>
      <g id="Group_209" data-name="Group 209" transform="translate(10.547 1943.053)">
        <path id="Path_159" data-name="Path 159" d="M375.687,180.8l20.256,33.508L416.192,247.8H335.175l20.249-33.487Z" transform="translate(-335.175 -180.802)" fill="#fff"/>
        <path id="Path_160" data-name="Path 160" d="M384.243,193.561l-36.02,59.972h72.042Z" transform="translate(-343.805 -189.24)" fill="#004a98"/>
        <path id="Path_161" data-name="Path 161" d="M391.588,284.836a17.826,17.826,0,0,1,9.354-2.1c.557-11.759,11.674-12.474,11.674-12.474a12.931,12.931,0,0,1,10,3.939c4.606,4.6,2.924,11.312,2.924,11.312h17.912l-18.19-30.226-5.65,9.706s-20.46-2.765-28.025,19.842" transform="translate(-372.484 -230.064)" fill="#fff"/>
        <path id="Path_162" data-name="Path 162" d="M391.588,284.836a17.826,17.826,0,0,1,9.354-2.1c.557-11.759,11.674-12.474,11.674-12.474a12.931,12.931,0,0,1,10,3.939c4.606,4.6,2.924,11.312,2.924,11.312h17.912l-18.19-30.226-5.65,9.706S399.153,262.23,391.588,284.836Z" transform="translate(-372.484 -230.064)" fill="none" stroke="#1a1718" stroke-miterlimit="10" stroke-width="1.889"/>
        <line id="Line_23" data-name="Line 23" x2="5.17" y2="4.61" transform="translate(49.557 58.178)" fill="none" stroke="#fff" stroke-miterlimit="10" stroke-width="2.834"/>
        <line id="Line_24" data-name="Line 24" x2="5.171" y2="4.61" transform="translate(46.94 58.178)" fill="none" stroke="#fff" stroke-miterlimit="10" stroke-width="2.834"/>
        <line id="Line_25" data-name="Line 25" x2="5.162" y2="4.61" transform="translate(44.325 58.178)" fill="none" stroke="#fff" stroke-miterlimit="10" stroke-width="2.834"/>
        <line id="Line_26" data-name="Line 26" x2="5.162" y2="4.61" transform="translate(41.715 58.178)" fill="none" stroke="#fff" stroke-miterlimit="10" stroke-width="2.834"/>
        <line id="Line_27" data-name="Line 27" x2="5.17" y2="4.61" transform="translate(39.09 58.178)" fill="none" stroke="#fff" stroke-miterlimit="10" stroke-width="2.834"/>
        <line id="Line_28" data-name="Line 28" x2="5.162" y2="4.61" transform="translate(36.478 58.178)" fill="none" stroke="#fff" stroke-miterlimit="10" stroke-width="2.834"/>
        <line id="Line_29" data-name="Line 29" x2="5.178" y2="4.61" transform="translate(33.853 58.178)" fill="none" stroke="#fff" stroke-miterlimit="10" stroke-width="2.834"/>
        <line id="Line_30" data-name="Line 30" x2="5.168" y2="4.61" transform="translate(31.237 58.178)" fill="none" stroke="#fff" stroke-miterlimit="10" stroke-width="2.834"/>
        <line id="Line_31" data-name="Line 31" x2="5.167" y2="4.61" transform="translate(28.62 58.178)" fill="none" stroke="#fff" stroke-miterlimit="10" stroke-width="2.834"/>
        <line id="Line_32" data-name="Line 32" x2="5.177" y2="4.61" transform="translate(25.993 58.178)" fill="none" stroke="#fff" stroke-miterlimit="10" stroke-width="2.834"/>
        <line id="Line_33" data-name="Line 33" x2="5.18" y2="4.61" transform="translate(23.363 58.178)" fill="none" stroke="#fff" stroke-miterlimit="10" stroke-width="2.834"/>
        <line id="Line_34" data-name="Line 34" x2="5.169" y2="4.61" transform="translate(20.745 58.178)" fill="none" stroke="#fff" stroke-miterlimit="10" stroke-width="2.834"/>
        <line id="Line_35" data-name="Line 35" x2="5.169" y2="4.61" transform="translate(18.125 58.178)" fill="none" stroke="#fff" stroke-miterlimit="10" stroke-width="2.834"/>
        <line id="Line_36" data-name="Line 36" x2="5.168" y2="4.61" transform="translate(15.51 58.178)" fill="none" stroke="#fff" stroke-miterlimit="10" stroke-width="2.834"/>
        <line id="Line_37" data-name="Line 37" x2="5.172" y2="4.61" transform="translate(12.891 58.178)" fill="none" stroke="#fff" stroke-miterlimit="10" stroke-width="2.834"/>
        <line id="Line_38" data-name="Line 38" x2="5.166" y2="4.61" transform="translate(10.282 58.178)" fill="none" stroke="#fff" stroke-miterlimit="10" stroke-width="2.834"/>
        <g id="Group_139" data-name="Group 139" transform="translate(31.378 42.303)">
          <g id="Group_138" data-name="Group 138" clip-path="url(#clip-path)">
            <path id="Path_163" data-name="Path 163" d="M403.089,309.242l9.988-25.518,26.49,10.137-9.981,25.527Z" transform="translate(-411.468 -291.172)" fill="url(#radial-gradient)"/>
          </g>
        </g>
        <path id="Path_164" data-name="Path 164" d="M447.3,318.317a5.755,5.755,0,0,1,3.339,7.47,5.851,5.851,0,0,1-7.558,3.31,5.756,5.756,0,0,1-3.337-7.47,5.868,5.868,0,0,1,7.555-3.31" transform="translate(-404.073 -271.492)" fill="#fff"/>
        <g id="Group_208" data-name="Group 208" transform="translate(35.065 46.17)">
          <g id="Group_207" data-name="Group 207">
            <g id="Group_206" data-name="Group 206" clip-path="url(#clip-path-2)">
              <g id="Group_142" data-name="Group 142" opacity="0">
                <g id="Group_141" data-name="Group 141">
                  <g id="Group_140" data-name="Group 140" clip-path="url(#clip-path-2)">
                    <path id="Path_165" data-name="Path 165" d="M443.837,323.239a2.141,2.141,0,0,1-2.291-1.893,4.572,4.572,0,0,1,1.408-4.063c-2.052,1.656-2.521,5.281-.01,6.835a2.39,2.39,0,0,0,1.592.189,1.538,1.538,0,0,1-1.195,1.118,3,3,0,0,1-2.454-.466,5.725,5.725,0,0,1-2.009-2.924,5.308,5.308,0,0,0,2.144,3.3,3.1,3.1,0,0,0,4.769-1.072,2.319,2.319,0,0,1,.36,1.67c-.757,2.071-3.13,2.521-5.054,2.11,2.155.708,5,.04,5.712-2.483a2.491,2.491,0,0,0-.465-2.4,2.029,2.029,0,0,1,2.021,1.146,4.357,4.357,0,0,1-1.13,4.808,4.574,4.574,0,0,0,1.21-5.523,2.889,2.889,0,0,0-2.785-1.5,1.548,1.548,0,0,1,1.192-1.128c2.089-.384,3.883,1.265,4.458,3.4a5.657,5.657,0,0,0-3.163-3.785,3.009,3.009,0,0,0-3.741,1.556,1.657,1.657,0,0,1-.026-2.255,4.442,4.442,0,0,1,4.715-1.535,4.465,4.465,0,0,0-5.807,2.569A2.718,2.718,0,0,0,443.837,323.239Z" transform="translate(-438.824 -317.234)" fill="none" stroke="#5b5c5e" stroke-width="1.171"/>
                  </g>
                </g>
              </g>
              <g id="Group_145" data-name="Group 145" transform="translate(0.105 0.012)" opacity="0.048">
                <g id="Group_144" data-name="Group 144">
                  <g id="Group_143" data-name="Group 143" clip-path="url(#clip-path-4)">
                    <path id="Path_166" data-name="Path 166" d="M444.069,323.234a2.085,2.085,0,0,1-2.214-1.915,4.408,4.408,0,0,1,1.5-3.981c-2.071,1.575-2.709,5.3-.2,6.746a2.317,2.317,0,0,0,1.568.235,1.477,1.477,0,0,1-1.207,1.071,2.741,2.741,0,0,1-2.41-.538,5.5,5.5,0,0,1-1.9-2.94,4.964,4.964,0,0,0,2.023,3.322,3.022,3.022,0,0,0,4.726-.915,2.077,2.077,0,0,1,.317,1.649c-.693,2.066-3.156,2.4-5.043,1.943,2.111.747,4.909.168,5.7-2.3a2.518,2.518,0,0,0-.388-2.378,1.986,1.986,0,0,1,1.966,1.176,4.189,4.189,0,0,1-1.258,4.722,4.394,4.394,0,0,0,1.349-5.413,2.767,2.767,0,0,0-2.709-1.561,1.518,1.518,0,0,1,1.206-1.074c2.065-.352,3.8,1.351,4.3,3.473a5.377,5.377,0,0,0-3.02-3.818,2.917,2.917,0,0,0-3.731,1.419,1.634,1.634,0,0,1,.03-2.222,4.417,4.417,0,0,1,4.7-1.372c-2.193-.846-5.066-.035-5.8,2.388A2.532,2.532,0,0,0,444.069,323.234Z" transform="translate(-439.149 -317.282)" fill="none" stroke="#5b5c5e" stroke-linecap="square" stroke-miterlimit="4.286" stroke-width="1.171"/>
                  </g>
                </g>
              </g>
              <g id="Group_148" data-name="Group 148" transform="translate(0.212 0.049)" opacity="0.095">
                <g id="Group_147" data-name="Group 147">
                  <g id="Group_146" data-name="Group 146" clip-path="url(#clip-path-5)">
                    <path id="Path_167" data-name="Path 167" d="M444.284,323.245a2.074,2.074,0,0,1-2.143-1.955,4.4,4.4,0,0,1,1.594-3.883c-2.081,1.5-2.816,5.153-.377,6.653a2.17,2.17,0,0,0,1.531.263,1.428,1.428,0,0,1-1.214,1.039,2.779,2.779,0,0,1-2.365-.592,5.547,5.547,0,0,1-1.793-2.951,4.954,4.954,0,0,0,1.9,3.329,2.987,2.987,0,0,0,4.7-.782,2.083,2.083,0,0,1,.263,1.637c-.737,2.038-3.179,2.283-5.027,1.782,2.057.794,4.836.3,5.692-2.1a2.5,2.5,0,0,0-.316-2.364,1.938,1.938,0,0,1,1.906,1.207,4.132,4.132,0,0,1-1.37,4.633,4.327,4.327,0,0,0,1.479-5.313,2.73,2.73,0,0,0-2.627-1.61,1.5,1.5,0,0,1,1.219-1.029c2.058-.291,3.711,1.437,4.154,3.554a5.272,5.272,0,0,0-2.874-3.846,2.866,2.866,0,0,0-3.725,1.286,1.609,1.609,0,0,1,.1-2.192,4.353,4.353,0,0,1,4.669-1.227c-2.133-.9-4.994-.184-5.8,2.194A2.485,2.485,0,0,0,444.284,323.245Z" transform="translate(-439.459 -317.365)" fill="none" stroke="#5b5c5e" stroke-linecap="square" stroke-miterlimit="4.571" stroke-width="1.163"/>
                  </g>
                </g>
              </g>
              <g id="Group_151" data-name="Group 151" transform="translate(0.325 0.063)" opacity="0.143">
                <g id="Group_150" data-name="Group 150">
                  <g id="Group_149" data-name="Group 149" clip-path="url(#clip-path-6)">
                    <path id="Path_168" data-name="Path 168" d="M444.5,323.276a2.042,2.042,0,0,1-2.051-2,4.321,4.321,0,0,1,1.683-3.79c-2.1,1.414-2.926,5.017-.566,6.564a2.2,2.2,0,0,0,1.506.31,1.4,1.4,0,0,1-1.233.971,2.672,2.672,0,0,1-2.316-.643,5.5,5.5,0,0,1-1.683-2.977,4.9,4.9,0,0,0,1.785,3.354,2.952,2.952,0,0,0,4.661-.641,2.1,2.1,0,0,1,.218,1.628c-.793,1.98-3.213,2.162-5.033,1.61,2.021.853,4.769.436,5.691-1.908a2.456,2.456,0,0,0-.248-2.341,1.911,1.911,0,0,1,1.85,1.246,4.088,4.088,0,0,1-1.479,4.537A4.282,4.282,0,0,0,448.9,324a2.686,2.686,0,0,0-2.55-1.663,1.459,1.459,0,0,1,1.23-.993c2.038-.23,3.623,1.54,4,3.632a5.234,5.234,0,0,0-2.724-3.888,2.854,2.854,0,0,0-3.72,1.17,1.583,1.583,0,0,1,.158-2.157,4.267,4.267,0,0,1,4.649-1.076c-2.079-.95-4.93-.333-5.788,1.994A2.5,2.5,0,0,0,444.5,323.276Z" transform="translate(-439.786 -317.434)" fill="none" stroke="#5b5c5e" stroke-linecap="square" stroke-miterlimit="4.857" stroke-width="1.163"/>
                  </g>
                </g>
              </g>
              <g id="Group_154" data-name="Group 154" transform="translate(0.43 0.089)" opacity="0.191">
                <g id="Group_153" data-name="Group 153">
                  <g id="Group_152" data-name="Group 152" clip-path="url(#clip-path-7)">
                    <path id="Path_169" data-name="Path 169" d="M444.718,323.288a2.024,2.024,0,0,1-1.968-2.036,4.283,4.283,0,0,1,1.776-3.7c-2.117,1.344-3.049,4.859-.751,6.464a2.156,2.156,0,0,0,1.478.356,1.407,1.407,0,0,1-1.249.936,2.689,2.689,0,0,1-2.273-.713,5.408,5.408,0,0,1-1.577-2.984,4.851,4.851,0,0,0,1.665,3.362,2.933,2.933,0,0,0,4.63-.489,2.007,2.007,0,0,1,.163,1.6c-.839,1.938-3.241,2.05-5.022,1.447,1.974.9,4.7.575,5.689-1.726a2.411,2.411,0,0,0-.179-2.309,1.876,1.876,0,0,1,1.79,1.293,4.048,4.048,0,0,1-1.6,4.44,4.24,4.24,0,0,0,1.75-5.094,2.67,2.67,0,0,0-2.476-1.731,1.45,1.45,0,0,1,1.25-.932c2.022-.179,3.542,1.621,3.849,3.706a5.183,5.183,0,0,0-2.585-3.927,2.814,2.814,0,0,0-3.713,1.046,1.591,1.591,0,0,1,.219-2.141,4.315,4.315,0,0,1,4.643-.923c-2.038-.992-4.874-.459-5.794,1.8A2.515,2.515,0,0,0,444.718,323.288Z" transform="translate(-440.098 -317.5)" fill="none" stroke="#5b5c5e" stroke-linecap="square" stroke-miterlimit="5.143" stroke-width="1.163"/>
                  </g>
                </g>
              </g>
              <g id="Group_157" data-name="Group 157" transform="translate(0.541 0.103)" opacity="0.238">
                <g id="Group_156" data-name="Group 156">
                  <g id="Group_155" data-name="Group 155" clip-path="url(#clip-path-8)">
                    <path id="Path_170" data-name="Path 170" d="M444.937,323.306a2,2,0,0,1-1.892-2.064,4.228,4.228,0,0,1,1.871-3.608c-2.133,1.263-3.157,4.708-.941,6.364a2.012,2.012,0,0,0,1.462.4,1.394,1.394,0,0,1-1.274.892,2.651,2.651,0,0,1-2.221-.773,5.383,5.383,0,0,1-1.469-3,4.741,4.741,0,0,0,1.545,3.368,2.87,2.87,0,0,0,4.591-.34,2.006,2.006,0,0,1,.118,1.6c-.9,1.889-3.265,1.924-5.011,1.281,1.922.955,4.642.706,5.68-1.535a2.415,2.415,0,0,0-.106-2.3,1.881,1.881,0,0,1,1.731,1.346,3.979,3.979,0,0,1-1.722,4.337,4.185,4.185,0,0,0,1.891-4.987,2.64,2.64,0,0,0-2.4-1.784,1.408,1.408,0,0,1,1.267-.88c2-.11,3.45,1.7,3.693,3.783a5.167,5.167,0,0,0-2.438-3.974,2.788,2.788,0,0,0-3.7.93,1.553,1.553,0,0,1,.283-2.1,4.2,4.2,0,0,1,4.608-.778c-1.976-1.049-4.8-.617-5.771,1.6A2.447,2.447,0,0,0,444.937,323.306Z" transform="translate(-440.419 -317.569)" fill="none" stroke="#5b5c5e" stroke-linecap="square" stroke-miterlimit="5.429" stroke-width="1.153"/>
                  </g>
                </g>
              </g>
              <g id="Group_160" data-name="Group 160" transform="translate(0.636 0.14)" opacity="0.286">
                <g id="Group_159" data-name="Group 159">
                  <g id="Group_158" data-name="Group 158" clip-path="url(#clip-path-9)">
                    <path id="Path_171" data-name="Path 171" d="M445.14,323.326a1.988,1.988,0,0,1-1.8-2.115A4.155,4.155,0,0,1,445.3,317.7c-2.161,1.181-3.273,4.58-1.131,6.285a2.178,2.178,0,0,0,1.428.438,1.4,1.4,0,0,1-1.271.839,2.667,2.667,0,0,1-2.191-.839,5.3,5.3,0,0,1-1.367-3.03,4.79,4.79,0,0,0,1.433,3.4,2.863,2.863,0,0,0,4.56-.2,2.006,2.006,0,0,1,.062,1.593c-.942,1.838-3.29,1.8-5,1.109,1.873,1,4.568.841,5.666-1.344a2.361,2.361,0,0,0-.033-2.276,1.857,1.857,0,0,1,1.678,1.377A3.962,3.962,0,0,1,447.3,329.3a4.18,4.18,0,0,0,2.018-4.9,2.632,2.632,0,0,0-2.32-1.826,1.419,1.419,0,0,1,1.282-.839c1.984-.046,3.366,1.8,3.543,3.86a5.078,5.078,0,0,0-2.292-4,2.767,2.767,0,0,0-3.7.8,1.538,1.538,0,0,1,.346-2.073,4.144,4.144,0,0,1,4.591-.615c-1.932-1.1-4.737-.769-5.775,1.4A2.427,2.427,0,0,0,445.14,323.326Z" transform="translate(-440.709 -317.652)" fill="none" stroke="#5b5c5e" stroke-linecap="square" stroke-miterlimit="5.714" stroke-width="1.153"/>
                  </g>
                </g>
              </g>
              <g id="Group_163" data-name="Group 163" transform="translate(0.736 0.154)" opacity="0.333">
                <g id="Group_162" data-name="Group 162">
                  <g id="Group_161" data-name="Group 161" clip-path="url(#clip-path-10)">
                    <path id="Path_172" data-name="Path 172" d="M445.343,323.339a1.974,1.974,0,0,1-1.72-2.157,4.127,4.127,0,0,1,2.053-3.41c-2.175,1.106-3.386,4.428-1.315,6.194a2.141,2.141,0,0,0,1.4.475,1.361,1.361,0,0,1-1.292.789,2.632,2.632,0,0,1-2.137-.9,5.23,5.23,0,0,1-1.258-3.04,4.7,4.7,0,0,0,1.312,3.413,2.836,2.836,0,0,0,4.522-.053,1.915,1.915,0,0,1,.013,1.565c-.99,1.81-3.316,1.686-4.981.955,1.818,1.048,4.5.981,5.657-1.16a2.364,2.364,0,0,0,.04-2.26,1.853,1.853,0,0,1,1.62,1.421,3.935,3.935,0,0,1-1.958,4.151,4.105,4.105,0,0,0,2.156-4.773,2.583,2.583,0,0,0-2.241-1.891,1.378,1.378,0,0,1,1.3-.8c1.968.1,3.282,1.889,3.4,3.939a5.071,5.071,0,0,0-2.147-4.039,2.735,2.735,0,0,0-3.688.683,1.529,1.529,0,0,1,.405-2.047,4.128,4.128,0,0,1,4.57-.464c-1.882-1.165-4.671-.908-5.764,1.2A2.4,2.4,0,0,0,445.343,323.339Z" transform="translate(-441.006 -317.711)" fill="none" stroke="#5b5c5e" stroke-linecap="square" stroke-miterlimit="6" stroke-width="1.142"/>
                  </g>
                </g>
              </g>
              <g id="Group_166" data-name="Group 166" transform="translate(0.832 0.182)" opacity="0.381">
                <g id="Group_165" data-name="Group 165">
                  <g id="Group_164" data-name="Group 164" clip-path="url(#clip-path-11)">
                    <path id="Path_173" data-name="Path 173" d="M445.533,323.351a1.95,1.95,0,0,1-1.643-2.183,4.1,4.1,0,0,1,2.151-3.315c-2.193,1.025-3.5,4.272-1.5,6.1a2.152,2.152,0,0,0,1.378.522,1.371,1.371,0,0,1-1.306.736,2.579,2.579,0,0,1-2.1-.95,5.338,5.338,0,0,1-1.155-3.061,4.671,4.671,0,0,0,1.2,3.422,2.808,2.808,0,0,0,4.484.093,1.931,1.931,0,0,1-.034,1.559c-1.042,1.756-3.346,1.566-4.974.778,1.774,1.1,4.434,1.123,5.648-.958a2.355,2.355,0,0,0,.11-2.24,1.836,1.836,0,0,1,1.564,1.463,3.885,3.885,0,0,1-2.07,4.042,4.071,4.071,0,0,0,2.289-4.661,2.58,2.58,0,0,0-2.161-1.945,1.406,1.406,0,0,1,1.305-.757c1.958.093,3.194,2,3.247,4.032a5,5,0,0,0-2.008-4.07,2.7,2.7,0,0,0-3.675.545,1.524,1.524,0,0,1,.46-2.02,4.124,4.124,0,0,1,4.553-.314c-1.824-1.214-4.61-1.051-5.752,1.008A2.355,2.355,0,0,0,445.533,323.351Z" transform="translate(-441.283 -317.793)" fill="none" stroke="#5b5c5e" stroke-linecap="square" stroke-miterlimit="6.286" stroke-width="1.142"/>
                  </g>
                </g>
              </g>
              <g id="Group_169" data-name="Group 169" transform="translate(0.932 0.205)" opacity="0.429">
                <g id="Group_168" data-name="Group 168">
                  <g id="Group_167" data-name="Group 167" clip-path="url(#clip-path-12)">
                    <path id="Path_174" data-name="Path 174" d="M445.727,323.367a1.953,1.953,0,0,1-1.559-2.236,4.085,4.085,0,0,1,2.243-3.229c-2.216.951-3.616,4.142-1.695,6.015a2.063,2.063,0,0,0,1.357.559,1.331,1.331,0,0,1-1.328.689,2.577,2.577,0,0,1-2.048-1.018,5.187,5.187,0,0,1-1.045-3.073,4.653,4.653,0,0,0,1.076,3.445,2.8,2.8,0,0,0,4.461.226,1.953,1.953,0,0,1-.093,1.556c-1.092,1.707-3.375,1.437-4.967.615,1.726,1.148,4.364,1.248,5.637-.78a2.291,2.291,0,0,0,.188-2.211,1.817,1.817,0,0,1,1.5,1.488,3.874,3.874,0,0,1-2.194,3.955,4.046,4.046,0,0,0,2.435-4.561,2.568,2.568,0,0,0-2.087-2,1.392,1.392,0,0,1,1.323-.7c1.944.135,3.113,2.078,3.091,4.091a5.036,5.036,0,0,0-1.855-4.118,2.7,2.7,0,0,0-3.672.443,1.5,1.5,0,0,1,.529-1.987,4.076,4.076,0,0,1,4.53-.17c-1.782-1.262-4.549-1.2-5.751.82A2.336,2.336,0,0,0,445.727,323.367Z" transform="translate(-441.565 -317.849)" fill="none" stroke="#5b5c5e" stroke-linecap="square" stroke-miterlimit="6.571" stroke-width="1.132"/>
                  </g>
                </g>
              </g>
              <g id="Group_172" data-name="Group 172" transform="translate(1.013 0.219)" opacity="0.476">
                <g id="Group_171" data-name="Group 171">
                  <g id="Group_170" data-name="Group 170" clip-path="url(#clip-path-13)">
                    <path id="Path_175" data-name="Path 175" d="M445.9,323.387a1.93,1.93,0,0,1-1.47-2.259,4.017,4.017,0,0,1,2.326-3.136c-2.221.876-3.72,3.99-1.869,5.912a2.077,2.077,0,0,0,1.323.6,1.345,1.345,0,0,1-1.341.655,2.613,2.613,0,0,1-2-1.083,5.173,5.173,0,0,1-.938-3.091,4.654,4.654,0,0,0,.953,3.459,2.793,2.793,0,0,0,4.425.385,1.9,1.9,0,0,1-.14,1.535c-1.135,1.656-3.4,1.316-4.963.438,1.687,1.2,4.3,1.388,5.644-.58a2.328,2.328,0,0,0,.253-2.2,1.817,1.817,0,0,1,1.443,1.542,3.826,3.826,0,0,1-2.3,3.864,4.043,4.043,0,0,0,2.561-4.458A2.559,2.559,0,0,0,447.8,322.9a1.358,1.358,0,0,1,1.335-.65c1.928.216,3.028,2.175,2.937,4.172a4.969,4.969,0,0,0-1.709-4.151,2.685,2.685,0,0,0-3.659.305,1.484,1.484,0,0,1,.584-1.955,4.076,4.076,0,0,1,4.507-.012c-1.719-1.314-4.482-1.337-5.745.617A2.353,2.353,0,0,0,445.9,323.387Z" transform="translate(-441.819 -317.922)" fill="none" stroke="#5b5c5e" stroke-linecap="square" stroke-miterlimit="6.857" stroke-width="1.132"/>
                  </g>
                </g>
              </g>
              <g id="Group_175" data-name="Group 175" transform="translate(1.094 0.245)" opacity="0.524">
                <g id="Group_174" data-name="Group 174">
                  <g id="Group_173" data-name="Group 173" clip-path="url(#clip-path-14)">
                    <path id="Path_176" data-name="Path 176" d="M446.074,323.4a1.934,1.934,0,0,1-1.4-2.3,4.016,4.016,0,0,1,2.424-3.047c-2.248.792-3.84,3.852-2.06,5.826a2.012,2.012,0,0,0,1.3.638,1.356,1.356,0,0,1-1.354.605,2.631,2.631,0,0,1-1.962-1.149,5.144,5.144,0,0,1-.832-3.1,4.567,4.567,0,0,0,.844,3.474,2.772,2.772,0,0,0,4.379.526,1.914,1.914,0,0,1-.187,1.528c-1.192,1.614-3.429,1.193-4.949.268,1.629,1.246,4.231,1.521,5.624-.391a2.317,2.317,0,0,0,.332-2.19,1.841,1.841,0,0,1,1.388,1.593,3.814,3.814,0,0,1-2.429,3.757,4,4,0,0,0,2.7-4.337,2.546,2.546,0,0,0-1.937-2.124,1.4,1.4,0,0,1,1.356-.6c1.914.266,2.938,2.25,2.794,4.251a4.971,4.971,0,0,0-1.567-4.183,2.691,2.691,0,0,0-3.662.172,1.485,1.485,0,0,1,.653-1.919,4.074,4.074,0,0,1,4.491.121c-1.67-1.356-4.414-1.475-5.737.442A2.334,2.334,0,0,0,446.074,323.4Z" transform="translate(-442.059 -317.989)" fill="none" stroke="#5b5c5e" stroke-linecap="square" stroke-miterlimit="7.143" stroke-width="1.124"/>
                  </g>
                </g>
              </g>
              <g id="Group_178" data-name="Group 178" transform="translate(1.175 0.275)" opacity="0.571">
                <g id="Group_177" data-name="Group 177">
                  <g id="Group_176" data-name="Group 176" clip-path="url(#clip-path-15)">
                    <path id="Path_177" data-name="Path 177" d="M446.237,323.4a1.926,1.926,0,0,1-1.317-2.339,4.045,4.045,0,0,1,2.52-2.949c-2.263.713-3.955,3.708-2.248,5.737a2.048,2.048,0,0,0,1.272.676,1.333,1.333,0,0,1-1.365.557,2.546,2.546,0,0,1-1.917-1.2,5.077,5.077,0,0,1-.721-3.121,4.6,4.6,0,0,0,.719,3.492,2.772,2.772,0,0,0,4.349.673,1.858,1.858,0,0,1-.235,1.507c-1.245,1.561-3.452,1.085-4.945.107,1.588,1.3,4.171,1.66,5.625-.194a2.29,2.29,0,0,0,.389-2.175,1.817,1.817,0,0,1,1.33,1.633,3.767,3.767,0,0,1-2.532,3.657A3.987,3.987,0,0,0,450,325.232a2.551,2.551,0,0,0-1.853-2.18,1.377,1.377,0,0,1,1.366-.552c1.894.333,2.845,2.357,2.633,4.328a4.9,4.9,0,0,0-1.421-4.216,2.674,2.674,0,0,0-3.653.049,1.491,1.491,0,0,1,.715-1.894,4.049,4.049,0,0,1,4.468.275c-1.619-1.4-4.347-1.614-5.733.252A2.286,2.286,0,0,0,446.237,323.4Z" transform="translate(-442.294 -318.06)" fill="none" stroke="#5b5c5e" stroke-linecap="square" stroke-miterlimit="7.429" stroke-width="1.124"/>
                  </g>
                </g>
              </g>
              <g id="Group_181" data-name="Group 181" transform="translate(1.109 0.289)" opacity="0.619">
                <g id="Group_180" data-name="Group 180">
                  <g id="Group_179" data-name="Group 179" clip-path="url(#clip-path-16)">
                    <path id="Path_178" data-name="Path 178" d="M446.078,323.423a1.908,1.908,0,0,1-1.233-2.366,4.017,4.017,0,0,1,2.616-2.865c-2.288.629-4.071,3.562-2.437,5.649a2.084,2.084,0,0,0,1.247.72,1.307,1.307,0,0,1-1.382.5,2.543,2.543,0,0,1-1.87-1.263,5.049,5.049,0,0,1-.619-3.138,4.587,4.587,0,0,0,.6,3.5,2.758,2.758,0,0,0,4.318.815,1.905,1.905,0,0,1-.289,1.507c-1.292,1.516-3.485.964-4.931-.065,1.54,1.351,4.095,1.8,5.609,0a2.276,2.276,0,0,0,.468-2.145,1.8,1.8,0,0,1,1.274,1.666A3.806,3.806,0,0,1,446.8,329.5a4.009,4.009,0,0,0,2.977-4.139,2.545,2.545,0,0,0-1.785-2.227,1.4,1.4,0,0,1,1.388-.51c1.876.392,2.763,2.432,2.477,4.41a4.913,4.913,0,0,0-1.273-4.258,2.666,2.666,0,0,0-3.647-.07,1.5,1.5,0,0,1,.778-1.871,4.037,4.037,0,0,1,4.447.443c-1.568-1.47-4.285-1.775-5.719.035A2.329,2.329,0,0,0,446.078,323.423Z" transform="translate(-442.065 -318.124)" fill="none" stroke="#5b5c5e" stroke-linecap="square" stroke-miterlimit="7.714" stroke-width="1.114"/>
                  </g>
                </g>
              </g>
              <g id="Group_184" data-name="Group 184" transform="translate(1.018 0.31)" opacity="0.667">
                <g id="Group_183" data-name="Group 183">
                  <g id="Group_182" data-name="Group 182" clip-path="url(#clip-path-17)">
                    <path id="Path_179" data-name="Path 179" d="M445.913,323.443a1.919,1.919,0,0,1-1.138-2.423,3.977,3.977,0,0,1,2.7-2.76c-2.31.552-4.189,3.417-2.627,5.549a2.08,2.08,0,0,0,1.226.766,1.314,1.314,0,0,1-1.4.459,2.541,2.541,0,0,1-1.825-1.33,5.1,5.1,0,0,1-.508-3.159,4.558,4.558,0,0,0,.486,3.529,2.754,2.754,0,0,0,4.278.953,1.881,1.881,0,0,1-.341,1.5c-1.337,1.472-3.51.841-4.918-.226,1.49,1.4,4.034,1.924,5.6.177a2.273,2.273,0,0,0,.537-2.127,1.809,1.809,0,0,1,1.224,1.7,3.793,3.793,0,0,1-2.778,3.478,3.969,3.969,0,0,0,3.105-4.016,2.555,2.555,0,0,0-1.694-2.3,1.414,1.414,0,0,1,1.4-.454c1.857.454,2.682,2.536,2.325,4.488a4.919,4.919,0,0,0-1.125-4.3,2.66,2.66,0,0,0-3.633-.191,1.465,1.465,0,0,1,.835-1.829,4.012,4.012,0,0,1,4.426.566c-1.516-1.51-4.221-1.9-5.721-.145A2.349,2.349,0,0,0,445.913,323.443Z" transform="translate(-441.807 -318.19)" fill="none" stroke="#5b5c5e" stroke-linecap="square" stroke-miterlimit="8" stroke-width="1.114"/>
                  </g>
                </g>
              </g>
              <g id="Group_187" data-name="Group 187" transform="translate(0.932 0.345)" opacity="0.714">
                <g id="Group_186" data-name="Group 186">
                  <g id="Group_185" data-name="Group 185" clip-path="url(#clip-path-18)">
                    <path id="Path_180" data-name="Path 180" d="M445.741,323.46a1.906,1.906,0,0,1-1.067-2.448,3.993,3.993,0,0,1,2.8-2.67c-2.318.47-4.292,3.273-2.806,5.46a2.071,2.071,0,0,0,1.2.806,1.343,1.343,0,0,1-1.415.408,2.583,2.583,0,0,1-1.78-1.391,5.114,5.114,0,0,1-.4-3.177,4.6,4.6,0,0,0,.365,3.534,2.75,2.75,0,0,0,4.244,1.107,1.852,1.852,0,0,1-.389,1.488c-1.38,1.421-3.531.722-4.916-.405,1.451,1.451,3.972,2.076,5.6.375a2.258,2.258,0,0,0,.61-2.108,1.814,1.814,0,0,1,1.162,1.744,3.778,3.778,0,0,1-2.881,3.385,3.983,3.983,0,0,0,3.236-3.918,2.519,2.519,0,0,0-1.624-2.341,1.374,1.374,0,0,1,1.415-.408c1.843.515,2.6,2.616,2.178,4.558a4.94,4.94,0,0,0-.981-4.339,2.672,2.672,0,0,0-3.632-.31,1.478,1.478,0,0,1,.9-1.8,4.025,4.025,0,0,1,4.406.727c-1.463-1.568-4.158-2.057-5.709-.345A2.329,2.329,0,0,0,445.741,323.46Z" transform="translate(-441.532 -318.28)" fill="none" stroke="#5b5c5e" stroke-linecap="square" stroke-miterlimit="8.286" stroke-width="1.106"/>
                  </g>
                </g>
              </g>
              <g id="Group_190" data-name="Group 190" transform="translate(0.842 0.375)" opacity="0.762">
                <g id="Group_189" data-name="Group 189">
                  <g id="Group_188" data-name="Group 188" clip-path="url(#clip-path-19)">
                    <path id="Path_181" data-name="Path 181" d="M445.59,323.475a1.934,1.934,0,0,1-.985-2.5A3.98,3.98,0,0,1,447.5,318.4c-2.343.4-4.415,3.122-3,5.365a2.027,2.027,0,0,0,1.169.853,1.3,1.3,0,0,1-1.427.356,2.541,2.541,0,0,1-1.738-1.439,5.109,5.109,0,0,1-.293-3.194,4.572,4.572,0,0,0,.241,3.548,2.762,2.762,0,0,0,4.218,1.249,1.958,1.958,0,0,1-.443,1.477c-1.437,1.367-3.566.587-4.9-.58,1.394,1.507,3.9,2.215,5.584.569a2.254,2.254,0,0,0,.686-2.08,1.8,1.8,0,0,1,1.1,1.782,3.819,3.819,0,0,1-3,3.292,3.99,3.99,0,0,0,3.368-3.813,2.526,2.526,0,0,0-1.534-2.4,1.36,1.36,0,0,1,1.425-.371c1.826.578,2.511,2.714,2.023,4.64a4.9,4.9,0,0,0-.839-4.368,2.659,2.659,0,0,0-3.618-.438,1.486,1.486,0,0,1,.966-1.782,4.055,4.055,0,0,1,4.381.88c-1.416-1.6-4.086-2.187-5.706-.531A2.331,2.331,0,0,0,445.59,323.475Z" transform="translate(-441.285 -318.351)" fill="none" stroke="#5b5c5e" stroke-linecap="square" stroke-miterlimit="8.571" stroke-width="1.106"/>
                  </g>
                </g>
              </g>
              <g id="Group_193" data-name="Group 193" transform="translate(0.757 0.389)" opacity="0.809">
                <g id="Group_192" data-name="Group 192">
                  <g id="Group_191" data-name="Group 191" clip-path="url(#clip-path-20)">
                    <path id="Path_182" data-name="Path 182" d="M445.43,323.474a1.927,1.927,0,0,1-.9-2.534,4.022,4.022,0,0,1,2.983-2.481c-2.358.322-4.526,2.984-3.185,5.283a2.066,2.066,0,0,0,1.145.887,1.345,1.345,0,0,1-1.447.312,2.592,2.592,0,0,1-1.687-1.512,5.054,5.054,0,0,1-.187-3.2,4.582,4.582,0,0,0,.126,3.555,2.768,2.768,0,0,0,4.181,1.4,1.905,1.905,0,0,1-.493,1.456c-1.485,1.326-3.585.478-4.893-.734,1.348,1.553,3.832,2.341,5.582.75a2.255,2.255,0,0,0,.753-2.059,1.8,1.8,0,0,1,1.046,1.829,3.815,3.815,0,0,1-3.125,3.189,4,4,0,0,0,3.515-3.708,2.578,2.578,0,0,0-1.468-2.462,1.373,1.373,0,0,1,1.446-.3c1.805.631,2.42,2.8,1.873,4.705a4.95,4.95,0,0,0-.7-4.407,2.684,2.684,0,0,0-3.615-.559,1.483,1.483,0,0,1,1.027-1.745,4.046,4.046,0,0,1,4.367,1.032c-1.364-1.663-4.023-2.338-5.7-.738A2.347,2.347,0,0,0,445.43,323.474Z" transform="translate(-441.032 -318.401)" fill="none" stroke="#5b5c5e" stroke-linecap="square" stroke-miterlimit="8.857" stroke-width="1.106"/>
                  </g>
                </g>
              </g>
              <g id="Group_196" data-name="Group 196" transform="translate(0.665 0.419)" opacity="0.857">
                <g id="Group_195" data-name="Group 195">
                  <g id="Group_194" data-name="Group 194" clip-path="url(#clip-path-21)">
                    <path id="Path_183" data-name="Path 183" d="M445.269,323.515a1.942,1.942,0,0,1-.828-2.567,4.043,4.043,0,0,1,3.083-2.385c-2.378.228-4.64,2.84-3.374,5.178a2.041,2.041,0,0,0,1.119.927,1.322,1.322,0,0,1-1.451.273,2.6,2.6,0,0,1-1.65-1.579,5.1,5.1,0,0,1-.077-3.219,4.583,4.583,0,0,0,0,3.585,2.782,2.782,0,0,0,4.139,1.547,1.862,1.862,0,0,1-.54,1.433c-1.527,1.29-3.608.359-4.88-.9,1.3,1.591,3.769,2.474,5.572.946a2.284,2.284,0,0,0,.822-2.055,1.825,1.825,0,0,1,.989,1.873,3.805,3.805,0,0,1-3.234,3.089,4.007,4.007,0,0,0,3.648-3.594,2.558,2.558,0,0,0-1.394-2.509,1.393,1.393,0,0,1,1.456-.273c1.807.71,2.339,2.893,1.732,4.8a4.98,4.98,0,0,0-.548-4.44,2.676,2.676,0,0,0-3.61-.687,1.491,1.491,0,0,1,1.081-1.724,4.09,4.09,0,0,1,4.344,1.19c-1.309-1.719-3.955-2.485-5.689-.932A2.334,2.334,0,0,0,445.269,323.515Z" transform="translate(-440.77 -318.5)" fill="none" stroke="#5b5c5e" stroke-linecap="square" stroke-miterlimit="9.143" stroke-width="1.096"/>
                  </g>
                </g>
              </g>
              <g id="Group_199" data-name="Group 199" transform="translate(0.579 0.447)" opacity="0.905">
                <g id="Group_198" data-name="Group 198">
                  <g id="Group_197" data-name="Group 197" clip-path="url(#clip-path-22)">
                    <path id="Path_184" data-name="Path 184" d="M445.111,323.517a1.951,1.951,0,0,1-.744-2.609,4.066,4.066,0,0,1,3.173-2.3c-2.394.156-4.75,2.7-3.557,5.09a2.085,2.085,0,0,0,1.088.976,1.344,1.344,0,0,1-1.469.219,2.6,2.6,0,0,1-1.6-1.645,5.1,5.1,0,0,1,.029-3.226,4.614,4.614,0,0,0-.115,3.59,2.793,2.793,0,0,0,4.107,1.691,1.866,1.866,0,0,1-.592,1.432c-1.574,1.232-3.64.235-4.867-1.069,1.252,1.647,3.7,2.613,5.565,1.141a2.33,2.33,0,0,0,.9-2.038,1.837,1.837,0,0,1,.93,1.9,3.826,3.826,0,0,1-3.356,3,4.012,4.012,0,0,0,3.784-3.482,2.563,2.563,0,0,0-1.321-2.562,1.385,1.385,0,0,1,1.474-.221c1.782.775,2.257,2.979,1.576,4.871a4.962,4.962,0,0,0-.407-4.48,2.684,2.684,0,0,0-3.593-.808,1.49,1.49,0,0,1,1.145-1.694,4.1,4.1,0,0,1,4.32,1.325c-1.263-1.761-3.889-2.609-5.687-1.116A2.354,2.354,0,0,0,445.111,323.517Z" transform="translate(-440.518 -318.56)" fill="none" stroke="#5b5c5e" stroke-linecap="square" stroke-miterlimit="9.429" stroke-width="1.096"/>
                  </g>
                </g>
              </g>
              <g id="Group_202" data-name="Group 202" transform="translate(0.49 0.459)" opacity="0.952">
                <g id="Group_201" data-name="Group 201">
                  <g id="Group_200" data-name="Group 200" clip-path="url(#clip-path-23)">
                    <path id="Path_185" data-name="Path 185" d="M444.951,323.532a1.968,1.968,0,0,1-.655-2.644,4.066,4.066,0,0,1,3.266-2.208c-2.418.079-4.872,2.551-3.748,4.992a2.017,2.017,0,0,0,1.061,1.018,1.317,1.317,0,0,1-1.483.177,2.658,2.658,0,0,1-1.555-1.7,5.083,5.083,0,0,1,.135-3.252,4.675,4.675,0,0,0-.237,3.615,2.832,2.832,0,0,0,4.081,1.833,1.875,1.875,0,0,1-.639,1.409c-1.63,1.2-3.676.116-4.861-1.225,1.206,1.7,3.621,2.746,5.552,1.318a2.3,2.3,0,0,0,.967-2.006,1.83,1.83,0,0,1,.879,1.943,3.868,3.868,0,0,1-3.474,2.907,4.065,4.065,0,0,0,3.919-3.382,2.6,2.6,0,0,0-1.241-2.632,1.41,1.41,0,0,1,1.486-.165c1.769.827,2.172,3.072,1.426,4.954a5.051,5.051,0,0,0-.265-4.528,2.7,2.7,0,0,0-3.584-.925,1.5,1.5,0,0,1,1.205-1.666,4.109,4.109,0,0,1,4.3,1.489c-1.21-1.815-3.819-2.774-5.678-1.33A2.428,2.428,0,0,0,444.951,323.532Z" transform="translate(-440.266 -318.617)" fill="none" stroke="#5b5c5e" stroke-linecap="square" stroke-miterlimit="9.714" stroke-width="1.088"/>
                  </g>
                </g>
              </g>
              <g id="Group_205" data-name="Group 205" transform="translate(0.401 0.496)">
                <g id="Group_204" data-name="Group 204">
                  <g id="Group_203" data-name="Group 203" clip-path="url(#clip-path-24)">
                    <path id="Path_186" data-name="Path 186" d="M444.789,323.565a2,2,0,0,1-.583-2.683,4.212,4.212,0,0,1,3.353-2.106c-2.428,0-4.851,2.332-3.929,4.9a2.207,2.207,0,0,0,1.031,1.055,1.438,1.438,0,0,1-1.5.137,2.982,2.982,0,0,1-1.507-1.775,5.247,5.247,0,0,1,.241-3.268,4.922,4.922,0,0,0-.35,3.632,2.851,2.851,0,0,0,4.04,1.973,1.994,1.994,0,0,1-.693,1.409c-1.732,1.048-3.693,0-4.853-1.409,1.16,1.758,3.587,2.93,5.546,1.514a2.239,2.239,0,0,0,1.04-1.982,1.927,1.927,0,0,1,.823,1.982,4.035,4.035,0,0,1-3.6,2.809,4.2,4.2,0,0,0,4.061-3.259,2.729,2.729,0,0,0-1.164-2.695,1.466,1.466,0,0,1,1.507-.123c1.728.932,2.079,3.163,1.27,5.031a5.245,5.245,0,0,0-.12-4.558,2.79,2.79,0,0,0-3.578-1.055,1.515,1.515,0,0,1,1.267-1.633,4.146,4.146,0,0,1,4.281,1.633,4.137,4.137,0,0,0-5.672-1.514A2.5,2.5,0,0,0,444.789,323.565Z" transform="translate(-439.996 -318.718)" fill="none" stroke="#5b5c5e" stroke-linecap="square" stroke-miterlimit="10" stroke-width="1.088"/>
                  </g>
                </g>
              </g>
            </g>
          </g>
        </g>
        <path id="Path_187" data-name="Path 187" d="M451.069,323.229a5.95,5.95,0,1,1-5.939-5.891A5.908,5.908,0,0,1,451.069,323.229Z" transform="translate(-403.953 -271.1)" fill="none" stroke="#1a1718" stroke-miterlimit="10" stroke-width="1.001"/>
        <path id="Path_188" data-name="Path 188" d="M437.777,313.225l.26.689.9-.037" transform="translate(-403.031 -268.381)" fill="none" stroke="#1a1718" stroke-miterlimit="10" stroke-width="0.51"/>
        <path id="Path_189" data-name="Path 189" d="M434.943,316.272l.358.638.89-.175" transform="translate(-401.157 -270.396)" fill="none" stroke="#1a1718" stroke-miterlimit="10" stroke-width="0.51"/>
        <path id="Path_190" data-name="Path 190" d="M432.574,319.691l.448.587.859-.307" transform="translate(-399.59 -272.657)" fill="none" stroke="#1a1718" stroke-miterlimit="10" stroke-width="0.51"/>
        <path id="Path_191" data-name="Path 191" d="M430.717,323.44l.533.5.807-.422" transform="translate(-398.362 -275.136)" fill="none" stroke="#1a1718" stroke-miterlimit="10" stroke-width="0.51"/>
        <path id="Path_192" data-name="Path 192" d="M429.44,327.156l.6.422.742-.526" transform="translate(-397.518 -277.524)" fill="none" stroke="#1a1718" stroke-miterlimit="10" stroke-width="0.51"/>
        <path id="Path_193" data-name="Path 193" d="M428.729,330.866l.654.338.655-.631" transform="translate(-397.047 -279.853)" fill="none" stroke="#1a1718" stroke-miterlimit="10" stroke-width="0.51"/>
        <path id="Path_194" data-name="Path 194" d="M428.636,334.666l.691.233.552-.729" transform="translate(-396.986 -282.232)" fill="none" stroke="#1a1718" stroke-miterlimit="10" stroke-width="0.51"/>
        <path id="Path_195" data-name="Path 195" d="M429.135,338.445l.722.137.443-.794" transform="translate(-397.316 -284.625)" fill="none" stroke="#1a1718" stroke-miterlimit="10" stroke-width="0.51"/>
        <path id="Path_196" data-name="Path 196" d="M430.225,342.107l.724.032.324-.857" transform="translate(-398.037 -286.936)" fill="none" stroke="#1a1718" stroke-miterlimit="10" stroke-width="0.51"/>
        <path id="Path_197" data-name="Path 197" d="M431.848,345.649l.727-.077.2-.892" transform="translate(-399.11 -289.184)" fill="none" stroke="#1a1718" stroke-miterlimit="10" stroke-width="0.51"/>
        <path id="Path_198" data-name="Path 198" d="M434.039,348.948l.713-.177.063-.913" transform="translate(-400.559 -291.285)" fill="none" stroke="#1a1718" stroke-miterlimit="10" stroke-width="0.51"/>
        <path id="Path_199" data-name="Path 199" d="M436.736,351.933l.661-.287-.062-.906" transform="translate(-402.342 -293.191)" fill="none" stroke="#1a1718" stroke-miterlimit="10" stroke-width="0.51"/>
        <path id="Path_200" data-name="Path 200" d="M439.793,354.532l.634-.394-.192-.88" transform="translate(-404.364 -294.856)" fill="none" stroke="#1a1718" stroke-miterlimit="10" stroke-width="0.51"/>
        <path id="Path_201" data-name="Path 201" d="M443.28,356.7l.563-.466-.327-.846" transform="translate(-406.671 -296.266)" fill="none" stroke="#1a1718" stroke-miterlimit="10" stroke-width="0.51"/>
        <path id="Path_202" data-name="Path 202" d="M447.036,358.413l.494-.543-.439-.8" transform="translate(-409.155 -297.376)" fill="none" stroke="#1a1718" stroke-miterlimit="10" stroke-width="0.51"/>
        <path id="Path_203" data-name="Path 203" d="M450.721,359.6l.408-.613-.554-.724" transform="translate(-411.495 -298.168)" fill="none" stroke="#1a1718" stroke-miterlimit="10" stroke-width="0.51"/>
        <path id="Path_204" data-name="Path 204" d="M454.458,360.265l.311-.671-.652-.648" transform="translate(-413.837 -298.618)" fill="none" stroke="#1a1718" stroke-miterlimit="10" stroke-width="0.51"/>
        <path id="Path_205" data-name="Path 205" d="M458.236,360.4l.214-.7-.736-.534" transform="translate(-416.217 -298.764)" fill="none" stroke="#1a1718" stroke-miterlimit="10" stroke-width="0.51"/>
        <path id="Path_206" data-name="Path 206" d="M461.986,359.948l.124-.72-.805-.433" transform="translate(-418.592 -298.518)" fill="none" stroke="#1a1718" stroke-miterlimit="10" stroke-width="0.51"/>
        <path id="Path_207" data-name="Path 207" d="M465.656,358.985v-.738l-.855-.3" transform="translate(-420.904 -297.954)" fill="none" stroke="#1a1718" stroke-miterlimit="10" stroke-width="0.51"/>
        <path id="Path_208" data-name="Path 208" d="M469.144,357.482l-.094-.741-.89-.168" transform="translate(-423.125 -297.049)" fill="none" stroke="#1a1718" stroke-miterlimit="10" stroke-width="0.51"/>
        <path id="Path_209" data-name="Path 209" d="M472.359,355.491l-.2-.706-.906-.042" transform="translate(-425.167 -295.839)" fill="none" stroke="#1a1718" stroke-miterlimit="10" stroke-width="0.51"/>
        <path id="Path_210" data-name="Path 210" d="M475.264,352.883l-.3-.664-.9.084" transform="translate(-427.033 -294.169)" fill="none" stroke="#1a1718" stroke-miterlimit="10" stroke-width="0.51"/>
        <path id="Path_211" data-name="Path 211" d="M477.775,349.807l-.389-.608-.886.212" transform="translate(-428.641 -292.172)" fill="none" stroke="#1a1718" stroke-miterlimit="10" stroke-width="0.51"/>
        <path id="Path_212" data-name="Path 212" d="M479.871,346.377l-.477-.561-.844.349" transform="translate(-429.996 -289.934)" fill="none" stroke="#1a1718" stroke-miterlimit="10" stroke-width="0.51"/>
        <path id="Path_213" data-name="Path 213" d="M481.471,342.729l-.546-.471-.783.459" transform="translate(-431.049 -287.582)" fill="none" stroke="#1a1718" stroke-miterlimit="10" stroke-width="0.51"/>
        <path id="Path_214" data-name="Path 214" d="M482.572,338.856l-.622-.394-.7.578" transform="translate(-431.781 -285.071)" fill="none" stroke="#1a1718" stroke-miterlimit="10" stroke-width="0.51"/>
        <path id="Path_215" data-name="Path 215" d="M483.133,334.917l-.665-.286-.614.664" transform="translate(-432.182 -282.537)" fill="none" stroke="#1a1718" stroke-miterlimit="10" stroke-width="0.51"/>
        <path id="Path_216" data-name="Path 216" d="M483.153,330.961l-.706-.2-.513.762" transform="translate(-432.235 -279.976)" fill="none" stroke="#1a1718" stroke-miterlimit="10" stroke-width="0.51"/>
        <path id="Path_217" data-name="Path 217" d="M482.6,327.093l-.724-.091-.4.822" transform="translate(-431.929 -277.492)" fill="none" stroke="#1a1718" stroke-miterlimit="10" stroke-width="0.51"/>
        <path id="Path_218" data-name="Path 218" d="M481.531,323.336l-.73,0-.284.871" transform="translate(-431.297 -275.068)" fill="none" stroke="#1a1718" stroke-miterlimit="10" stroke-width="0.51"/>
        <path id="Path_219" data-name="Path 219" d="M479.94,319.608l-.72.124-.152.895" transform="translate(-430.339 -272.602)" fill="none" stroke="#1a1718" stroke-miterlimit="10" stroke-width="0.51"/>
        <path id="Path_220" data-name="Path 220" d="M477.88,316.19l-.693.219-.017.918" transform="translate(-429.084 -270.341)" fill="none" stroke="#1a1718" stroke-miterlimit="10" stroke-width="0.51"/>
        <path id="Path_221" data-name="Path 221" d="M475.149,313.17l-.658.314.1.913" transform="translate(-427.312 -268.344)" fill="none" stroke="#1a1718" stroke-miterlimit="10" stroke-width="0.51"/>
        <path id="Path_222" data-name="Path 222" d="M472.007,310.577l-.6.412.241.888" transform="translate(-425.269 -266.629)" fill="none" stroke="#1a1718" stroke-miterlimit="10" stroke-width="0.51"/>
        <path id="Path_223" data-name="Path 223" d="M468.568,308.5l-.532.5.358.836" transform="translate(-423.043 -265.255)" fill="none" stroke="#1a1718" stroke-miterlimit="10" stroke-width="0.51"/>
        <path id="Path_224" data-name="Path 224" d="M464.854,306.973l-.461.568.49.766" transform="translate(-420.634 -264.246)" fill="none" stroke="#1a1718" stroke-miterlimit="10" stroke-width="0.51"/>
        <path id="Path_225" data-name="Path 225" d="M461,305.989l-.373.634.583.7" transform="translate(-418.144 -263.595)" fill="none" stroke="#1a1718" stroke-miterlimit="10" stroke-width="0.51"/>
        <path id="Path_226" data-name="Path 226" d="M457.055,305.652l-.286.671.684.6" transform="translate(-415.591 -263.372)" fill="none" stroke="#1a1718" stroke-miterlimit="10" stroke-width="0.51"/>
        <path id="Path_227" data-name="Path 227" d="M453.12,305.865l-.176.715.759.489" transform="translate(-413.062 -263.513)" fill="none" stroke="#1a1718" stroke-miterlimit="10" stroke-width="0.51"/>
        <path id="Path_228" data-name="Path 228" d="M449.265,306.69l-.07.736.829.377" transform="translate(-410.583 -264.059)" fill="none" stroke="#1a1718" stroke-miterlimit="10" stroke-width="0.51"/>
        <path id="Path_229" data-name="Path 229" d="M445.522,308.1l.033.739.874.261" transform="translate(-408.154 -264.991)" fill="none" stroke="#1a1718" stroke-miterlimit="10" stroke-width="0.51"/>
        <path id="Path_230" data-name="Path 230" d="M441.874,310.1l.135.713.9.128" transform="translate(-405.74 -266.31)" fill="none" stroke="#1a1718" stroke-miterlimit="10" stroke-width="0.51"/>
        <path id="Path_231" data-name="Path 231" d="M449.535,318.813a8,8,0,1,1-7.992-7.92A7.957,7.957,0,0,1,449.535,318.813Z" transform="translate(-400.227 -266.838)" fill="none" stroke="#1a1718" stroke-miterlimit="10" stroke-width="0.954"/>
      </g>
      <g id="Group_210" data-name="Group 210" transform="translate(10 2013.14)">
        <path id="Path_232" data-name="Path 232" d="M333.559,395.352c.613-.857,1.206-1.7,1.768-2.515.586-.81,1.155-1.641,1.733-2.48.5-.711,1.137-1.578,1.888-2.6h.123q2.879,3.751,5.784,7.478l-2.662,1.306-1.177-1.76-4.041.208-.861,1.552Zm4.268-2.031,2.263-.115c-.512-.832-.883-1.472-1.12-1.9-.223.378-.41.692-.566.953-.12.213-.3.567-.578,1.065" transform="translate(-333.559 -387.762)" fill="#fff"/>
        <path id="Path_233" data-name="Path 233" d="M374.078,392.941c0,.555.01,1,.017,1.31.05,1.567.072,2.41.072,2.49h-3.1v-8.224h3.1q0,.6-.05,1.827c-.023.815-.04,1.433-.04,1.846h.056l3.554-3.739,2.206,1.642-2.814,2.451,2.932,2.63-2.349,1.753q-.621-.7-1.178-1.31c-.293-.326-.682-.769-1.186-1.34-.551-.6-.933-1.053-1.165-1.336Z" transform="translate(-358.364 -388.218)" fill="#fff"/>
        <rect id="Rectangle_3211" data-name="Rectangle 3211" width="3.097" height="8.001" transform="translate(23.307 0.409)" fill="#fff"/>
        <path id="Path_234" data-name="Path 234" d="M417.242,388.958h3.146c-.055.386-.1.758-.12,1.1s-.036.744-.036,1.208c0,.363.007.781.023,1.208s.018.774.028,1.035a4.814,4.814,0,0,1-.562,2.57,6.1,6.1,0,0,1-2.848,2.19l-1.424-1.96a2.759,2.759,0,0,0,1.6-1.472,5.512,5.512,0,0,0,.378-2.249c0-.353-.012-.791-.055-1.336-.077-1.212-.124-1.975-.124-2.292" transform="translate(-387.717 -388.553)" fill="#fff"/>
        <path id="Path_235" data-name="Path 235" d="M449.951,394.078c-.04-1.015-.075-2.232-.075-3.466h-.022c-.274,1.074-.618,2.278-.939,3.258l-1.014,3.286h-1.465l-.883-3.249c-.272-1-.545-2.184-.75-3.295h-.034c-.03,1.135-.08,2.435-.132,3.488l-.165,3.193h-1.727l.523-8.421h2.5l.82,2.817c.268.968.514,2.025.705,3.009h.044c.221-.983.512-2.071.792-3.027l.87-2.8h2.469l.445,8.421h-1.823Z" transform="translate(-405.77 -388.496)" fill="#fff"/>
        <path id="Path_236" data-name="Path 236" d="M449.951,394.078c-.04-1.015-.075-2.232-.075-3.466h-.022c-.274,1.074-.618,2.278-.939,3.258l-1.014,3.286h-1.465l-.883-3.249c-.272-1-.545-2.184-.75-3.295h-.034c-.03,1.135-.08,2.435-.132,3.488l-.165,3.193h-1.727l.523-8.421h2.5l.82,2.817c.268.968.514,2.025.705,3.009h.044c.221-.983.512-2.071.792-3.027l.87-2.8h2.469l.445,8.421h-1.823Z" transform="translate(-405.77 -388.496)" fill="#fff"/>
        <path id="Path_237" data-name="Path 237" d="M476.858,397.169c-2.449,0-3.9-1.886-3.9-4.287,0-2.523,1.593-4.407,4.033-4.407,2.553,0,3.946,1.941,3.946,4.252,0,2.78-1.636,4.441-4.067,4.441Zm.086-1.517c1.268,0,2-1.2,2-2.851,0-1.508-.71-2.814-2-2.814s-2.021,1.271-2.021,2.846.761,2.82,2.006,2.82Z" transform="translate(-425.75 -388.234)" fill="#fff"/>
        <path id="Path_238" data-name="Path 238" d="M476.858,397.169c-2.449,0-3.9-1.886-3.9-4.287,0-2.523,1.593-4.407,4.033-4.407,2.553,0,3.946,1.941,3.946,4.252,0,2.78-1.636,4.441-4.067,4.441Zm.086-1.517c1.268,0,2-1.2,2-2.851,0-1.508-.71-2.814-2-2.814s-2.021,1.271-2.021,2.846.761,2.82,2.006,2.82Z" transform="translate(-425.75 -388.234)" fill="#fff"/>
        <path id="Path_239" data-name="Path 239" d="M499.381,390.474h-2.245v-1.6h6.382v1.6h-2.262V397.3h-1.874Z" transform="translate(-441.741 -388.496)" fill="#fff"/>
        <path id="Path_240" data-name="Path 240" d="M499.381,390.474h-2.245v-1.6h6.382v1.6h-2.262V397.3h-1.874Z" transform="translate(-441.741 -388.496)" fill="#fff"/>
        <path id="Path_241" data-name="Path 241" d="M520.668,397.169c-2.453,0-3.907-1.886-3.907-4.287,0-2.523,1.6-4.407,4.048-4.407,2.547,0,3.941,1.941,3.941,4.252,0,2.78-1.64,4.441-4.069,4.441Zm.086-1.517c1.269,0,1.995-1.2,1.995-2.851,0-1.508-.7-2.814-1.995-2.814s-2.021,1.267-2.021,2.846.754,2.82,2.009,2.82Z" transform="translate(-454.72 -388.234)" fill="#fff"/>
        <path id="Path_242" data-name="Path 242" d="M520.668,397.169c-2.453,0-3.907-1.886-3.907-4.287,0-2.523,1.6-4.407,4.048-4.407,2.547,0,3.941,1.941,3.941,4.252,0,2.78-1.64,4.441-4.069,4.441Zm.086-1.517c1.269,0,1.995-1.2,1.995-2.851,0-1.508-.7-2.814-1.995-2.814s-2.021,1.267-2.021,2.846.754,2.82,2.009,2.82Z" transform="translate(-454.72 -388.234)" fill="#fff"/>
        <path id="Path_243" data-name="Path 243" d="M543.977,388.879a13.823,13.823,0,0,1,2.5-.192,4.147,4.147,0,0,1,2.688.676,2.129,2.129,0,0,1,.771,1.763,2.237,2.237,0,0,1-1.466,2.064v.031a2.124,2.124,0,0,1,1.112,1.569c.256.95.5,2.056.669,2.388h-1.927a11.4,11.4,0,0,1-.564-1.967c-.236-1.061-.593-1.338-1.371-1.344h-.553v3.311h-1.863Zm1.863,3.607h.74c.932,0,1.49-.474,1.49-1.215,0-.758-.516-1.154-1.382-1.154a3.506,3.506,0,0,0-.848.06Z" transform="translate(-472.72 -388.374)" fill="#fff"/>
        <path id="Path_244" data-name="Path 244" d="M543.977,388.879a13.823,13.823,0,0,1,2.5-.192,4.147,4.147,0,0,1,2.688.676,2.129,2.129,0,0,1,.771,1.763,2.237,2.237,0,0,1-1.466,2.064v.031a2.124,2.124,0,0,1,1.112,1.569c.256.95.5,2.056.669,2.388h-1.927a11.4,11.4,0,0,1-.564-1.967c-.236-1.061-.593-1.338-1.371-1.344h-.553v3.311h-1.863Zm1.863,3.607h.74c.932,0,1.49-.474,1.49-1.215,0-.758-.516-1.154-1.382-1.154a3.506,3.506,0,0,0-.848.06Z" transform="translate(-472.72 -388.374)" fill="#fff"/>
        <path id="Path_245" data-name="Path 245" d="M565.007,395.077a4.588,4.588,0,0,0,2.081.525c.857,0,1.317-.354,1.317-.917,0-.513-.387-.822-1.389-1.181-1.387-.5-2.293-1.262-2.293-2.5,0-1.449,1.191-2.524,3.141-2.524a4.81,4.81,0,0,1,2.126.421l-.428,1.53a3.724,3.724,0,0,0-1.725-.405c-.812,0-1.206.395-1.206.816,0,.532.457.768,1.536,1.2,1.465.545,2.149,1.32,2.149,2.525,0,1.406-1.062,2.607-3.341,2.607a5.341,5.341,0,0,1-2.353-.527Z" transform="translate(-486.373 -388.234)" fill="#fff"/>
        <path id="Path_246" data-name="Path 246" d="M565.007,395.077a4.588,4.588,0,0,0,2.081.525c.857,0,1.317-.354,1.317-.917,0-.513-.387-.822-1.389-1.181-1.387-.5-2.293-1.262-2.293-2.5,0-1.449,1.191-2.524,3.141-2.524a4.81,4.81,0,0,1,2.126.421l-.428,1.53a3.724,3.724,0,0,0-1.725-.405c-.812,0-1.206.395-1.206.816,0,.532.457.768,1.536,1.2,1.465.545,2.149,1.32,2.149,2.525,0,1.406-1.062,2.607-3.341,2.607a5.341,5.341,0,0,1-2.353-.527Z" transform="translate(-486.373 -388.234)" fill="#fff"/>
      </g>
    </g>
  </g>
</svg>
