<?xml version="1.0" encoding="utf-8"?>
<!-- Generator: Adobe Illustrator 25.3.1, SVG Export Plug-In . SVG Version: 6.00 Build 0)  -->
<svg version="1.1" id="Layer_1" xmlns="http://www.w3.org/2000/svg" xmlns:xlink="http://www.w3.org/1999/xlink" x="0px" y="0px"
	 viewBox="0 0 753.64 236.31" style="enable-background:new 0 0 753.64 236.31;" xml:space="preserve">
<style type="text/css">
	.st0{fill:#FFFFFF;}
	.st1{fill:#E92827;}
	.st2{fill:#055BA7;}
	.st3{fill:none;stroke:#231F20;stroke-width:1.8888;stroke-miterlimit:10;}
	.st4{fill:none;stroke:#FFFFFF;stroke-width:2.8341;stroke-miterlimit:10;}
	.st5{clip-path:url(#SVGID_25_);fill:url(#SVGID_26_);}
	.st6{opacity:0;clip-path:url(#SVGID_27_);}
	.st7{clip-path:url(#SVGID_28_);fill:none;stroke:#6E6F71;stroke-width:1.1713;}
	.st8{opacity:0.0476;clip-path:url(#SVGID_27_);}
	.st9{clip-path:url(#SVGID_29_);fill:none;stroke:#6E6F71;stroke-width:1.1713;stroke-linecap:square;stroke-miterlimit:4.286;}
	.st10{opacity:0.0952;clip-path:url(#SVGID_27_);}
	.st11{clip-path:url(#SVGID_30_);fill:none;stroke:#6E6F71;stroke-width:1.1635;stroke-linecap:square;stroke-miterlimit:4.571;}
	.st12{opacity:0.1429;clip-path:url(#SVGID_27_);}
	.st13{clip-path:url(#SVGID_31_);fill:none;stroke:#6E6F71;stroke-width:1.1635;stroke-linecap:square;stroke-miterlimit:4.857;}
	.st14{opacity:0.1905;clip-path:url(#SVGID_27_);}
	.st15{clip-path:url(#SVGID_32_);fill:none;stroke:#6E6F71;stroke-width:1.1635;stroke-linecap:square;stroke-miterlimit:5.143;}
	.st16{opacity:0.2381;clip-path:url(#SVGID_27_);}
	.st17{clip-path:url(#SVGID_33_);fill:none;stroke:#6E6F71;stroke-width:1.1532;stroke-linecap:square;stroke-miterlimit:5.429;}
	.st18{opacity:0.2857;clip-path:url(#SVGID_27_);}
	.st19{clip-path:url(#SVGID_34_);fill:none;stroke:#6E6F71;stroke-width:1.1532;stroke-linecap:square;stroke-miterlimit:5.714;}
	.st20{opacity:0.3333;clip-path:url(#SVGID_27_);}
	.st21{clip-path:url(#SVGID_35_);fill:none;stroke:#6E6F71;stroke-width:1.1424;stroke-linecap:square;stroke-miterlimit:6;}
	.st22{opacity:0.381;clip-path:url(#SVGID_27_);}
	.st23{clip-path:url(#SVGID_36_);fill:none;stroke:#6E6F71;stroke-width:1.1424;stroke-linecap:square;stroke-miterlimit:6.286;}
	.st24{opacity:0.4286;clip-path:url(#SVGID_27_);}
	.st25{clip-path:url(#SVGID_37_);fill:none;stroke:#6E6F71;stroke-width:1.1322;stroke-linecap:square;stroke-miterlimit:6.571;}
	.st26{opacity:0.4762;clip-path:url(#SVGID_27_);}
	.st27{clip-path:url(#SVGID_38_);fill:none;stroke:#6E6F71;stroke-width:1.1322;stroke-linecap:square;stroke-miterlimit:6.857;}
	.st28{opacity:0.5238;clip-path:url(#SVGID_27_);}
	.st29{clip-path:url(#SVGID_39_);fill:none;stroke:#6E6F71;stroke-width:1.1244;stroke-linecap:square;stroke-miterlimit:7.143;}
	.st30{opacity:0.5714;clip-path:url(#SVGID_27_);}
	.st31{clip-path:url(#SVGID_40_);fill:none;stroke:#6E6F71;stroke-width:1.1244;stroke-linecap:square;stroke-miterlimit:7.429;}
	.st32{opacity:0.619;clip-path:url(#SVGID_27_);}
	.st33{clip-path:url(#SVGID_41_);fill:none;stroke:#6E6F71;stroke-width:1.1136;stroke-linecap:square;stroke-miterlimit:7.714;}
	.st34{opacity:0.6667;clip-path:url(#SVGID_27_);}
	.st35{clip-path:url(#SVGID_42_);fill:none;stroke:#6E6F71;stroke-width:1.1136;stroke-linecap:square;stroke-miterlimit:8;}
	.st36{opacity:0.7143;clip-path:url(#SVGID_27_);}
	.st37{clip-path:url(#SVGID_43_);fill:none;stroke:#6E6F71;stroke-width:1.1058;stroke-linecap:square;stroke-miterlimit:8.286;}
	.st38{opacity:0.7619;clip-path:url(#SVGID_27_);}
	.st39{clip-path:url(#SVGID_44_);fill:none;stroke:#6E6F71;stroke-width:1.1058;stroke-linecap:square;stroke-miterlimit:8.571;}
	.st40{opacity:0.8095;clip-path:url(#SVGID_27_);}
	.st41{clip-path:url(#SVGID_45_);fill:none;stroke:#6E6F71;stroke-width:1.1058;stroke-linecap:square;stroke-miterlimit:8.857;}
	.st42{opacity:0.8571;clip-path:url(#SVGID_27_);}
	.st43{clip-path:url(#SVGID_46_);fill:none;stroke:#6E6F71;stroke-width:1.0955;stroke-linecap:square;stroke-miterlimit:9.143;}
	.st44{opacity:0.9048;clip-path:url(#SVGID_27_);}
	.st45{clip-path:url(#SVGID_47_);fill:none;stroke:#6E6F71;stroke-width:1.0955;stroke-linecap:square;stroke-miterlimit:9.429;}
	.st46{opacity:0.9524;clip-path:url(#SVGID_27_);}
	.st47{clip-path:url(#SVGID_48_);fill:none;stroke:#6E6F71;stroke-width:1.0877;stroke-linecap:square;stroke-miterlimit:9.714;}
	.st48{clip-path:url(#SVGID_27_);}
	.st49{clip-path:url(#SVGID_49_);fill:none;stroke:#6E6F71;stroke-width:1.0877;stroke-linecap:square;stroke-miterlimit:10;}
	.st50{fill:none;stroke:#231F20;stroke-width:1.0006;stroke-miterlimit:10;}
	.st51{fill:none;stroke:#231F20;stroke-width:0.5096;stroke-miterlimit:10;}
	.st52{fill:none;stroke:#231F20;stroke-width:0.9537;stroke-miterlimit:10;}
</style>
<g>
	<g>
		<path class="st0" d="M650.54,91.53h-2.61h-0.59l0,0h-9.66l0,0l-30.76,0v7.04h-4.53v0.01h5.05v44.17c9,0,15.47-0.38,19.42-1.15
			c5.86-1.15,11.06-3.5,15.59-7.05c5.22-4.1,7.84-8.74,7.84-13.93c0-3.99-1.04-7.26-3.13-9.83c-2.32-2.84-5.54-4.26-9.66-4.26
			c-2.21,0-4.72,0.42-7.53,1.27c-2.82,0.85-5.06,1.87-6.75,3.07l2.31,9.73c4.41-2.24,7.2-3.36,8.36-3.36c4.24,0,6.33-0.52,6.33,3.74
			c0,3.99-2.41,6.2-8.04,9.04c-5.11,2.57-9.98,3.77-14.63,3.61l-0.98-0.08l0.79-34.98h37.64v-0.02h-4.44V91.53z"/>
		<rect x="602.4" y="91.53" class="st0" width="4.53" height="7.03"/>
		<path class="st0" d="M667.09,138.15c4.58,2.13,8.1,4.37,10.53,6.72l5.4-5.24c-3.6-3.66-7.66-6.39-12.19-8.19L667.09,138.15z"/>
		<path class="st0" d="M700.61,91.53h-45.62v7.02h36.83c-15.38,5.32-27.8,11.21-37.26,16.97l2.35,9.85
			c5.75,0.17,12.48,2.21,20.2,6.13c7.72,3.92,11.65,8.13,14.55,12.63l9.78-1.29V98.55h-0.83V91.53z M692.07,130.45
			c-6.97-5.46-14.57-9.61-22.81-12.45c7.14-3.82,14.74-7.1,22.81-9.83V130.45z"/>
		<rect x="650.54" y="91.53" class="st0" width="4.44" height="7.02"/>
		<path class="st0" d="M706.09,91.53v7.02h-5.4v0.01h6.79c8.65,4.48,12.97,10.51,12.97,17.39c0,2.02-0.87,3.12-2.61,6.07
			c-1.92,3.28-3.83,4.92-5.75,4.92c-1.86,0-4.34-1.39-7.65-4.18v11.29c3.61,2.19,6.56,3.28,8.66,3.28c4.13,0,7.59-1.88,10.39-5.65
			c1.63-3.17,3.29-6.34,4.98-9.5c2.73-4.53,4.85-7.41,6.78-7.41c1.22,0,2.24,0.14,3.06,1.15c0.81,1.01,1.22,2.12,1.22,3.33v23.01
			h9.45V98.55h4.22v-7.03H706.09z M739.53,108.57c-1.4-1.42-3.12-2.13-5.16-2.13c-2.22,0-4.43,0.96-6.65,2.87
			c-1.11-3.99-3.3-7.8-6.56-10.75h18.37V108.57z"/>
		<polygon class="st0" points="706.09,98.54 706.09,91.53 700.61,91.53 700.61,98.55 700.69,98.55 700.69,98.54 		"/>
		<path class="st0" d="M647.35,91.53c-0.17-1.28-0.33-2.8-0.5-4.03c-0.23-1.66-0.37-3.34-0.72-4.98c-0.45-2.09-1.66-3.76-3.29-5.13
			c-2.01-1.69-4.39-2.54-6.92-3.01c-3.06-0.58-6.15-0.61-9.24-0.45c-2.19,0.11-4.29,0.79-6.37,1.43c-2.77,0.86-5.51,1.79-8.29,2.62
			c-2.51,0.75-5.08,1.16-7.71,1.09c-2.3-0.06-4.53-0.44-6.53-1.69c-0.02-0.01-0.06,0-0.15,0c0,1.01,0,2.03,0,3.04
			c0,1.27,0.03,4.39,0.01,5.66c0,0.33,0.12,0.46,0.4,0.58c1.9,0.76,3.88,1.04,5.91,0.97c3.12-0.11,6.09-0.96,9.02-1.96
			c1.74-0.59,3.48-1.2,5.18-1.91c1.96-0.81,3.99-1.33,6.08-1.6c2.04-0.27,4.07-0.31,6.11,0.06c3.87,0.7,6.66,3.57,7.14,7.49
			c0.14,1.11,0.14,0.61,0.22,1.81h1.62H647.35z"/>
		<path class="st0" d="M538.02,98.56v-6.94H403.37c0,0-0.15-6.25,4.27-8.86c4.42-2.61,11.09,0.1,13.45,0.9
			c2.36,0.8,10.89,3.51,17.01,4.07c6.12,0.55,5.84-3.46,5.84-3.46v-7.34c-2.28,2.07-10.37,2.41-14.12,1.81
			c-3.75-0.6-7.56-2.01-16.46-4.28c-8.9-2.28-16.33,2.54-18.4,4.28c-4.22,4.55-3.83,12.8-3.83,12.8h-97.08v6.96h59.29v23.13
			c-2.81-3.68-6.96-3.41-6.96-3.41c-1.54-9.7-9.9-13.52-9.9-13.52c-16.26-7.09-22.28,4.35-23.22,7.56c-0.94,3.21,0,6.96,0,6.96
			h10.97l0.37,0.03l0.03-5.49c10.87-4.18,9.13,9.55,9.13,9.55c-0.42,1.41-1.05,2.77-1.95,3.95c-1.87,2.44-4.71,3.66-7.71,3.97
			c-3.8,0.39-8.37,0.02-11.36-2.57c-3.67-3.18-5.06-8.36-5.67-13c-0.06-0.48-0.66-8.29-0.31-8.29c-0.01,0-11.84,0-11.84,0
			c-0.58,8.5,1.54,17.17,6.65,24.06c1.4,1.88,2.99,3.62,4.77,5.15c1.87,1.6,3.78,2.52,6.14,3.35c6.3,2.23,13.27,2.89,19.6,0.39
			c4.29-1.7,7.97-4.69,10.79-8.32c0.93-1.19,1.77-2.45,2.5-3.77c0.1-0.17,0.6-1.51,0.79-1.56c3.88-0.9,7.7,2.81,7.7,2.81v13.85
			h11.74V98.47H372v44.77h11.84v-44.7h7.43v44.9h11.17V98.42h32.99v1.61l-28.37,15.24l4.95,11.24
			c20.61-2.01,22.62,16.67,22.62,16.67h11.94v-34.46c2.96-0.25,5.72,2.11,6.67,3.16c3.41,6.02-2.51,11.34-2.51,11.34l10.64,4.82
			c9.03-9.94,2.76-18.37,1.25-20.63c-4.72-5.77-16.56-7.63-16.56-7.63v-1.25h51.19v0.14c0,0-4.17,2.56-8.03,11.29
			c-3.86,8.73,1.25,13.91,3.26,15.57c4.12,2.71,12.25,0.4,12.25,0.4c-4.22,10.34-15.46,5.62-16.26,5.37
			c-9.38-5.62-5.97-27.96-5.97-27.96h-11.19c0.02,0,0,3.77,0,4c-0.02,4.26,0.01,9.55,0.91,13.74c0.82,3.83,2.04,7.6,4.16,10.87
			c1.77,2.74,3.79,5.67,6.67,7.53c13.83,8.9,26.65-1.51,26.65-1.51c10.44-8.43,8.36-21.04,8.36-21.04l-10.97-1.54
			c-3.31,4.47-5.97,2.71-5.97,2.71c-2.51-1.96-0.4-7.44-0.4-7.44l5.57-7.91c4.55,10.77,18.8,8.57,18.8,8.57l0.2,0.74
			c-11.91,18.15,2.74,29.65,3.84,30.99l10.17-5.62c0,0-2.9-3.36-6.58-7.64c-6.96-8.83,4.58-18.97,4.58-18.97l-6.57-7.08
			c-18.22,3.31-14.94-5.18-14.94-5.18H538.02z M434.9,125.24c0,0-4.38-5.19-10.3-5.59l10.3-7.8V125.24z"/>
		<path class="st0" d="M567.66,130.51c-1.18-0.32-2.38-0.7-3.37-1.42c-1.1-0.8-1.98-2.14-1.67-3.54c0.32-1.44,1.45-2.57,2.68-3.3
			c1.63-0.98,3.38-1.47,5.24-1.47c3.84,0,8.32,1.83,13.45,5.49c5.41,3.88,8.12,7.54,8.12,10.98v5.49h10.01V98.56h0.27v-7.03h-54.59
			l-0.01,7.02c0,0,5.41-0.07,10.98,2.15c0.52,0.25,1.05,0.48,1.56,0.75c0.95,0.5,1.89,1.04,2.79,1.63c0.7,0.46,1.38,0.97,2.03,1.5
			c2.16,1.96,3.93,4.56,4.85,8.01c-4.64-0.11-8.56,1.09-11.75,3.61c-3.37,2.62-5.05,6.09-5.05,10.41c0,3.61,1.36,7.03,4.26,9.57
			c2.9,2.54,6.37,3.81,10.2,3.81C567.67,136.82,567.72,133.66,567.66,130.51z M592.12,122.99c-4.43-4.53-8.05-7.54-11.96-9.01
			c-0.29-5.84-3.07-11.22-9.65-15.42h21.61V122.99z"/>
	</g>
	<g>
		<path class="st1" d="M358,224.4c-11.53-7.73-17.29-17.93-17.29-30.59c0-12.21,5.88-21.93,17.63-29.16l1.22,2.24
			c-7.82,5.43-11.73,14.2-11.73,26.32c0,6.78,0.7,12.14,2.1,16.08c1.76,4.93,5,9.25,9.7,12.95L358,224.4z"/>
		<path class="st1" d="M390.83,177.66v35.88l-4.68-5.41v-15.76c-0.18-0.72-0.72-1.45-1.6-2.2c-0.88-0.74-1.71-1.12-2.48-1.12
			c-1.09,0-2.09,0.68-2.99,2.04c-3.76,5.65-6.23,8.59-7.41,8.82c-0.32,0.05-0.77,0.07-1.36,0.07c-1.45,0-2.47-0.23-3.06-0.68
			c-1.23-0.32-3.08-2.83-5.58-7.53l3.59-3.53c0.14,1.31,0.41,2.4,0.81,3.26c0.72,1.4,1.36,2.1,1.9,2.1c0.54,0,2.37-2.1,5.49-6.31
			c-0.41-4.3-2.24-6.51-5.49-6.65c-2.13-0.09-3.48-0.23-4.07-0.41c-1.09-0.36-2.1-1.24-3.05-2.65l-0.88-0.48l-4.34-4.21h39.68
			l4.75,4.75H390.83z M386.15,177.66h-12.75c2.08,1.72,3.12,3.96,3.12,6.71v0.07c1.99-1.36,3.23-2.04,3.73-2.04
			c1.49,0,3.46,1.54,5.9,4.61V177.66z"/>
		<path class="st1" d="M420.94,177.66v36.56l-3.05-4.41c-3.3-8.23-9.02-12.66-17.16-13.29l-4.95-6.98c3.66-2.67,6.65-4.59,8.95-5.77
			c4.3-2.17,8.14-3.82,11.53-4.95v-1.15h-21.5l-4.68-4.75h35.47l4.68,4.75H420.94z M416.26,185.67c-3.44,1.31-7.1,3.21-10.99,5.7
			c4.61,2.22,8.28,5.2,10.99,8.95V185.67z"/>
		<path class="st1" d="M430.3,176.51c-0.27-3.16-0.41-6.65-0.41-10.45l2.62,2.17c0.22,1.45,0.53,2.67,0.94,3.66
			c0.18,0.27,0.43,0.61,0.74,1.02h5.04l4.7,4.75h-9.43v36.69l-4.61-5.01v-25.66c0-1.35-0.27-2.41-0.81-3.18
			c-1.31-1.89-2.94-2.84-4.88-2.84c-0.23,0-0.59,0-1.08,0l-4.75-4.61c3.03-0.32,5.34-0.36,6.92-0.13
			C427.45,173.23,429.12,174.43,430.3,176.51z"/>
		<path class="st1" d="M463.94,177.66v35.27l-2.51-2.37c-2.21-4.02-3.44-6.22-3.66-6.58c-1.4-2.12-3.21-3.84-5.42-5.16
			c-2.62-1.58-5.47-2.46-8.55-2.65l-5.02-6.85c7.03-5.02,13.81-8.55,20.35-10.58v-1.09h-20.29l-4.8-4.75h33.98l4.82,4.75H463.94z
			 M450.37,209.27c-1.22,0-2.25-0.44-3.09-1.32c-0.84-0.88-1.25-1.89-1.25-3.02c0-1.08,0.38-2.02,1.15-2.82
			c0.77-0.79,1.7-1.19,2.78-1.19c0.95,0,1.83,0.32,2.64,0.95c0.82,0.63,1.33,1.42,1.56,2.37c0.27,1.22,0.02,2.36-0.75,3.43
			C452.66,208.74,451.64,209.27,450.37,209.27z M459.12,185.19c-3.91,1.4-7.59,3.35-11.05,5.83c4.85,2.22,8.54,5.34,11.05,9.36
			V185.19z"/>
		<path class="st1" d="M508.56,186.82c0.63,0.32,1.36,0.97,2.17,1.97c2.08,2.58,3.12,5.13,3.12,7.66c0,0.86-0.11,1.72-0.34,2.58
			c-0.68,2.22-1.88,4-3.59,5.36c-1.72,1.36-3.71,2.04-5.97,2.04c-4.12,0-7.71-1.99-10.78-5.97c-1.31-1.67-2.51-4.14-3.59-7.39
			c-0.91-2.58-1.36-7.37-1.36-14.38c1.81,0.91,2.89,1.54,3.25,1.9c-0.13,2.53,0.04,4.68,0.54,6.44c0.63,2.49,1.13,4.14,1.49,4.95
			c0.86,1.9,2.13,3.59,3.8,5.09c1.99,1.72,3.91,2.51,5.76,2.37c1.63-0.14,3.07-0.45,4.34-0.95c1.81-0.77,2.71-1.79,2.71-3.05
			c0-0.45-0.1-0.92-0.3-1.39c-0.2-0.47-0.49-0.71-0.85-0.71c-0.14,0-0.32,0.05-0.54,0.14c-2.26,1-4.14,1.49-5.63,1.49
			c-1.27,0-2.51-0.29-3.73-0.88c-2.49-1.67-4-3.8-4.54-6.38c-0.14-0.77-0.2-1.49-0.2-2.17c0-2.04,1.06-4.38,3.19-7.05
			c0.18-0.18,0.43-0.45,0.75-0.81h-12.14l-4.75-4.75h45.51l4.68,4.75h-22.58c-0.45,0.18-1.06,0.52-1.83,1.02
			c-0.18,0.18-0.27,0.34-0.27,0.48c0,0.72,0.97,1.38,2.92,1.97c1.81,0.59,3.25,0.84,4.34,0.75c1.04-0.09,3.17-0.66,6.38-1.69
			c1.63,1.63,3.57,3.62,5.83,5.97c-1.4,1.36-2.64,3.1-3.73,5.22c-1.18,2.26-1.79,4.27-1.83,6.04c-0.23,1.49-0.34,2.83-0.34,4
			c0,2.49,0.9,5.77,2.71,9.83c-0.41,0.41-0.75,0.61-1.02,0.61c-0.5,0-1.2-0.16-2.1-0.47c-1.04-0.32-1.63-0.63-1.76-0.95
			c-0.54-2.31-1.09-4.61-1.63-6.92c-0.68-2.85-1.02-5.18-1.02-6.99c0-2.8,0.61-5.9,1.83-9.29c-2.26-0.09-4.52-0.47-6.78-1.15
			c-2.85-0.81-4.77-1.85-5.77-3.12c-0.13-0.23-0.75-1.02-1.83-2.37c-0.72,0.14-1.66,1.15-2.81,3.05c-1.15,1.9-1.73,3.28-1.73,4.14
			c0,1.08,0.61,1.63,1.83,1.63c0.73,0,2.51-0.72,5.36-2.17c0.95-0.45,1.58-0.72,1.9-0.81c0.41,0,0.75,0.14,1.02,0.41H508.56z"/>
		<path class="st1" d="M538.47,189.4c0.81,1.18,1.33,2.21,1.56,3.12c0.09,0.54,0.13,1.06,0.13,1.56c0,1.45-0.47,2.61-1.42,3.49
			c-0.95,0.88-2.24,1.32-3.87,1.32c-4.75,0-7.12-2.37-7.12-7.12c0-2.39,0.87-4.38,2.6-5.97c1.73-1.58,3.82-2.37,6.25-2.37
			c4.37,0,8.09,2.71,11.15,8.14l0.41,0.75v-14.65h-22.66l-4.74-4.75h36.9l4.95,4.75h-9.63v36.76l-2.58-3.53c0-0.32,0-0.7,0-1.15
			c0-1.72-0.43-4-1.29-6.85c-0.68-2.58-1.44-4.71-2.27-6.41c-0.84-1.69-1.96-3.2-3.36-4.51
			C541.82,190.39,540.14,189.53,538.47,189.4z"/>
		<path class="st1" d="M572.25,177.39c-1.31,0-2.49,0.36-3.53,1.09c-1.04,0.72-1.67,1.72-1.9,2.98c-0.36,2.13-0.14,5.47,0.68,10.04
			c0.95,5.29,1.42,8.57,1.42,9.83c0,4.02-2.04,7.28-6.11,9.77c-1.9,1.22-3.39,1.83-4.47,1.83c-1.13,0-1.88-0.57-2.24-1.69
			c-0.09-0.18-0.13-0.36-0.13-0.54c0-0.59,0.5-1.04,1.49-1.36c1.31-0.41,2.01-0.63,2.1-0.68c1.45-1.13,2.28-1.88,2.51-2.24
			c0.54-0.81,0.9-2.22,1.09-4.21c0.09-0.86-0.29-2.92-1.15-6.17c-0.9-3.48-1.36-6.08-1.36-7.8c0-2.4,0.66-4.79,1.97-7.19
			c0.81-1.13,1.63-2.26,2.44-3.39h-8.48l-4.82-4.75h22.11l5.02,4.75C577.13,177.48,574.92,177.39,572.25,177.39z"/>
		<path class="st1" d="M615.79,181.19l-0.34-4.54c-0.18-2.44-0.27-6.15-0.27-11.12l3.53,3.46c-0.45,0.91-0.36,2.06,0.27,3.46
			c0.09,0.18,0.43,0.34,1.02,0.47c1.49-0.04,3.05-0.04,4.68,0l4.75,4.75h-9.76v36.42l-5.22-5.49l0.27-18.58
			c0-1.54-0.54-3.33-1.63-5.39c-1.08-2.06-2.28-3.56-3.59-4.51c-1.31-0.95-2.6-1.42-3.87-1.42c-2.9,0-5.02,1.11-6.38,3.32
			c0.68-0.14,1.44-0.2,2.3-0.2c4.39,0,6.85,2.01,7.39,6.04c0.36,2.85-1.94,6.94-6.92,12.28l-4.88-5.49
			c1.04-0.95,2.42-2.31,4.14-4.07c2.13-2.26,3.19-3.64,3.19-4.14c0-0.54-0.39-0.81-1.15-0.81c-0.32,0-1.33,0.48-3.05,1.42
			c-1.72,0.95-2.92,1.43-3.6,1.43c-0.54,0-1.04-0.16-1.49-0.48c-1.99-1.22-2.98-2.89-2.98-5.02c0-1.49,0.49-3.05,1.46-4.68
			c0.97-1.63,2.11-2.83,3.43-3.6c1.58-0.9,3.46-1.36,5.63-1.36C609.58,173.32,613.94,175.95,615.79,181.19z"/>
		<path class="st1" d="M629.42,176.51c-0.27-3.16-0.41-6.65-0.41-10.45l2.62,2.17c0.22,1.45,0.54,2.67,0.94,3.66
			c0.18,0.27,0.43,0.61,0.74,1.02h5.04l4.7,4.75h-9.43v36.69l-4.61-5.01v-25.66c0-1.35-0.27-2.41-0.81-3.18
			c-1.31-1.89-2.94-2.84-4.88-2.84c-0.23,0-0.59,0-1.08,0l-4.75-4.61c3.03-0.32,5.34-0.36,6.92-0.13
			C626.57,173.23,628.25,174.43,629.42,176.51z"/>
		<path class="st1" d="M667.2,166.13c-3.35-2.53-7.16-3.8-11.46-3.8c-2.35,0-4.93,0.93-7.73,2.78c-0.63,0.63-1.38,1.54-2.24,2.71
			c-0.99,1.36-1.47,2.24-1.42,2.65l1.16,2.44h6.1l4.75,4.75h-9.5v35.27l-4.82-4.61v-30.66h-4.58l-4.71-4.75h8.82
			c-0.59-0.59-1.17-1.21-1.73-1.86c-0.56-0.66-0.85-1.39-0.85-2.2c0.04-1.36,0.3-2.42,0.75-3.19c1.27-2.03,2.42-3.54,3.46-4.51
			c1.04-0.97,2.62-1.96,4.75-2.95c1.31-0.63,2.87-0.95,4.68-0.95c4.48,0,9.25,1.56,14.31,4.68c1.58,1,3.68,2.83,6.31,5.49l1.49,4.41
			L667.2,166.13z"/>
		<path class="st1" d="M668.56,177.66v8.27c0-0.54,0,0.41,0,2.85c-0.04,0.68,0.02,1.04,0.2,1.09c1.67-0.41,3.56-1.85,5.68-4.34
			c1.98-2.35,3.13-3.53,3.44-3.53c0.41,0,0.77,0.18,1.08,0.54c3.73,3.21,5.61,7.26,5.61,12.14c0,5.47-1.86,9.52-5.56,12.14
			c-2.17,1.54-4.75,2.31-7.73,2.31c-4.25,0-7.64-1.4-10.17-4.19c-2.26-2.48-4.16-5.78-5.7-9.88c-1.4-3.65-2.33-7.33-2.78-11.03
			c0-0.14-0.2-2.26-0.61-6.36l3.53,1.89c0.27,3.61,1.06,7.1,2.37,10.48c2.97,7.53,7.17,11.29,12.58,11.29c1.62,0,3.26-0.42,4.9-1.25
			c1.65-0.84,2.85-1.93,3.62-3.29c0.86-1.54,1.28-2.8,1.28-3.8c0-0.95-0.29-1.9-0.88-2.85c-0.81,1.04-2.52,2.53-5.13,4.48
			c-1.44,1.09-2.88,1.63-4.32,1.63c-2.92,0-4.89-1.85-5.88-5.56c-0.13-0.59-0.2-1.72-0.2-3.39v-9.63h-13.09l-4.82-4.75h40.9
			l4.82,4.75H668.56z M674.73,217.21c-0.86,1.76-2.17,2.64-3.94,2.64c-1.4,0-2.53-0.42-3.39-1.25c-0.86-0.84-1.29-1.96-1.29-3.36
			c0-1.27,0.44-2.4,1.32-3.39c0.88-0.99,1.96-1.49,3.22-1.49c1.45,0,2.58,0.43,3.39,1.29c0.81,0.86,1.22,1.92,1.22,3.19
			C675.27,215.65,675.09,216.44,674.73,217.21z"/>
		<path class="st1" d="M701.86,212.12c-3.03,4.84-7.35,8.93-12.96,12.28l-1.22-2.24c7.82-5.43,11.73-14.18,11.73-26.25
			c0-6.78-0.68-12.16-2.03-16.14c-1.76-5.29-5.02-9.61-9.77-12.95l1.56-2.1c4.16,1.99,7.82,5.4,10.99,10.24
			c4.25,6.42,6.38,13.34,6.38,20.75C706.54,201.58,704.98,207.05,701.86,212.12z"/>
	</g>
	<g>
		<polygon class="st0" points="121.25,0 181.06,98.95 240.85,197.83 121.25,197.83 1.62,197.83 61.41,98.95 		"/>
		<polygon class="st2" points="121.03,12.76 14.66,189.85 227.4,189.85 		"/>
		<path class="st0" d="M58.03,161.74c0,0,12.68-7.39,27.62-6.2c1.64-34.72,34.47-36.83,34.47-36.83s15.88-1.98,29.53,11.63
			c13.6,13.58,8.64,33.4,8.64,33.4h52.89l-53.71-89.25l-16.68,28.66C140.78,103.15,80.37,94.98,58.03,161.74"/>
		<path class="st3" d="M58.03,161.74c0,0,12.68-7.39,27.62-6.2c1.64-34.72,34.47-36.83,34.47-36.83s15.88-1.98,29.53,11.63
			c13.6,13.58,8.64,33.4,8.64,33.4h52.89l-53.71-89.25l-16.68,28.66C140.78,103.15,80.37,94.98,58.03,161.74z"/>
		<line class="st4" x1="147.95" y1="171.8" x2="163.22" y2="185.41"/>
		<line class="st4" x1="140.23" y1="171.8" x2="155.5" y2="185.41"/>
		<line class="st4" x1="132.51" y1="171.8" x2="147.75" y2="185.41"/>
		<line class="st4" x1="124.8" y1="171.8" x2="140.04" y2="185.41"/>
		<line class="st4" x1="117.05" y1="171.8" x2="132.31" y2="185.41"/>
		<line class="st4" x1="109.33" y1="171.8" x2="124.57" y2="185.41"/>
		<line class="st4" x1="101.58" y1="171.8" x2="116.87" y2="185.41"/>
		<line class="st4" x1="93.86" y1="171.8" x2="109.12" y2="185.41"/>
		<line class="st4" x1="86.13" y1="171.8" x2="101.38" y2="185.41"/>
		<line class="st4" x1="78.37" y1="171.8" x2="93.66" y2="185.41"/>
		<line class="st4" x1="70.61" y1="171.8" x2="85.9" y2="185.41"/>
		<line class="st4" x1="62.88" y1="171.8" x2="78.14" y2="185.41"/>
		<line class="st4" x1="55.14" y1="171.8" x2="70.4" y2="185.41"/>
		<line class="st4" x1="47.42" y1="171.8" x2="62.68" y2="185.41"/>
		<line class="st4" x1="39.68" y1="171.8" x2="54.95" y2="185.41"/>
		<line class="st4" x1="31.98" y1="171.8" x2="47.23" y2="185.41"/>
		<g>
			<defs>
				<path id="SVGID_24_" d="M96.24,143.33c-5.81,14.74,1.66,31.49,16.66,37.22c14.98,5.72,31.87-1.67,37.64-16.47
					c5.82-14.82-1.65-31.54-16.64-37.25c-3.43-1.33-6.97-1.95-10.46-1.91C111.76,124.92,100.69,131.87,96.24,143.33"/>
			</defs>
			<clipPath id="SVGID_25_">
				<use xlink:href="#SVGID_24_"  style="overflow:visible;"/>
			</clipPath>
			
				<radialGradient id="SVGID_26_" cx="3311.3533" cy="1773.7783" r="13.1059" gradientTransform="matrix(0.802 -2.0499 -2.0725 -0.7931 1143.8115 8348.3594)" gradientUnits="userSpaceOnUse">
				<stop  offset="0" style="stop-color:#FFFFFF"/>
				<stop  offset="0.3879" style="stop-color:#FFFFFF"/>
				<stop  offset="0.7841" style="stop-color:#585252"/>
				<stop  offset="1" style="stop-color:#231F20"/>
			</radialGradient>
			<polygon class="st5" points="69.53,178.27 99.02,102.92 177.25,132.86 147.77,208.24 			"/>
		</g>
		<path class="st0" d="M129.27,138.27c8.91,3.4,13.3,13.32,9.86,22.06c-3.45,8.85-13.44,13.18-22.32,9.77
			c-8.87-3.4-13.3-13.28-9.85-22.06C110.39,139.25,120.38,134.9,129.27,138.27"/>
		<g>
			<g>
				<defs>
					<rect id="SVGID_1_" x="105.16" y="136.34" width="37.02" height="35.24"/>
				</defs>
				<clipPath id="SVGID_27_">
					<use xlink:href="#SVGID_1_"  style="overflow:visible;"/>
				</clipPath>
				<g class="st6">
					<g>
						<defs>
							<rect id="SVGID_23_" x="105.16" y="136.34" width="37.02" height="35.24"/>
						</defs>
						<clipPath id="SVGID_28_">
							<use xlink:href="#SVGID_23_"  style="overflow:visible;"/>
						</clipPath>
						<path class="st7" d="M119.96,154.07c-3.22,0.69-6.09-2.28-6.77-5.59c-0.63-4.31,0.65-8.65,4.16-12
							c-6.06,4.89-7.45,15.59-0.03,20.18c1.52,0.73,3.09,0.91,4.7,0.56c-0.45,1.8-1.92,2.96-3.53,3.3
							c-2.66,0.24-4.79,0.53-7.25-1.38c-2.67-2.15-4.76-4.75-5.93-8.63c0.61,4.32,3.22,7.04,6.33,9.74
							c4.67,3.49,11.89,2.44,14.08-3.16c0.85,1.71,1.5,3.1,1.06,4.93c-2.24,6.12-9.24,7.44-14.92,6.23
							c6.36,2.09,14.77,0.12,16.87-7.33c0.8-2.57,0.3-5.04-1.37-7.08c2.46-0.5,4.88,1.35,5.97,3.38c1.88,4.68,0.77,10.4-3.34,14.2
							c4.61-3.74,6.37-10.43,3.57-16.31c-1.81-2.9-4.74-4.85-8.22-4.43c0.47-1.81,1.9-2.98,3.52-3.33
							c6.17-1.13,11.47,3.74,13.16,10.04c-1.59-4.98-4.54-9.3-9.34-11.18c-4.37-1.27-9.27,0.25-11.05,4.59
							c-1.91-1.84-1.65-4.46-0.08-6.66c3.1-4.46,8.77-5.66,13.92-4.53c-6.62-2.37-14.81,0.43-17.15,7.59
							C117.8,149.57,118.34,152.01,119.96,154.07z"/>
					</g>
				</g>
				<g class="st8">
					<g>
						<defs>
							<rect id="SVGID_22_" x="105.47" y="136.37" width="36.36" height="35.16"/>
						</defs>
						<clipPath id="SVGID_29_">
							<use xlink:href="#SVGID_22_"  style="overflow:visible;"/>
						</clipPath>
						<path class="st9" d="M120,153.95c-3.21,0.61-6.05-2.38-6.54-5.65c-0.65-4.25,0.87-8.55,4.44-11.76
							c-6.11,4.65-8,15.64-0.59,19.92c1.46,0.83,3.05,0.96,4.63,0.69c-0.49,1.75-1.97,2.96-3.56,3.16c-2.61,0.32-4.76,0.4-7.12-1.59
							c-2.6-2.15-4.57-4.84-5.6-8.68c0.47,4.29,2.86,7.17,5.97,9.81c4.35,3.74,11.66,2.74,13.96-2.7c0.82,1.67,1.52,3.1,0.94,4.87
							c-2.05,6.1-9.32,7.08-14.89,5.74c6.23,2.21,14.5,0.5,16.85-6.79c0.82-2.53,0.41-4.97-1.15-7.02c2.4-0.41,4.87,1.43,5.81,3.47
							c1.99,4.6,0.43,10.34-3.71,13.94c4.65-3.53,6.91-10.31,3.98-15.99c-1.55-3.01-4.57-4.91-8-4.61c0.51-1.75,1.96-2.89,3.56-3.17
							c6.1-1.04,11.21,3.99,12.71,10.26c-1.41-4.94-4.16-9.5-8.92-11.27c-4.22-1.58-9.13,0-11.02,4.19
							c-1.83-1.82-1.51-4.41,0.09-6.56c3.19-4.26,8.79-5.32,13.88-4.05c-6.48-2.5-14.96-0.1-17.14,7.05
							C117.88,149.44,118.44,151.89,120,153.95z"/>
					</g>
				</g>
				<g class="st10">
					<g>
						<defs>
							<rect id="SVGID_21_" x="105.79" y="136.48" width="35.7" height="35"/>
						</defs>
						<clipPath id="SVGID_30_">
							<use xlink:href="#SVGID_21_"  style="overflow:visible;"/>
						</clipPath>
						<path class="st11" d="M120.03,153.84c-3.2,0.5-5.92-2.53-6.33-5.77c-0.5-4.2,1.15-8.41,4.71-11.47
							c-6.15,4.44-8.32,15.22-1.11,19.65c1.4,0.87,2.96,1.03,4.52,0.78c-0.52,1.77-2,2.92-3.59,3.07c-2.6,0.22-4.72,0.23-6.99-1.75
							c-2.5-2.21-4.37-4.92-5.29-8.71c0.34,4.21,2.65,7.13,5.62,9.83c4.21,3.8,11.44,3.03,13.87-2.31c0.76,1.73,1.4,3.13,0.78,4.84
							c-2.18,6.02-9.39,6.74-14.84,5.26c6.07,2.35,14.28,0.89,16.81-6.2c0.87-2.49,0.56-4.86-0.93-6.98
							c2.38-0.37,4.77,1.53,5.63,3.56c1.86,4.62,0.15,10.22-4.04,13.68c4.7-3.34,7.1-9.94,4.37-15.69
							c-1.43-3.01-4.37-4.95-7.76-4.75c0.55-1.71,2-2.8,3.6-3.04c6.08-0.86,10.96,4.24,12.27,10.5c-1.26-4.95-3.85-9.48-8.49-11.36
							c-4.13-1.72-9.03-0.28-11,3.8c-1.77-1.83-1.35-4.37,0.29-6.47c3.26-4.14,8.84-4.99,13.79-3.62
							c-6.3-2.66-14.75-0.54-17.12,6.48C118.05,149.35,118.53,151.79,120.03,153.84z"/>
					</g>
				</g>
				<g class="st12">
					<g>
						<defs>
							<rect id="SVGID_20_" x="106.12" y="136.52" width="34.99" height="34.91"/>
						</defs>
						<clipPath id="SVGID_31_">
							<use xlink:href="#SVGID_20_"  style="overflow:visible;"/>
						</clipPath>
						<path class="st13" d="M120.05,153.77c-3.16,0.42-5.77-2.69-6.06-5.89c-0.37-4.18,1.35-8.29,4.97-11.19
							c-6.19,4.18-8.64,14.82-1.67,19.38c1.36,0.88,2.89,1.11,4.45,0.91c-0.56,1.68-2.04,2.79-3.64,2.87
							c-2.55,0.17-4.66,0.16-6.84-1.9c-2.4-2.28-4.19-5.02-4.97-8.79c0.21,4.2,2.41,7.15,5.27,9.91c4.05,3.89,11.19,3.31,13.76-1.89
							c0.69,1.7,1.29,3.14,0.64,4.81c-2.34,5.85-9.49,6.38-14.86,4.75c5.97,2.52,14.08,1.29,16.81-5.63
							c0.94-2.44,0.67-4.81-0.73-6.91c2.37-0.3,4.69,1.64,5.46,3.68c1.71,4.61-0.14,10.1-4.37,13.4c4.72-3.17,7.31-9.65,4.76-15.36
							c-1.33-3-4.18-5.04-7.53-4.91c0.59-1.73,2.04-2.74,3.63-2.93c6.02-0.68,10.7,4.55,11.81,10.72c-1.09-4.9-3.53-9.5-8.04-11.48
							c-4.03-1.75-8.92-0.53-10.99,3.45c-1.7-1.89-1.21-4.36,0.47-6.37c3.35-4.01,8.87-4.71,13.73-3.18
							c-6.14-2.81-14.56-0.98-17.09,5.89C118.24,149.26,118.65,151.69,120.05,153.77z"/>
					</g>
				</g>
				<g class="st14">
					<g>
						<defs>
							<rect id="SVGID_19_" x="106.43" y="136.6" width="34.33" height="34.81"/>
						</defs>
						<clipPath id="SVGID_32_">
							<use xlink:href="#SVGID_19_"  style="overflow:visible;"/>
						</clipPath>
						<path class="st15" d="M120.07,153.69c-3.14,0.3-5.63-2.83-5.81-6.01c-0.25-4.14,1.58-8.14,5.24-10.93
							c-6.25,3.97-9,14.35-2.22,19.09c1.31,0.93,2.82,1.19,4.36,1.05c-0.61,1.66-2.12,2.71-3.69,2.77
							c-2.54,0.07-4.62-0.02-6.71-2.11c-2.3-2.32-3.99-5.05-4.66-8.81c0.09,4.13,2.16,7.1,4.92,9.93c3.9,3.93,10.97,3.59,13.67-1.44
							c0.63,1.68,1.19,3.11,0.48,4.73c-2.48,5.72-9.57,6.05-14.83,4.27c5.83,2.66,13.89,1.7,16.8-5.1c1-2.36,0.79-4.73-0.53-6.82
							c2.35-0.24,4.59,1.76,5.29,3.82c1.56,4.57-0.43,9.94-4.71,13.11c4.76-3.01,7.51-9.33,5.17-15.04
							c-1.24-3.04-3.99-5.11-7.31-5.11c0.62-1.64,2.11-2.63,3.69-2.75c5.97-0.53,10.46,4.79,11.37,10.94
							c-0.95-4.88-3.19-9.48-7.63-11.6c-3.93-1.89-8.81-0.78-10.96,3.09c-1.61-1.92-1.06-4.36,0.65-6.32
							c3.44-3.81,8.92-4.32,13.71-2.72c-6.02-2.93-14.39-1.36-17.11,5.32C118.41,149.16,118.76,151.57,120.07,153.69z"/>
					</g>
				</g>
				<g class="st16">
					<g>
						<defs>
							<rect id="SVGID_18_" x="106.76" y="136.64" width="33.65" height="34.71"/>
						</defs>
						<clipPath id="SVGID_33_">
							<use xlink:href="#SVGID_18_"  style="overflow:visible;"/>
						</clipPath>
						<path class="st17" d="M120.1,153.58c-3.12,0.23-5.49-2.96-5.59-6.09c-0.12-4.12,1.81-8.05,5.52-10.65
							c-6.3,3.73-9.32,13.9-2.78,18.79c1.27,1.02,2.78,1.29,4.32,1.18c-0.66,1.64-2.19,2.63-3.76,2.63c-2.5,0-4.54-0.16-6.56-2.28
							c-2.2-2.35-3.78-5.12-4.34-8.87c-0.04,4.09,1.91,7.11,4.56,9.95c3.73,4.09,10.78,3.96,13.56-1c0.59,1.71,1.09,3.13,0.35,4.73
							c-2.64,5.58-9.64,5.68-14.8,3.78c5.67,2.82,13.71,2.08,16.77-4.53c1.07-2.3,0.92-4.66-0.31-6.8c2.33-0.12,4.5,1.91,5.11,3.98
							c1.41,4.58-0.74,9.84-5.09,12.81c4.84-2.83,7.73-9,5.58-14.73c-1.11-3.03-3.78-5.17-7.07-5.27c0.67-1.62,2.17-2.56,3.74-2.6
							c5.9-0.32,10.19,5.02,10.91,11.17c-0.79-4.87-2.89-9.5-7.2-11.73c-3.82-1.95-8.68-1.04-10.93,2.75
							c-1.54-1.93-0.92-4.35,0.84-6.2c3.5-3.72,8.94-4.05,13.61-2.3c-5.84-3.1-14.17-1.82-17.04,4.71
							C118.6,149.05,118.84,151.45,120.1,153.58z"/>
					</g>
				</g>
				<g class="st18">
					<g>
						<defs>
							<rect id="SVGID_17_" x="107.04" y="136.75" width="33" height="34.54"/>
						</defs>
						<clipPath id="SVGID_34_">
							<use xlink:href="#SVGID_17_"  style="overflow:visible;"/>
						</clipPath>
						<path class="st19" d="M120.12,153.51c-3.09,0.08-5.32-3.09-5.32-6.25c0-4.07,2.01-7.88,5.79-10.36
							c-6.38,3.49-9.66,13.52-3.34,18.56c1.23,0.96,2.69,1.33,4.22,1.29c-0.7,1.57-2.23,2.48-3.75,2.48
							c-2.51-0.08-4.53-0.32-6.47-2.48c-2.13-2.41-3.6-5.19-4.03-8.95c-0.15,4.06,1.69,7.1,4.23,10.05
							c3.56,4.1,10.55,4.2,13.46-0.61c0.53,1.73,0.96,3.16,0.18,4.7c-2.78,5.43-9.72,5.32-14.76,3.27
							c5.53,2.96,13.49,2.48,16.73-3.97c1.13-2.26,1.08-4.59-0.1-6.72c2.32-0.08,4.38,2.01,4.96,4.07
							c1.25,4.57-1.03,9.73-5.42,12.55c4.84-2.7,7.91-8.67,5.96-14.47c-1.02-2.99-3.59-5.18-6.85-5.39c0.72-1.6,2.22-2.44,3.79-2.48
							c5.86-0.14,9.94,5.3,10.46,11.4c-0.61-4.82-2.57-9.48-6.77-11.81c-3.72-2.06-8.57-1.29-10.91,2.37
							c-1.48-1.98-0.78-4.35,1.02-6.12c3.59-3.58,8.99-3.73,13.56-1.82c-5.71-3.26-13.99-2.27-17.05,4.14
							C118.77,148.97,118.95,151.35,120.12,153.51z"/>
					</g>
				</g>
				<g class="st20">
					<g>
						<defs>
							<rect id="SVGID_16_" x="107.33" y="136.79" width="32.35" height="34.45"/>
						</defs>
						<clipPath id="SVGID_35_">
							<use xlink:href="#SVGID_16_"  style="overflow:visible;"/>
						</clipPath>
						<path class="st21" d="M120.14,153.41c-3.06,0-5.18-3.25-5.08-6.37c0.11-4.01,2.27-7.73,6.06-10.07
							c-6.42,3.27-10,13.08-3.88,18.29c1.2,0.99,2.63,1.4,4.14,1.4c-0.74,1.56-2.29,2.41-3.81,2.33c-2.46-0.17-4.47-0.45-6.31-2.65
							c-2.03-2.45-3.41-5.24-3.71-8.98c-0.29,4.04,1.45,7.09,3.87,10.08c3.4,4.18,10.32,4.51,13.35-0.16
							c0.48,1.7,0.88,3.16,0.04,4.62c-2.92,5.34-9.79,4.98-14.71,2.82c5.37,3.1,13.29,2.9,16.7-3.43c1.19-2.18,1.2-4.5,0.12-6.67
							c2.3,0.02,4.29,2.14,4.78,4.2c1.08,4.57-1.35,9.62-5.78,12.26c4.9-2.48,8.13-8.34,6.37-14.09c-0.9-3.04-3.4-5.3-6.62-5.59
							c0.77-1.57,2.29-2.43,3.83-2.35c5.81,0.3,9.69,5.58,10.03,11.63c-0.48-4.82-2.25-9.46-6.34-11.93
							c-3.64-2.17-8.47-1.55-10.89,2.02c-1.4-2.02-0.64-4.34,1.2-6.05c3.67-3.41,9.02-3.41,13.5-1.37
							c-5.56-3.44-13.79-2.68-17.02,3.55C118.95,148.87,119.03,151.24,120.14,153.41z"/>
					</g>
				</g>
				<g class="st22">
					<g>
						<defs>
							<rect id="SVGID_15_" x="107.62" y="136.87" width="31.7" height="34.34"/>
						</defs>
						<clipPath id="SVGID_36_">
							<use xlink:href="#SVGID_15_"  style="overflow:visible;"/>
						</clipPath>
						<path class="st23" d="M120.17,153.29c-3.04-0.05-5.05-3.39-4.85-6.45c0.26-3.98,2.49-7.59,6.35-9.79
							c-6.48,3.03-10.33,12.62-4.43,18c1.15,1.05,2.57,1.46,4.07,1.54c-0.79,1.48-2.36,2.31-3.86,2.17
							c-2.47-0.22-4.44-0.56-6.19-2.81c-1.93-2.52-3.2-5.34-3.41-9.04c-0.4,3.99,1.23,7.09,3.54,10.1
							c3.24,4.25,10.07,4.83,13.24,0.28c0.41,1.71,0.78,3.16-0.1,4.6c-3.08,5.19-9.88,4.62-14.69,2.3
							c5.24,3.26,13.09,3.32,16.68-2.83c1.23-2.14,1.33-4.43,0.33-6.62c2.27,0.08,4.19,2.25,4.62,4.32
							c0.92,4.56-1.63,9.48-6.11,11.93c4.93-2.28,8.32-7.99,6.76-13.76c-0.82-2.99-3.21-5.39-6.38-5.74
							c0.8-1.55,2.35-2.27,3.85-2.23c5.78,0.27,9.43,5.89,9.59,11.91c-0.33-4.79-1.94-9.49-5.93-12.02
							c-3.51-2.3-8.33-1.84-10.85,1.61c-1.32-2.03-0.51-4.32,1.36-5.96c3.74-3.24,9.08-3.08,13.44-0.93
							c-5.39-3.58-13.61-3.1-16.99,2.98C119.12,148.77,119.14,151.13,120.17,153.29z"/>
					</g>
				</g>
				<g class="st24">
					<g>
						<defs>
							<rect id="SVGID_14_" x="107.91" y="136.94" width="31.06" height="34.21"/>
						</defs>
						<clipPath id="SVGID_37_">
							<use xlink:href="#SVGID_14_"  style="overflow:visible;"/>
						</clipPath>
						<path class="st25" d="M120.2,153.24c-3.03-0.2-4.92-3.57-4.6-6.6c0.38-3.96,2.72-7.46,6.62-9.53
							c-6.54,2.81-10.68,12.23-5,17.76c1.12,1.1,2.5,1.54,4.01,1.65c-0.84,1.48-2.41,2.25-3.92,2.04c-2.4-0.32-4.38-0.69-6.05-3.01
							c-1.84-2.53-3.01-5.39-3.09-9.07c-0.55,3.98,0.99,7.06,3.18,10.17c3.08,4.31,9.85,5.09,13.17,0.67
							c0.34,1.74,0.64,3.17-0.28,4.59c-3.23,5.04-9.97,4.24-14.67,1.82c5.1,3.39,12.89,3.69,16.65-2.3
							c1.32-2.06,1.49-4.33,0.55-6.53c2.26,0.15,4.08,2.36,4.44,4.4c0.77,4.57-1.94,9.35-6.48,11.68c4.99-2.1,8.54-7.65,7.19-13.47
							c-0.71-3.01-3.03-5.42-6.16-5.89c0.84-1.49,2.4-2.16,3.91-2.06c5.74,0.4,9.19,6.14,9.13,12.08
							c-0.17-4.75-1.61-9.44-5.48-12.16c-3.45-2.35-8.23-2.04-10.84,1.31c-1.25-2.08-0.36-4.32,1.56-5.87
							c3.8-3.14,9.1-2.77,13.38-0.5c-5.26-3.73-13.43-3.54-16.98,2.42C119.29,148.68,119.24,151.01,120.2,153.24z"/>
					</g>
				</g>
				<g class="st26">
					<g>
						<defs>
							<rect id="SVGID_13_" x="108.15" y="136.98" width="30.46" height="34.12"/>
						</defs>
						<clipPath id="SVGID_38_">
							<use xlink:href="#SVGID_13_"  style="overflow:visible;"/>
						</clipPath>
						<path class="st27" d="M120.21,153.12c-2.97-0.28-4.75-3.68-4.34-6.67c0.49-3.91,2.92-7.36,6.87-9.26
							c-6.56,2.59-10.98,11.78-5.52,17.46c1.06,1.11,2.43,1.6,3.91,1.77c-0.88,1.45-2.47,2.16-3.96,1.93
							c-2.36-0.39-4.32-0.89-5.91-3.2c-1.75-2.57-2.82-5.48-2.77-9.13c-0.67,3.87,0.75,7.08,2.81,10.21
							c2.93,4.4,9.65,5.38,13.07,1.14c0.3,1.7,0.55,3.11-0.41,4.53c-3.35,4.89-10.04,3.89-14.65,1.29c4.98,3.54,12.7,4.1,16.67-1.71
							c1.37-2.02,1.59-4.26,0.75-6.51c2.24,0.25,3.98,2.48,4.26,4.55c0.64,4.6-2.2,9.27-6.79,11.41c5.01-1.97,8.73-7.35,7.56-13.17
							c-0.6-3.02-2.81-5.48-5.92-6.09c0.87-1.45,2.45-2.1,3.94-1.92c5.69,0.64,8.94,6.42,8.67,12.32c0-4.72-1.28-9.47-5.05-12.26
							c-3.33-2.47-8.11-2.31-10.81,0.9c-1.2-2.07-0.24-4.26,1.73-5.77c3.91-2.96,9.14-2.43,13.31-0.03
							c-5.08-3.88-13.23-3.95-16.97,1.82C119.47,148.59,119.33,150.91,120.21,153.12z"/>
					</g>
				</g>
				<g class="st28">
					<g>
						<defs>
							<rect id="SVGID_12_" x="108.39" y="137.06" width="29.89" height="33.99"/>
						</defs>
						<clipPath id="SVGID_39_">
							<use xlink:href="#SVGID_12_"  style="overflow:visible;"/>
						</clipPath>
						<path class="st29" d="M120.24,153.04c-2.96-0.42-4.61-3.8-4.12-6.79c0.62-3.91,3.16-7.21,7.16-9
							c-6.64,2.34-11.34,11.38-6.08,17.2c1.02,1.14,2.35,1.69,3.85,1.88c-0.94,1.4-2.54,2.06-4,1.79c-2.38-0.5-4.27-1.04-5.79-3.39
							c-1.65-2.62-2.62-5.5-2.46-9.16c-0.8,3.86,0.5,7.04,2.49,10.26c2.74,4.48,9.4,5.65,12.93,1.55c0.25,1.68,0.44,3.14-0.55,4.51
							c-3.52,4.77-10.13,3.52-14.61,0.79c4.81,3.68,12.5,4.49,16.61-1.16c1.44-1.97,1.74-4.19,0.98-6.47
							c2.22,0.34,3.87,2.65,4.1,4.71c0.47,4.56-2.52,9.11-7.17,11.09c5.08-1.77,8.96-7.02,7.98-12.81c-0.5-3.05-2.61-5.55-5.72-6.27
							c0.96-1.37,2.53-1.99,4-1.77c5.65,0.78,8.68,6.64,8.25,12.55c0.13-4.73-0.99-9.46-4.63-12.35c-3.24-2.56-8.02-2.59-10.81,0.51
							c-1.09-2.11-0.06-4.26,1.93-5.67c4-2.82,9.19-2.14,13.26,0.36c-4.93-4-13.03-4.35-16.94,1.31
							C119.66,148.48,119.45,150.81,120.24,153.04z"/>
					</g>
				</g>
				<g class="st30">
					<g>
						<defs>
							<rect id="SVGID_11_" x="108.63" y="137.15" width="29.51" height="33.84"/>
						</defs>
						<clipPath id="SVGID_40_">
							<use xlink:href="#SVGID_11_"  style="overflow:visible;"/>
						</clipPath>
						<path class="st31" d="M120.27,152.93c-2.95-0.49-4.47-3.96-3.89-6.91c0.77-3.85,3.42-7.06,7.44-8.71
							c-6.68,2.1-11.68,10.95-6.64,16.94c0.98,1.15,2.28,1.75,3.76,1.99c-0.98,1.37-2.59,1.97-4.03,1.64
							c-2.34-0.52-4.24-1.14-5.66-3.56c-1.58-2.69-2.43-5.59-2.13-9.22c-0.91,3.82,0.26,7.03,2.12,10.31
							c2.6,4.53,9.19,5.94,12.84,1.99c0.2,1.7,0.34,3.15-0.69,4.45c-3.68,4.61-10.19,3.21-14.6,0.32c4.69,3.84,12.32,4.9,16.61-0.57
							c1.49-1.93,1.87-4.15,1.15-6.42c2.22,0.41,3.79,2.78,3.93,4.82c0.33,4.58-2.79,9.01-7.48,10.8c5.09-1.58,9.14-6.65,8.38-12.48
							c-0.4-3.03-2.43-5.63-5.47-6.44c0.96-1.38,2.57-1.86,4.03-1.63c5.59,0.98,8.4,6.96,7.78,12.78c0.31-4.69-0.64-9.46-4.2-12.45
							c-3.13-2.68-7.87-2.85-10.79,0.14c-1-2.14,0.09-4.25,2.11-5.59c4.07-2.7,9.22-1.81,13.19,0.81
							c-4.78-4.14-12.84-4.77-16.93,0.74C119.82,148.4,119.54,150.68,120.27,152.93z"/>
					</g>
				</g>
				<g class="st32">
					<g>
						<defs>
							<rect id="SVGID_10_" x="108.43" y="137.19" width="29.91" height="33.77"/>
						</defs>
						<clipPath id="SVGID_41_">
							<use xlink:href="#SVGID_10_"  style="overflow:visible;"/>
						</clipPath>
						<path class="st33" d="M120.29,152.84c-2.93-0.57-4.32-4.09-3.64-6.99c0.89-3.83,3.64-6.96,7.72-8.46
							c-6.75,1.86-12.02,10.52-7.19,16.68c0.93,1.18,2.23,1.82,3.68,2.13c-1.03,1.33-2.62,1.87-4.08,1.47
							c-2.33-0.63-4.19-1.27-5.52-3.73c-1.48-2.71-2.25-5.64-1.83-9.27c-1.04,3.79,0.04,7.02,1.78,10.35
							c2.43,4.62,8.96,6.27,12.75,2.41c0.13,1.73,0.22,3.18-0.85,4.45c-3.81,4.48-10.29,2.85-14.56-0.19
							c4.55,3.99,12.09,5.3,16.56-0.01c1.56-1.88,2-4.04,1.38-6.33c2.19,0.46,3.7,2.89,3.76,4.92c0.16,4.57-3.1,8.86-7.84,10.55
							c5.13-1.42,9.35-6.38,8.79-12.22c-0.31-3.03-2.24-5.66-5.27-6.58c1.02-1.32,2.64-1.8,4.1-1.51c5.54,1.16,8.16,7.18,7.31,13.02
							c0.45-4.69-0.31-9.44-3.76-12.57c-3.04-2.77-7.76-3.12-10.77-0.21c-0.94-2.15,0.24-4.22,2.3-5.52
							c4.16-2.52,9.27-1.48,13.13,1.31c-4.63-4.34-12.65-5.24-16.89,0.1C120.01,148.32,119.66,150.59,120.29,152.84z"/>
					</g>
				</g>
				<g class="st34">
					<g>
						<defs>
							<rect id="SVGID_9_" x="108.17" y="137.25" width="30.42" height="33.66"/>
						</defs>
						<clipPath id="SVGID_42_">
							<use xlink:href="#SVGID_9_"  style="overflow:visible;"/>
						</clipPath>
						<path class="st35" d="M120.29,152.76c-2.88-0.69-4.15-4.22-3.36-7.15c1-3.79,3.86-6.8,7.98-8.15
							c-6.82,1.63-12.37,10.09-7.76,16.38c0.89,1.21,2.17,1.91,3.62,2.26c-1.06,1.31-2.69,1.79-4.13,1.36
							c-2.31-0.7-4.13-1.42-5.39-3.93c-1.39-2.76-2.03-5.73-1.5-9.33c-1.18,3.76-0.21,7.04,1.43,10.42
							c2.26,4.66,8.72,6.55,12.63,2.81c0.07,1.75,0.12,3.17-1.01,4.42c-3.95,4.35-10.37,2.48-14.52-0.67
							c4.4,4.13,11.91,5.68,16.54,0.52c1.62-1.81,2.13-3.98,1.59-6.28c2.2,0.54,3.59,2.99,3.61,5.03c0.01,4.58-3.41,8.77-8.2,10.27
							c5.19-1.24,9.56-6.02,9.17-11.86c-0.18-3.04-2.03-5.78-5-6.8c1.05-1.27,2.68-1.65,4.13-1.34c5.48,1.34,7.92,7.49,6.86,13.25
							c0.63-4.63,0-9.44-3.32-12.69c-2.94-2.88-7.66-3.34-10.73-0.56c-0.89-2.19,0.36-4.22,2.47-5.4c4.23-2.43,9.3-1.21,13.07,1.67
							c-4.48-4.46-12.46-5.61-16.89-0.43C120.2,148.19,119.74,150.47,120.29,152.76z"/>
					</g>
				</g>
				<g class="st36">
					<g>
						<defs>
							<rect id="SVGID_8_" x="107.91" y="137.36" width="30.89" height="33.51"/>
						</defs>
						<clipPath id="SVGID_43_">
							<use xlink:href="#SVGID_8_"  style="overflow:visible;"/>
						</clipPath>
						<path class="st37" d="M120.34,152.65c-2.89-0.79-4.04-4.36-3.15-7.23c1.15-3.76,4.09-6.68,8.25-7.88
							c-6.84,1.39-12.67,9.66-8.29,16.12c0.84,1.24,2.08,1.96,3.53,2.38c-1.11,1.24-2.77,1.68-4.18,1.2
							c-2.25-0.79-4.09-1.57-5.26-4.11c-1.29-2.82-1.84-5.79-1.19-9.38c-1.29,3.73-0.43,7.01,1.08,10.43
							c2.12,4.79,8.51,6.86,12.53,3.27c0.04,1.74,0.04,3.18-1.15,4.4c-4.08,4.2-10.43,2.13-14.52-1.2
							c4.29,4.29,11.73,6.13,16.54,1.11c1.68-1.75,2.29-3.9,1.8-6.23c2.17,0.65,3.49,3.12,3.43,5.15c-0.14,4.59-3.68,8.68-8.51,9.99
							c5.21-1.06,9.73-5.7,9.55-11.57c-0.08-3.05-1.85-5.83-4.79-6.91c1.12-1.25,2.74-1.62,4.18-1.2c5.44,1.52,7.67,7.72,6.43,13.46
							c0.78-4.62,0.31-9.45-2.9-12.81c-2.84-2.96-7.55-3.6-10.73-0.92c-0.79-2.2,0.51-4.21,2.65-5.32
							c4.32-2.25,9.33-0.89,13.01,2.15c-4.32-4.63-12.28-6.07-16.86-1.02C120.38,148.09,119.87,150.36,120.34,152.65z"/>
					</g>
				</g>
				<g class="st38">
					<g>
						<defs>
							<rect id="SVGID_7_" x="107.65" y="137.45" width="31.36" height="33.37"/>
						</defs>
						<clipPath id="SVGID_44_">
							<use xlink:href="#SVGID_7_"  style="overflow:visible;"/>
						</clipPath>
						<path class="st39" d="M120.36,152.58c-2.83-0.89-3.89-4.53-2.91-7.37c1.28-3.72,4.3-6.53,8.54-7.6
							c-6.92,1.19-13.04,9.22-8.85,15.84c0.81,1.29,2.03,2.08,3.45,2.52c-1.16,1.22-2.81,1.62-4.21,1.05
							c-2.26-0.82-4.03-1.69-5.13-4.25c-1.2-2.89-1.64-5.91-0.86-9.43c-1.43,3.65-0.68,6.97,0.71,10.48
							c1.96,4.86,8.28,7.14,12.46,3.69c-0.06,1.73-0.11,3.16-1.31,4.36c-4.24,4.04-10.53,1.73-14.48-1.71
							c4.12,4.45,11.52,6.54,16.49,1.68c1.75-1.7,2.42-3.81,2.03-6.14c2.14,0.69,3.39,3.23,3.26,5.26c-0.31,4.57-4,8.52-8.86,9.72
							c5.24-0.91,9.93-5.38,9.94-11.26c0.04-3.06-1.64-5.87-4.53-7.08c1.14-1.23,2.78-1.55,4.21-1.09c5.39,1.71,7.41,8.01,5.97,13.7
							c0.95-4.61,0.63-9.44-2.48-12.9c-2.74-3.06-7.41-3.9-10.69-1.29c-0.72-2.28,0.66-4.2,2.85-5.26c4.37-2.1,9.36-0.52,12.94,2.6
							c-4.18-4.72-12.06-6.46-16.85-1.57C120.56,148.02,119.96,150.24,120.36,152.58z"/>
					</g>
				</g>
				<g class="st40">
					<g>
						<defs>
							<rect id="SVGID_6_" x="107.4" y="137.49" width="31.83" height="33.29"/>
						</defs>
						<clipPath id="SVGID_45_">
							<use xlink:href="#SVGID_6_"  style="overflow:visible;"/>
						</clipPath>
						<path class="st41" d="M120.38,152.47c-2.83-0.96-3.74-4.66-2.66-7.48c1.4-3.67,4.54-6.38,8.81-7.33
							c-6.96,0.95-13.37,8.81-9.4,15.6c0.78,1.3,1.96,2.13,3.38,2.62c-1.19,1.15-2.87,1.51-4.27,0.92
							c-2.23-0.94-3.98-1.87-4.98-4.46c-1.11-2.9-1.46-5.92-0.55-9.46c-1.54,3.63-0.92,6.98,0.37,10.5
							c1.79,4.95,8.05,7.45,12.35,4.15c-0.1,1.71-0.21,3.17-1.46,4.3c-4.39,3.91-10.59,1.41-14.45-2.17
							c3.98,4.59,11.31,6.91,16.48,2.21c1.8-1.62,2.53-3.71,2.22-6.08c2.15,0.76,3.29,3.36,3.09,5.4c-0.46,4.55-4.29,8.41-9.23,9.42
							c5.3-0.73,10.16-5.04,10.38-10.95c0.11-3.05-1.47-5.92-4.34-7.27c1.19-1.16,2.85-1.4,4.27-0.88
							c5.33,1.86,7.15,8.25,5.53,13.89c1.07-4.57,0.94-9.44-2.06-13.01c-2.64-3.15-7.3-4.12-10.68-1.65
							c-0.64-2.28,0.81-4.2,3.03-5.15c4.48-1.98,9.42-0.23,12.89,3.05c-4.03-4.91-11.88-6.91-16.84-2.18
							C120.74,147.92,120.07,150.12,120.38,152.47z"/>
					</g>
				</g>
				<g class="st42">
					<g>
						<defs>
							<rect id="SVGID_5_" x="107.12" y="137.58" width="32.31" height="33.13"/>
						</defs>
						<clipPath id="SVGID_46_">
							<use xlink:href="#SVGID_5_"  style="overflow:visible;"/>
						</clipPath>
						<path class="st43" d="M120.41,152.38c-2.8-1.09-3.59-4.79-2.45-7.58c1.55-3.63,4.78-6.26,9.1-7.04
							c-7.02,0.67-13.7,8.38-9.96,15.29c0.73,1.34,1.91,2.21,3.31,2.74c-1.22,1.16-2.95,1.43-4.29,0.81c-2.21-1.01-3.95-2-4.87-4.66
							c-1-2.94-1.26-6-0.23-9.51c-1.69,3.57-1.17,6.96,0.01,10.59c1.62,5,7.82,7.7,12.22,4.57c-0.15,1.7-0.29,3.14-1.6,4.23
							c-4.51,3.81-10.65,1.06-14.41-2.65c3.85,4.7,11.13,7.31,16.45,2.79c1.87-1.6,2.68-3.7,2.43-6.07
							c2.13,0.87,3.19,3.49,2.92,5.53c-0.59,4.57-4.58,8.27-9.55,9.12c5.33-0.53,10.34-4.68,10.77-10.61
							c0.22-3.05-1.28-5.99-4.12-7.41c1.22-1.16,2.93-1.33,4.3-0.81c5.33,2.1,6.91,8.54,5.11,14.16c1.23-4.57,1.25-9.42-1.62-13.11
							c-2.55-3.3-7.2-4.41-10.66-2.03c-0.59-2.33,0.95-4.18,3.19-5.09c4.57-1.77,9.45,0.09,12.83,3.51
							c-3.87-5.08-11.68-7.34-16.8-2.75C120.91,147.82,120.17,150.03,120.41,152.38z"/>
					</g>
				</g>
				<g class="st44">
					<g>
						<defs>
							<rect id="SVGID_4_" x="106.87" y="137.66" width="32.79" height="33"/>
						</defs>
						<clipPath id="SVGID_47_">
							<use xlink:href="#SVGID_4_"  style="overflow:visible;"/>
						</clipPath>
						<path class="st45" d="M120.43,152.3c-2.79-1.2-3.45-4.95-2.2-7.7c1.67-3.6,5.02-6.12,9.37-6.78
							c-7.07,0.46-14.03,7.97-10.5,15.03c0.68,1.36,1.83,2.29,3.21,2.88c-1.28,1.11-2.98,1.31-4.34,0.65
							c-2.18-1.07-3.91-2.17-4.73-4.86c-0.91-2.96-1.06-6.04,0.09-9.53c-1.8,3.51-1.4,6.96-0.34,10.6c1.48,5.07,7.6,8.03,12.13,4.99
							c-0.2,1.71-0.39,3.18-1.75,4.23c-4.65,3.64-10.75,0.7-14.37-3.16c3.7,4.86,10.92,7.72,16.43,3.37
							c1.91-1.55,2.8-3.62,2.65-6.02c2.09,0.94,3.07,3.61,2.74,5.62c-0.77,4.58-4.89,8.18-9.91,8.85
							c5.37-0.32,10.55-4.35,11.17-10.28c0.31-3.03-1.08-6.07-3.9-7.57c1.29-1.12,2.99-1.26,4.35-0.65
							c5.26,2.29,6.67,8.8,4.65,14.38c1.4-4.53,1.59-9.43-1.2-13.23c-2.43-3.37-7.05-4.66-10.61-2.39c-0.51-2.36,1.08-4.18,3.38-5
							c4.63-1.66,9.49,0.41,12.76,3.91c-3.73-5.2-11.48-7.7-16.79-3.29C121.08,147.75,120.27,149.89,120.43,152.3z"/>
					</g>
				</g>
				<g class="st46">
					<g>
						<defs>
							<rect id="SVGID_3_" x="106.61" y="137.69" width="33.26" height="32.91"/>
						</defs>
						<clipPath id="SVGID_48_">
							<use xlink:href="#SVGID_3_"  style="overflow:visible;"/>
						</clipPath>
						<path class="st47" d="M120.44,152.21c-2.72-1.27-3.29-5.1-1.93-7.81c1.78-3.57,5.22-6.01,9.64-6.52
							c-7.14,0.23-14.39,7.53-11.07,14.74c0.65,1.45,1.76,2.37,3.13,3.01c-1.32,1.11-3.03,1.25-4.38,0.52
							c-2.15-1.17-3.83-2.3-4.59-5.01c-0.84-3.04-0.89-6.15,0.4-9.6c-1.93,3.47-1.64,6.95-0.7,10.68c1.34,5.1,7.4,8.27,12.05,5.41
							c-0.26,1.74-0.52,3.16-1.89,4.16c-4.81,3.54-10.86,0.34-14.36-3.62c3.56,5.01,10.69,8.11,16.39,3.89
							c1.99-1.49,2.94-3.51,2.85-5.92c2.08,0.96,2.99,3.71,2.6,5.74c-0.95,4.6-5.2,8.07-10.26,8.58c5.4-0.19,10.75-4.07,11.57-9.99
							c0.42-3.07-0.88-6.14-3.67-7.77c1.32-1.05,3.02-1.13,4.39-0.49c5.22,2.44,6.41,9.07,4.21,14.63
							c1.54-4.53,1.88-9.44-0.78-13.37c-2.34-3.44-6.92-4.91-10.58-2.73c-0.45-2.39,1.23-4.15,3.56-4.92
							c4.72-1.52,9.52,0.72,12.7,4.4c-3.57-5.36-11.28-8.19-16.77-3.93C121.28,147.63,120.38,149.8,120.44,152.21z"/>
					</g>
				</g>
				<g class="st48">
					<g>
						<defs>
							<rect id="SVGID_2_" x="106.34" y="137.8" width="33.75" height="32.78"/>
						</defs>
						<clipPath id="SVGID_49_">
							<use xlink:href="#SVGID_2_"  style="overflow:visible;"/>
						</clipPath>
						<path class="st49" d="M120.5,152.12c-2.76-1.4-3.07-5.18-1.72-7.92c2.04-3.45,5.46-5.86,9.9-6.22
							c-7.17,0-14.32,6.89-11.6,14.47c0.66,1.4,1.7,2.45,3.04,3.12c-1.34,1.04-3.04,1.04-4.42,0.41c-2.02-1.42-3.74-2.48-4.45-5.24
							c-0.69-3.09-0.69-6.2,0.71-9.65c-2.05,3.45-1.72,6.91-1.03,10.72c1.36,5.15,7.15,8.62,11.93,5.83
							c-0.34,1.75-0.65,3.14-2.05,4.16c-5.11,3.1-10.91,0-14.33-4.16c3.43,5.19,10.59,8.65,16.38,4.47
							c2.09-1.33,3.07-3.43,3.07-5.85c2.06,1.05,2.75,3.82,2.43,5.85c-1.39,4.49-5.5,7.96-10.63,8.3c5.47,0,10.63-3.8,11.99-9.62
							c0.32-3.14-0.69-6.22-3.44-7.96c1.36-1.01,3.08-1.01,4.45-0.36c5.1,2.75,6.14,9.34,3.75,14.86c1.7-4.48,2.04-9.31-0.35-13.46
							c-2.38-3.41-6.82-5.17-10.57-3.12c-0.36-2.39,1.38-4.14,3.74-4.82c4.79-1.38,9.57,1.04,12.64,4.82
							c-3.42-5.51-10.92-8.27-16.75-4.47C121.51,147.63,120.5,149.7,120.5,152.12z"/>
					</g>
				</g>
			</g>
		</g>
		<path class="st50" d="M140.75,153.93c0,9.58-7.87,17.34-17.54,17.34c-9.73,0-17.6-7.76-17.6-17.34c0-9.6,7.87-17.4,17.6-17.4
			C132.88,136.54,140.75,144.34,140.75,153.93z"/>
		<polyline class="st51" points="104.22,132.42 104.98,134.46 107.65,134.35 		"/>
		<polyline class="st51" points="101.38,135.47 102.44,137.36 105.07,136.84 		"/>
		<polyline class="st51" points="99.01,138.89 100.34,140.62 102.87,139.71 		"/>
		<polyline class="st51" points="97.16,142.64 98.73,144.12 101.12,142.88 		"/>
		<polyline class="st51" points="95.88,146.56 97.65,147.8 99.84,146.25 		"/>
		<polyline class="st51" points="95.17,150.64 97.1,151.63 99.04,149.77 		"/>
		<polyline class="st51" points="95.08,154.83 97.12,155.52 98.75,153.37 		"/>
		<polyline class="st51" points="95.58,158.93 97.71,159.33 99.01,156.99 		"/>
		<polyline class="st51" points="96.67,162.92 98.8,163.01 99.76,160.48 		"/>
		<polyline class="st51" points="98.29,166.74 100.43,166.51 101.03,163.88 		"/>
		<polyline class="st51" points="100.48,170.28 102.58,169.75 102.77,167.06 		"/>
		<polyline class="st51" points="103.18,173.46 105.13,172.61 104.95,169.94 		"/>
		<polyline class="st51" points="106.23,176.22 108.1,175.06 107.54,172.46 		"/>
		<polyline class="st51" points="109.72,178.46 111.38,177.09 110.42,174.59 		"/>
		<polyline class="st51" points="113.48,180.24 114.93,178.63 113.64,176.27 		"/>
		<polyline class="st51" points="117.45,181.41 118.65,179.6 117.02,177.46 		"/>
		<polyline class="st51" points="121.57,182.04 122.48,180.06 120.56,178.14 		"/>
		<polyline class="st51" points="125.7,182.01 126.33,179.94 124.16,178.36 		"/>
		<polyline class="st51" points="129.76,181.4 130.12,179.27 127.75,177.99 		"/>
		<polyline class="st51" points="133.76,180.22 133.77,178.04 131.24,177.14 		"/>
		<polyline class="st51" points="137.51,178.45 137.23,176.27 134.6,175.77 		"/>
		<polyline class="st51" points="140.97,176.15 140.36,174.07 137.69,173.94 		"/>
		<polyline class="st51" points="144.04,173.38 143.16,171.42 140.51,171.67 		"/>
		<polyline class="st51" points="146.71,170.19 145.56,168.4 142.94,169.02 		"/>
		<polyline class="st51" points="148.89,166.67 147.48,165.01 144.99,166.05 		"/>
		<polyline class="st51" points="150.51,162.85 148.89,161.46 146.58,162.81 		"/>
		<polyline class="st51" points="151.6,158.82 149.76,157.66 147.69,159.37 		"/>
		<polyline class="st51" points="152.07,154.68 150.11,153.83 148.29,155.79 		"/>
		<polyline class="st51" points="151.97,150.56 149.89,149.96 148.37,152.21 		"/>
		<polyline class="st51" points="151.23,146.47 149.09,146.2 147.91,148.63 		"/>
		<polyline class="st51" points="149.95,142.53 147.8,142.55 146.96,145.12 		"/>
		<polyline class="st51" points="148.08,138.81 145.96,139.17 145.51,141.81 		"/>
		<polyline class="st51" points="145.71,135.39 143.66,136.04 143.61,138.74 		"/>
		<polyline class="st51" points="142.87,132.37 140.93,133.3 141.24,135.99 		"/>
		<polyline class="st51" points="139.63,129.78 137.84,130.99 138.55,133.61 		"/>
		<polyline class="st51" points="136.05,127.7 134.48,129.18 135.53,131.65 		"/>
		<polyline class="st51" points="132.2,126.17 130.83,127.85 132.28,130.11 		"/>
		<polyline class="st51" points="128.17,125.19 127.07,127.06 128.79,129.11 		"/>
		<polyline class="st51" points="124.06,124.85 123.21,126.83 125.23,128.61 		"/>
		<polyline class="st51" points="119.9,125.06 119.38,127.17 121.63,128.62 		"/>
		<polyline class="st51" points="115.84,125.89 115.64,128.06 118.09,129.18 		"/>
		<polyline class="st51" points="111.96,127.3 112.06,129.48 114.64,130.25 		"/>
		<polyline class="st51" points="108.31,129.29 108.71,131.4 111.37,131.78 		"/>
		<path class="st52" d="M147.22,153.48c0,12.95-10.58,23.4-23.6,23.4c-13.06,0-23.64-10.46-23.64-23.4
			c0-12.89,10.58-23.39,23.64-23.39C136.64,130.09,147.22,140.59,147.22,153.48z"/>
	</g>
	<g>
		<path class="st0" d="M0,229.37c1.81-2.53,3.56-5.02,5.22-7.43c1.73-2.39,3.41-4.85,5.12-7.32c1.49-2.1,3.36-4.66,5.57-7.66h0.36
			c5.67,7.38,11.37,14.74,17.08,22.08l-7.86,3.86l-3.48-5.2l-11.93,0.62l-2.54,4.58L0,229.37z M12.6,223.38l6.68-0.34
			c-1.51-2.46-2.61-4.35-3.31-5.62c-0.66,1.11-1.21,2.04-1.67,2.81C13.95,220.86,13.42,221.9,12.6,223.38"/>
		<path class="st0" d="M46.4,220.91c0,1.64,0.03,2.95,0.05,3.87c0.15,4.63,0.21,7.12,0.21,7.35h-9.16v-24.29h9.16
			c0,1.18-0.05,2.98-0.15,5.4c-0.07,2.41-0.12,4.23-0.12,5.45h0.17l10.5-11.04l6.51,4.85l-8.31,7.24l8.66,7.77l-6.94,5.18
			c-1.22-1.38-2.38-2.67-3.48-3.87c-0.86-0.96-2.02-2.27-3.5-3.96c-1.63-1.79-2.76-3.11-3.44-3.95H46.4z"/>
		<rect x="68.82" y="208.17" class="st0" width="9.15" height="23.63"/>
		<path class="st0" d="M87.19,208.16h9.29c-0.16,1.14-0.29,2.24-0.36,3.24c-0.08,1-0.11,2.2-0.11,3.57c0,1.07,0.02,2.31,0.07,3.57
			c0.04,1.27,0.05,2.29,0.08,3.06c0,3.27-0.53,5.8-1.66,7.59c-1.42,2.43-4.23,4.56-8.41,6.47l-4.21-5.79
			c2.22-0.86,3.81-2.31,4.71-4.35c0.74-1.63,1.11-3.83,1.11-6.64c0-1.04-0.04-2.34-0.16-3.95
			C87.33,211.35,87.19,209.09,87.19,208.16"/>
		<path class="st0" d="M130.46,223.44c-0.12-3-0.22-6.59-0.22-10.24h-0.07c-0.81,3.17-1.82,6.73-2.77,9.62l-2.99,9.7h-4.32
			l-2.61-9.6c-0.8-2.95-1.61-6.45-2.22-9.73h-0.1c-0.09,3.35-0.23,7.19-0.39,10.3l-0.49,9.43h-5.1l1.54-24.87h7.38l2.42,8.32
			c0.79,2.86,1.52,5.98,2.08,8.89h0.13c0.65-2.9,1.51-6.11,2.34-8.94l2.57-8.27h7.29l1.31,24.87h-5.38L130.46,223.44z"/>
		<path class="st0" d="M130.46,223.44c-0.12-3-0.22-6.59-0.22-10.24h-0.07c-0.81,3.17-1.82,6.73-2.77,9.62l-2.99,9.7h-4.32
			l-2.61-9.6c-0.8-2.95-1.61-6.45-2.22-9.73h-0.1c-0.09,3.35-0.23,7.19-0.39,10.3l-0.49,9.43h-5.1l1.54-24.87h7.38l2.42,8.32
			c0.79,2.86,1.52,5.98,2.08,8.89h0.13c0.65-2.9,1.51-6.11,2.34-8.94l2.57-8.27h7.29l1.31,24.87h-5.38L130.46,223.44z"/>
		<path class="st0" d="M150.92,233.35c-7.23,0-11.52-5.57-11.52-12.66c0-7.45,4.7-13.01,11.91-13.01c7.54,0,11.65,5.73,11.65,12.56
			c0,8.21-4.83,13.12-12.01,13.12H150.92z M151.17,228.87c3.75,0,5.91-3.53,5.91-8.42c0-4.45-2.1-8.31-5.91-8.31
			c-3.8,0-5.97,3.75-5.97,8.4c0,4.68,2.25,8.33,5.92,8.33H151.17z"/>
		<path class="st0" d="M150.92,233.35c-7.23,0-11.52-5.57-11.52-12.66c0-7.45,4.7-13.01,11.91-13.01c7.54,0,11.65,5.73,11.65,12.56
			c0,8.21-4.83,13.12-12.01,13.12H150.92z M151.17,228.87c3.75,0,5.91-3.53,5.91-8.42c0-4.45-2.1-8.31-5.91-8.31
			c-3.8,0-5.97,3.75-5.97,8.4c0,4.68,2.25,8.33,5.92,8.33H151.17z"/>
		<polygon class="st0" points="170.21,212.8 163.58,212.8 163.58,208.07 182.42,208.07 182.42,212.8 175.74,212.8 175.74,232.96 
			170.21,232.96 		"/>
		<polygon class="st0" points="170.21,212.8 163.58,212.8 163.58,208.07 182.42,208.07 182.42,212.8 175.74,212.8 175.74,232.96 
			170.21,232.96 		"/>
		<path class="st0" d="M194.74,233.35c-7.24,0-11.54-5.57-11.54-12.66c0-7.45,4.74-13.01,11.95-13.01c7.52,0,11.64,5.73,11.64,12.56
			c0,8.21-4.84,13.12-12.01,13.12H194.74z M194.99,228.87c3.75,0,5.89-3.53,5.89-8.42c0-4.45-2.07-8.31-5.89-8.31
			c-3.82,0-5.97,3.74-5.97,8.4c0,4.68,2.23,8.33,5.93,8.33H194.99z"/>
		<path class="st0" d="M194.74,233.35c-7.24,0-11.54-5.57-11.54-12.66c0-7.45,4.74-13.01,11.95-13.01c7.52,0,11.64,5.73,11.64,12.56
			c0,8.21-4.84,13.12-12.01,13.12H194.74z M194.99,228.87c3.75,0,5.89-3.53,5.89-8.42c0-4.45-2.07-8.31-5.89-8.31
			c-3.82,0-5.97,3.74-5.97,8.4c0,4.68,2.23,8.33,5.93,8.33H194.99z"/>
		<path class="st0" d="M210.42,208.45c1.79-0.35,4.4-0.57,7.39-0.57c3.64,0,6.18,0.57,7.94,2c1.48,1.17,2.28,2.92,2.28,5.21
			c0,3.14-2.22,5.31-4.33,6.1v0.09c1.71,0.71,2.65,2.34,3.29,4.63c0.76,2.81,1.49,6.07,1.97,7.05h-5.69
			c-0.38-0.74-0.97-2.75-1.67-5.81c-0.69-3.13-1.75-3.95-4.05-3.97h-1.63v9.78h-5.5V208.45z M215.92,219.1h2.19
			c2.75,0,4.4-1.4,4.4-3.59c0-2.24-1.52-3.41-4.08-3.41c-1.35,0-2.11,0.06-2.5,0.18V219.1z"/>
		<path class="st0" d="M210.42,208.45c1.79-0.35,4.4-0.57,7.39-0.57c3.64,0,6.18,0.57,7.94,2c1.48,1.17,2.28,2.92,2.28,5.21
			c0,3.14-2.22,5.31-4.33,6.1v0.09c1.71,0.71,2.65,2.34,3.29,4.63c0.76,2.81,1.49,6.07,1.97,7.05h-5.69
			c-0.38-0.74-0.97-2.75-1.67-5.81c-0.69-3.13-1.75-3.95-4.05-3.97h-1.63v9.78h-5.5V208.45z M215.92,219.1h2.19
			c2.75,0,4.4-1.4,4.4-3.59c0-2.24-1.52-3.41-4.08-3.41c-1.35,0-2.11,0.06-2.5,0.18V219.1z"/>
		<path class="st0" d="M232.2,227.17c1.44,0.8,3.79,1.55,6.14,1.55c2.53,0,3.89-1.05,3.89-2.71c0-1.51-1.14-2.43-4.1-3.49
			c-4.1-1.46-6.77-3.73-6.77-7.39c0-4.28,3.52-7.45,9.27-7.45c2.81,0,4.81,0.53,6.28,1.24l-1.26,4.52c-0.92-0.5-2.73-1.2-5.09-1.2
			c-2.4,0-3.56,1.17-3.56,2.41c0,1.57,1.35,2.27,4.54,3.54c4.33,1.61,6.35,3.9,6.35,7.46c0,4.15-3.13,7.7-9.86,7.7
			c-2.8,0-5.56-0.78-6.95-1.56L232.2,227.17z"/>
		<path class="st0" d="M232.2,227.17c1.44,0.8,3.79,1.55,6.14,1.55c2.53,0,3.89-1.05,3.89-2.71c0-1.51-1.14-2.43-4.1-3.49
			c-4.1-1.46-6.77-3.73-6.77-7.39c0-4.28,3.52-7.45,9.27-7.45c2.81,0,4.81,0.53,6.28,1.24l-1.26,4.52c-0.92-0.5-2.73-1.2-5.09-1.2
			c-2.4,0-3.56,1.17-3.56,2.41c0,1.57,1.35,2.27,4.54,3.54c4.33,1.61,6.35,3.9,6.35,7.46c0,4.15-3.13,7.7-9.86,7.7
			c-2.8,0-5.56-0.78-6.95-1.56L232.2,227.17z"/>
	</g>
</g>
</svg>
